<svg width="2797" height="2805" viewBox="0 0 2797 2805" fill="none" xmlns="http://www.w3.org/2000/svg">
<path d="M1398.75 2800.34C2170.89 2800.34 2796.83 2174.4 2796.83 1402.26C2796.83 630.116 2170.89 4.17224 1398.75 4.17224C626.608 4.17224 0.664551 630.116 0.664551 1402.26C0.664551 2174.4 626.608 2800.34 1398.75 2800.34Z" fill="url(#paint0_radial_748_474)"/>
<g opacity="0.5">
<path d="M1398.75 2334.31C1913.51 2334.31 2330.8 1917.02 2330.8 1402.26C2330.8 887.496 1913.51 470.2 1398.75 470.2C883.988 470.2 466.692 887.496 466.692 1402.26C466.692 1917.02 883.988 2334.31 1398.75 2334.31Z" fill="url(#paint1_radial_748_474)"/>
<path d="M1398.75 2241.11C1862.03 2241.11 2237.6 1865.54 2237.6 1402.26C2237.6 938.972 1862.03 563.406 1398.75 563.406C935.464 563.406 559.898 938.972 559.898 1402.26C559.898 1865.54 935.464 2241.11 1398.75 2241.11Z" fill="url(#paint2_radial_748_474)"/>
<path d="M1398.75 2194.5C1836.29 2194.5 2191 1839.8 2191 1402.26C2191 964.71 1836.29 610.008 1398.75 610.008C961.202 610.008 606.501 964.71 606.501 1402.26C606.501 1839.8 961.202 2194.5 1398.75 2194.5Z" fill="url(#paint3_radial_748_474)"/>
<path d="M1398.75 2171.67C1823.68 2171.67 2168.16 1827.19 2168.16 1402.26C2168.16 977.322 1823.68 632.844 1398.75 632.844C973.814 632.844 629.336 977.322 629.336 1402.26C629.336 1827.19 973.814 2171.67 1398.75 2171.67Z" fill="url(#paint4_radial_748_474)"/>
<path d="M1398.75 2078C1771.95 2078 2074.49 1775.46 2074.49 1402.26C2074.49 1029.05 1771.95 726.515 1398.75 726.515C1025.55 726.515 723.008 1029.05 723.008 1402.26C723.008 1775.46 1025.55 2078 1398.75 2078Z" fill="url(#paint5_radial_748_474)"/>
<path d="M1398.75 1984.79C1720.47 1984.79 1981.28 1723.98 1981.28 1402.26C1981.28 1080.53 1720.47 819.721 1398.75 819.721C1077.02 819.721 816.213 1080.53 816.213 1402.26C816.213 1723.98 1077.02 1984.79 1398.75 1984.79Z" fill="url(#paint6_radial_748_474)"/>
<path d="M1398.75 1949.84C1701.17 1949.84 1946.33 1704.68 1946.33 1402.26C1946.33 1099.83 1701.17 854.673 1398.75 854.673C1096.33 854.673 851.166 1099.83 851.166 1402.26C851.166 1704.68 1096.33 1949.84 1398.75 1949.84Z" fill="url(#paint7_radial_748_474)"/>
<path d="M1398.75 1821.68C1630.39 1821.68 1818.17 1633.9 1818.17 1402.26C1818.17 1170.61 1630.39 982.831 1398.75 982.831C1167.11 982.831 979.323 1170.61 979.323 1402.26C979.323 1633.9 1167.11 1821.68 1398.75 1821.68Z" fill="url(#paint8_radial_748_474)"/>
<path d="M1398.75 1751.78C1591.78 1751.78 1748.27 1595.29 1748.27 1402.26C1748.27 1209.22 1591.78 1052.74 1398.75 1052.74C1205.71 1052.74 1049.23 1209.22 1049.23 1402.26C1049.23 1595.29 1205.71 1751.78 1398.75 1751.78Z" fill="url(#paint9_radial_748_474)"/>
<path d="M1398.75 1635.27C1527.44 1635.27 1631.76 1530.95 1631.76 1402.26C1631.76 1273.57 1527.44 1169.24 1398.75 1169.24C1270.06 1169.24 1165.73 1273.57 1165.73 1402.26C1165.73 1530.95 1270.06 1635.27 1398.75 1635.27Z" fill="url(#paint10_radial_748_474)"/>
<path d="M1398.75 1580.28C1496.55 1580.28 1575.84 1500.99 1575.84 1403.19C1575.84 1305.38 1496.55 1226.1 1398.75 1226.1C1300.94 1226.1 1221.66 1305.38 1221.66 1403.19C1221.66 1500.99 1300.94 1580.28 1398.75 1580.28Z" fill="url(#paint11_radial_748_474)"/>
<path d="M1398.75 1518.76C1463.09 1518.76 1515.26 1466.6 1515.26 1402.26C1515.26 1337.91 1463.09 1285.75 1398.75 1285.75C1334.4 1285.75 1282.24 1337.91 1282.24 1402.26C1282.24 1466.6 1334.4 1518.76 1398.75 1518.76Z" fill="url(#paint12_radial_748_474)"/>
</g>
<path d="M1425.67 1484.65C1420.36 1486.27 1414.9 1487.37 1409.39 1487.95C1403.89 1488.52 1398.34 1488.55 1392.85 1488.06C1387.36 1487.56 1381.94 1486.53 1376.67 1485C1371.4 1483.47 1366.29 1481.44 1361.43 1478.94C1356.57 1476.44 1351.96 1473.49 1347.67 1470.13C1343.39 1466.77 1339.44 1463 1335.9 1458.9C1332.36 1454.79 1329.22 1450.35 1326.55 1445.67C1323.87 1440.97 1321.66 1436.04 1319.92 1430.95C1321.87 1435.96 1324.29 1440.77 1327.15 1445.3C1330 1449.83 1333.29 1454.08 1336.94 1457.95C1340.6 1461.84 1344.62 1465.35 1348.93 1468.44C1353.24 1471.54 1357.85 1474.22 1362.65 1476.42C1367.45 1478.63 1372.46 1480.37 1377.57 1481.62C1382.68 1482.87 1387.9 1483.62 1393.14 1483.87C1398.37 1484.11 1403.62 1483.85 1408.78 1483.09C1413.94 1482.33 1419.02 1481.06 1423.92 1479.34C1425.38 1478.83 1426.93 1479.63 1427.44 1481.08C1427.95 1482.54 1427.24 1484.1 1425.78 1484.61C1425.74 1484.63 1425.71 1484.64 1425.67 1484.65L1425.67 1484.65Z" fill="url(#paint13_linear_748_474)"/>
<path d="M1532.79 1456.16C1529.16 1464.67 1524.72 1472.82 1519.56 1480.47C1514.39 1488.11 1508.49 1495.23 1501.98 1501.7C1495.47 1508.18 1488.34 1514.01 1480.74 1519.1C1473.14 1524.18 1465.07 1528.53 1456.67 1532.06C1448.28 1535.59 1439.56 1538.31 1430.69 1540.18C1421.8 1542.04 1412.77 1543.05 1403.74 1543.17C1394.71 1543.3 1385.67 1542.55 1376.83 1540.95C1367.96 1539.33 1359.28 1536.87 1350.93 1533.63C1359.41 1536.51 1368.15 1538.58 1377 1539.79C1385.84 1541 1394.78 1541.35 1403.65 1540.84C1412.52 1540.33 1421.32 1538.96 1429.88 1536.77C1438.46 1534.58 1446.8 1531.57 1454.76 1527.8C1462.73 1524.04 1470.32 1519.51 1477.38 1514.32C1484.46 1509.13 1491.01 1503.28 1496.93 1496.85C1502.85 1490.42 1508.14 1483.45 1512.7 1476.05C1517.26 1468.64 1521.08 1460.81 1524.13 1452.69C1525.04 1450.29 1527.72 1449.17 1530.13 1450.07C1532.53 1450.98 1533.77 1453.56 1532.86 1455.98C1532.83 1456.04 1532.82 1456.09 1532.78 1456.15L1532.79 1456.16Z" fill="url(#paint14_linear_748_474)"/>
<path d="M1510.16 1544.39C1500.91 1551.33 1491.01 1557.38 1480.65 1562.43C1470.27 1567.47 1459.45 1571.49 1448.35 1574.43C1437.25 1577.37 1425.89 1579.22 1414.48 1579.99C1403.07 1580.74 1391.62 1580.4 1380.33 1578.97C1369.03 1577.55 1357.9 1575.04 1347.12 1571.52C1336.34 1567.99 1325.93 1563.43 1316.08 1557.92C1306.22 1552.41 1296.91 1545.96 1288.34 1538.69C1279.74 1531.4 1271.89 1523.32 1264.87 1514.59C1272.26 1523.01 1280.42 1530.71 1289.25 1537.55C1298.06 1544.39 1307.52 1550.35 1317.44 1555.34C1327.36 1560.33 1337.74 1564.35 1348.38 1567.33C1359.03 1570.32 1369.95 1572.28 1380.92 1573.17C1391.9 1574.07 1402.94 1573.91 1413.83 1572.72C1424.73 1571.52 1435.49 1569.28 1445.91 1566.02C1456.34 1562.77 1466.42 1558.52 1475.98 1553.35C1485.55 1548.19 1494.58 1542.1 1502.96 1535.22C1505.44 1533.18 1509.04 1533.64 1511.08 1536.13C1513.12 1538.62 1512.84 1542.18 1510.35 1544.23C1510.29 1544.28 1510.23 1544.33 1510.16 1544.37L1510.16 1544.39Z" fill="url(#paint15_linear_748_474)"/>
<path d="M1613.3 1371.75C1614.96 1385.53 1615.32 1399.45 1614.34 1413.25C1613.36 1427.05 1611.04 1440.72 1607.44 1454.02C1603.83 1467.32 1598.94 1480.23 1592.89 1492.54C1586.83 1504.85 1579.61 1516.55 1571.35 1527.43C1563.09 1538.31 1553.8 1548.38 1543.68 1557.47C1533.54 1566.55 1522.56 1574.63 1510.92 1581.57C1499.28 1588.51 1486.98 1594.31 1474.29 1598.86C1461.56 1603.42 1448.44 1606.73 1435.16 1608.78C1448.34 1606.16 1461.25 1602.3 1473.64 1597.23C1486.04 1592.17 1497.91 1585.92 1509.05 1578.61C1520.19 1571.29 1530.6 1562.91 1540.08 1553.64C1549.57 1544.37 1558.16 1534.2 1565.67 1523.34C1573.19 1512.47 1579.66 1500.89 1584.94 1488.86C1590.24 1476.81 1594.37 1464.29 1597.24 1451.5C1600.11 1438.71 1601.74 1425.69 1602.11 1412.65C1602.48 1399.61 1601.58 1386.57 1599.46 1373.74C1598.83 1369.93 1601.47 1366.47 1605.27 1365.84C1609.08 1365.21 1612.62 1367.64 1613.25 1371.46C1613.27 1371.56 1613.28 1371.64 1613.29 1371.74L1613.3 1371.75Z" fill="url(#paint16_linear_748_474)"/>
<path d="M1673.41 1312.52C1678.78 1330.23 1682.47 1348.42 1684.39 1366.77C1686.29 1385.12 1686.41 1403.61 1684.75 1421.9C1683.1 1440.2 1679.67 1458.29 1674.58 1475.86C1669.47 1493.43 1662.69 1510.46 1654.36 1526.66C1646.04 1542.86 1636.18 1558.23 1624.99 1572.5C1613.78 1586.78 1601.23 1599.94 1587.55 1611.74C1573.87 1623.54 1559.08 1634 1543.46 1642.92C1527.8 1651.85 1511.34 1659.23 1494.38 1665.01C1511.08 1658.51 1527.13 1650.45 1542.23 1640.93C1557.34 1631.42 1571.48 1620.46 1584.41 1608.28C1597.35 1596.09 1609.07 1582.68 1619.38 1568.32C1629.7 1553.95 1638.61 1538.6 1645.96 1522.59C1653.33 1506.58 1659.13 1489.89 1663.29 1472.86C1667.46 1455.81 1669.97 1438.41 1670.78 1420.96C1671.59 1403.51 1670.72 1386.03 1668.19 1368.82C1665.66 1351.61 1661.44 1334.69 1655.69 1318.34C1653.98 1313.48 1656.65 1308.33 1661.5 1306.62C1666.36 1304.91 1671.56 1307.28 1673.28 1312.16C1673.32 1312.28 1673.36 1312.38 1673.39 1312.51L1673.41 1312.52Z" fill="url(#paint17_linear_748_474)"/>
<path d="M1705.36 1593.16C1692.72 1612.53 1678.26 1630.68 1662.23 1647.26C1646.19 1663.82 1628.58 1678.79 1609.74 1691.91C1590.89 1705.03 1570.81 1716.28 1549.9 1725.51C1528.96 1734.74 1507.21 1741.93 1485.01 1746.98C1462.8 1752.02 1440.16 1754.93 1417.51 1755.68C1394.83 1756.42 1372.15 1754.97 1349.86 1751.36C1327.57 1747.75 1305.66 1741.98 1284.57 1734.19C1263.44 1726.38 1243.15 1716.55 1223.99 1704.95C1243.63 1715.72 1264.24 1724.61 1285.5 1731.42C1306.74 1738.25 1328.59 1742.99 1350.64 1745.57C1372.71 1748.17 1394.98 1748.62 1417.01 1746.95C1439.06 1745.28 1460.92 1741.49 1482.15 1735.67C1503.4 1729.85 1524.05 1722 1543.69 1712.3C1563.37 1702.59 1582.05 1691.02 1599.41 1677.77C1616.78 1664.52 1632.82 1649.65 1647.26 1633.39C1661.7 1617.14 1674.52 1599.52 1685.55 1580.86C1688.83 1575.33 1695.91 1573.74 1701.44 1577.02C1706.98 1580.29 1708.89 1587.18 1705.6 1592.74C1705.52 1592.88 1705.45 1593 1705.35 1593.13L1705.36 1593.16Z" fill="url(#paint18_linear_748_474)"/>
<path d="M1533.35 1814.25C1506.79 1822.31 1479.5 1827.84 1451.98 1830.71C1424.45 1833.56 1396.72 1833.74 1369.28 1831.27C1341.83 1828.79 1314.69 1823.64 1288.35 1816C1261.99 1808.33 1236.45 1798.17 1212.15 1785.68C1187.84 1773.19 1164.78 1758.4 1143.38 1741.61C1121.96 1724.8 1102.23 1705.98 1084.53 1685.46C1066.82 1664.94 1051.13 1642.75 1037.75 1619.32C1024.35 1595.84 1013.28 1571.15 1004.62 1545.71C1014.36 1570.76 1026.45 1594.83 1040.74 1617.48C1055 1640.15 1071.44 1661.36 1089.71 1680.75C1108 1700.16 1128.11 1717.74 1149.66 1733.2C1171.21 1748.68 1194.23 1762.06 1218.24 1773.08C1242.26 1784.12 1267.3 1792.83 1292.84 1799.07C1318.41 1805.32 1344.51 1809.09 1370.69 1810.31C1396.87 1811.52 1423.09 1810.22 1448.91 1806.42C1474.72 1802.62 1500.09 1796.3 1524.62 1787.67C1531.91 1785.11 1539.64 1789.11 1542.2 1796.39C1544.76 1803.67 1541.21 1811.48 1533.9 1814.05C1533.71 1814.12 1533.56 1814.17 1533.36 1814.21L1533.35 1814.25Z" fill="url(#paint19_linear_748_474)"/>
<path d="M1867.89 1590.92C1855.18 1620.7 1839.65 1649.24 1821.59 1675.99C1803.49 1702.73 1782.86 1727.65 1760.06 1750.32C1737.26 1772.99 1712.31 1793.38 1685.73 1811.2C1659.11 1829 1630.87 1844.21 1601.48 1856.56C1572.1 1868.92 1541.59 1878.43 1510.53 1884.98C1479.45 1891.5 1447.82 1895.03 1416.21 1895.46C1384.6 1895.9 1352.99 1893.28 1322.02 1887.67C1290.99 1882.03 1260.62 1873.41 1231.39 1862.07C1261.08 1872.15 1291.67 1879.4 1322.63 1883.62C1353.57 1887.87 1384.86 1889.09 1415.89 1887.29C1446.95 1885.51 1477.75 1880.72 1507.72 1873.05C1537.72 1865.4 1566.94 1854.86 1594.79 1841.66C1622.67 1828.48 1649.24 1812.64 1673.96 1794.49C1698.73 1776.32 1721.68 1755.82 1742.39 1733.33C1763.11 1710.85 1781.61 1686.44 1797.57 1660.52C1813.53 1634.6 1826.91 1607.18 1837.6 1578.79C1840.77 1570.36 1850.14 1566.44 1858.57 1569.62C1867 1572.79 1871.31 1581.82 1868.13 1590.28C1868.05 1590.49 1867.98 1590.68 1867.87 1590.88L1867.89 1590.92Z" fill="url(#paint20_linear_748_474)"/>
<path d="M1930.87 1118.22C1948.33 1152.67 1962.51 1188.74 1973.1 1225.77C1983.65 1262.81 1990.6 1300.76 1993.84 1338.97C1997.07 1377.19 1996.57 1415.62 1992.47 1453.58C1988.34 1491.55 1980.58 1529.01 1969.33 1565.34C1958.09 1601.67 1943.39 1636.84 1925.56 1670.24C1907.69 1703.65 1886.66 1735.25 1862.82 1764.47C1838.98 1793.69 1812.35 1820.56 1783.48 1844.56C1754.53 1868.6 1723.37 1889.73 1690.6 1907.75C1722.58 1888.35 1752.65 1865.95 1780.24 1840.9C1807.85 1815.88 1832.95 1788.23 1855.11 1758.5C1877.29 1728.75 1896.53 1696.93 1912.51 1663.66C1928.52 1630.38 1941.28 1595.6 1950.59 1560.03C1959.92 1524.45 1965.81 1488.02 1968.18 1451.52C1970.57 1414.95 1969.44 1378.27 1964.77 1342.1C1960.11 1305.92 1951.99 1270.3 1940.54 1235.84C1929.09 1201.38 1914.3 1168.14 1896.54 1136.6C1891.28 1127.24 1894.89 1115.67 1904.25 1110.41C1913.61 1105.14 1925.17 1108.12 1930.46 1117.51C1930.59 1117.75 1930.71 1117.95 1930.81 1118.21L1930.87 1118.22Z" fill="url(#paint21_linear_748_474)"/>
<path d="M1799.84 1913.92C1766.54 1938.91 1730.9 1960.71 1693.59 1978.88C1656.24 1997.01 1617.26 2011.5 1577.3 2022.08C1537.35 2032.67 1496.45 2039.33 1455.4 2042.08C1414.31 2044.8 1373.1 2043.57 1332.43 2038.44C1291.77 2033.3 1251.68 2024.29 1212.9 2011.61C1174.09 1998.89 1136.61 1982.49 1101.13 1962.65C1065.65 1942.81 1032.14 1919.58 1001.26 1893.42C970.333 1867.19 942.067 1838.07 916.801 1806.66C943.384 1836.97 972.784 1864.7 1004.54 1889.3C1036.27 1913.93 1070.32 1935.39 1106.02 1953.34C1141.75 1971.32 1179.13 1985.79 1217.43 1996.52C1255.76 2007.29 1295.06 2014.33 1334.56 2017.55C1374.08 2020.8 1413.84 2020.23 1453.04 2015.91C1492.3 2011.61 1531.02 2003.54 1568.55 1991.81C1606.07 1980.09 1642.36 1964.81 1676.8 1946.21C1711.23 1927.61 1743.75 1905.68 1773.9 1880.93C1782.85 1873.59 1795.81 1875.25 1803.15 1884.2C1810.49 1893.15 1809.49 1905.99 1800.51 1913.36C1800.29 1913.55 1800.09 1913.71 1799.84 1913.86L1799.84 1913.92Z" fill="url(#paint22_linear_748_474)"/>
<path d="M2005.24 1857.75C1975.26 1895.96 1941.68 1931.29 1905.12 1963.03C1868.51 1994.75 1828.95 2022.84 1787.12 2046.83C1745.29 2070.83 1701.22 2090.68 1655.78 2106.18C1610.31 2121.65 1563.49 2132.71 1516.11 2139.2C1468.74 2145.7 1420.84 2147.64 1373.31 2145.06C1325.73 2142.45 1278.54 2135.28 1232.57 2123.64C1186.6 2112 1141.82 2095.93 1099.13 2075.78C1056.35 2055.56 1015.71 2031.28 977.746 2003.51C1016.86 2029.64 1058.36 2052.01 1101.58 2070.14C1144.76 2088.32 1189.62 2102.23 1235.28 2111.67C1280.97 2121.15 1327.46 2126.16 1373.86 2126.69C1420.3 2127.25 1466.72 2123.32 1512.2 2115.02C1557.72 2106.75 1602.36 2094.1 1645.23 2077.4C1688.17 2060.7 1729.37 2039.9 1768.12 2015.36C1806.86 1990.82 1843.14 1962.64 1876.33 1931.28C1909.52 1899.92 1939.55 1865.4 1966.05 1828.4C1973.92 1817.42 1989.02 1815.39 2000 1823.26C2010.98 1831.12 2013.72 1845.89 2005.83 1856.91C2005.63 1857.19 2005.46 1857.43 2005.23 1857.68L2005.24 1857.75Z" fill="url(#paint23_linear_748_474)"/>
<path d="M2213.79 1697.42C2193.8 1749.2 2168.9 1799.03 2139.55 1845.94C2110.14 1892.83 2076.29 1936.75 2038.59 1976.95C2000.89 2017.16 1959.36 2053.58 1914.87 2085.7C1870.34 2117.8 1822.87 2145.54 1773.26 2168.46C1723.65 2191.39 1671.96 2209.52 1619.14 2222.58C1566.27 2235.63 1512.31 2243.55 1458.17 2246.19C1404.04 2248.83 1349.73 2246.24 1296.33 2238.47C1242.83 2230.67 1190.3 2217.72 1139.53 2200.05C1191 2215.54 1243.84 2226.12 1297.13 2231.5C1350.4 2236.93 1404.08 2237.14 1457.13 2232.21C1510.24 2227.3 1562.72 2217.25 1613.61 2202.32C1664.56 2187.42 1713.98 2167.61 1760.9 2143.34C1807.89 2119.09 1852.45 2090.35 1893.72 2057.78C1935.07 2025.17 1973.15 1988.68 2007.3 1948.91C2041.45 1909.15 2071.68 1866.23 2097.48 1820.86C2123.27 1775.5 2144.56 1727.73 2161.16 1678.44C2166.09 1663.81 2181.91 1656.55 2196.54 1661.48C2211.17 1666.4 2219.1 1681.62 2214.16 1696.3C2214.03 1696.68 2213.93 1697 2213.76 1697.35L2213.79 1697.42Z" fill="url(#paint24_linear_748_474)"/>
<path d="M2041.91 685.63C2086.92 727.771 2127.88 774.146 2163.98 823.901C2200.04 873.703 2231.19 926.845 2256.91 982.403C2282.63 1037.96 2302.86 1095.89 2317.43 1155.07C2331.96 1214.3 2340.78 1274.73 2343.75 1335.37C2346.71 1396 2343.87 1456.79 2335.35 1516.62C2326.79 1576.5 2312.5 1635.38 2292.69 1692.23C2272.88 1749.09 2247.61 1803.94 2217.39 1855.71C2187.09 1907.57 2151.89 1956.29 2112.57 2001.22C2149.94 1954.65 2182.82 1904.64 2210.54 1851.99C2238.3 1799.38 2260.86 1744.18 2277.85 1687.49C2294.89 1630.75 2306.38 1572.51 2312.18 1513.89C2318.03 1455.21 2318.19 1396.07 2312.73 1337.64C2307.3 1279.16 2296.24 1221.3 2279.87 1165.24C2263.5 1109.08 2241.76 1054.68 2215.01 1002.96C2188.26 951.237 2156.64 902.238 2120.65 856.794C2084.66 811.351 2044.32 769.551 2000.46 731.94C1987.45 720.776 1986.55 701.453 1997.71 688.439C2008.88 675.424 2027.85 673.588 2040.91 684.791C2041.25 685.071 2041.53 685.31 2041.83 685.637L2041.91 685.63Z" fill="url(#paint25_linear_748_474)"/>
<path d="M2394.4 1076.98C2413.87 1141.15 2427.24 1207.12 2434.19 1273.62C2441.07 1340.15 2441.51 1407.16 2435.52 1473.48C2429.53 1539.81 2417.09 1605.39 2398.63 1669.06C2380.1 1732.76 2355.54 1794.48 2325.35 1853.21C2295.17 1911.95 2259.43 1967.67 2218.86 2019.4C2178.23 2071.15 2132.74 2118.85 2083.16 2161.63C2033.58 2204.41 1979.93 2242.35 1923.31 2274.67C1866.57 2307.05 1806.91 2333.8 1745.42 2354.74C1805.96 2331.19 1864.14 2301.96 1918.88 2267.44C1973.65 2232.98 2024.92 2193.25 2071.76 2149.09C2118.68 2104.91 2161.17 2056.29 2198.53 2004.22C2235.94 1952.13 2268.26 1896.5 2294.9 1838.48C2321.59 1780.44 2342.64 1719.93 2357.71 1658.21C2372.83 1596.4 2381.94 1533.32 2384.87 1470.05C2387.8 1406.79 2384.66 1343.42 2375.48 1281.04C2366.29 1218.66 2351.02 1157.34 2330.16 1098.05C2323.97 1080.46 2333.64 1061.77 2351.23 1055.58C2368.83 1049.39 2387.7 1057.98 2393.91 1075.64C2394.07 1076.09 2394.21 1076.47 2394.31 1076.93L2394.4 1076.98Z" fill="url(#paint26_linear_748_474)"/>
<path d="M2424.12 1815.38C2395.86 1881.75 2361.45 1945.43 2321.5 2005.15C2281.48 2064.85 2235.94 2120.53 2185.69 2171.24C2135.43 2221.95 2080.48 2267.63 2021.99 2307.61C1963.43 2347.56 1901.35 2381.75 1836.79 2409.61C1772.23 2437.48 1705.26 2459.06 1637.13 2474.02C1568.92 2488.96 1499.59 2497.22 1430.32 2498.62C1361.05 2500.02 1291.83 2494.63 1224.04 2482.57C1156.13 2470.46 1089.72 2451.7 1025.81 2426.89C1090.73 2448.9 1157.65 2464.59 1225.43 2473.55C1293.17 2482.59 1361.71 2484.87 1429.72 2480.46C1497.8 2476.07 1565.35 2464.99 1631.13 2447.55C1696.97 2430.13 1761.12 2406.29 1822.33 2376.58C1883.6 2346.9 1942.02 2311.3 1996.44 2270.61C2050.96 2229.88 2101.51 2184 2147.2 2133.72C2192.9 2083.43 2233.77 2028.92 2269.09 1971.07C2304.41 1913.22 2334.1 1852.08 2357.9 1788.8C2364.96 1770.02 2385.55 1761.19 2403.97 1768.13C2422.39 1775.06 2431.73 1795.09 2424.64 1813.94C2424.46 1814.42 2424.31 1814.83 2424.07 1815.28L2424.12 1815.38Z" fill="url(#paint27_linear_748_474)"/>
<path d="M1312.11 1399.37C1312.41 1393.83 1313.24 1388.32 1314.58 1382.95C1315.93 1377.58 1317.79 1372.36 1320.14 1367.37C1322.48 1362.38 1325.3 1357.63 1328.54 1353.21C1331.79 1348.78 1335.44 1344.67 1339.45 1340.96C1343.46 1337.25 1347.82 1333.92 1352.44 1331.05C1357.06 1328.17 1361.95 1325.75 1367.02 1323.83C1372.08 1321.91 1377.33 1320.47 1382.65 1319.56C1387.98 1318.65 1393.37 1318.26 1398.75 1318.37C1393.37 1318.49 1388.02 1319.11 1382.79 1320.25C1377.55 1321.38 1372.44 1323.02 1367.55 1325.13C1362.65 1327.23 1357.97 1329.81 1353.59 1332.8C1349.21 1335.8 1345.12 1339.21 1341.4 1342.97C1337.69 1346.72 1334.34 1350.83 1331.42 1355.21C1328.49 1359.59 1326 1364.23 1323.98 1369.07C1321.96 1373.91 1320.41 1378.92 1319.36 1384.04C1318.31 1389.15 1317.76 1394.35 1317.7 1399.55C1317.69 1401.09 1316.41 1402.27 1314.86 1402.26C1313.32 1402.24 1312.1 1401.04 1312.11 1399.49C1312.11 1399.45 1312.11 1399.42 1312.12 1399.38L1312.11 1399.37Z" fill="url(#paint28_linear_748_474)"/>
<path d="M1302.25 1509.78C1295.5 1503.45 1289.35 1496.5 1283.94 1489.03C1278.52 1481.56 1273.85 1473.59 1269.99 1465.25C1266.13 1456.91 1263.1 1448.22 1260.91 1439.34C1258.73 1430.46 1257.41 1421.39 1256.96 1412.29C1256.52 1403.19 1256.94 1394.07 1258.22 1385.1C1259.51 1376.11 1261.65 1367.28 1264.62 1358.75C1267.6 1350.22 1271.39 1341.99 1275.92 1334.22C1280.47 1326.44 1285.75 1319.13 1291.65 1312.39C1286.04 1319.38 1281.11 1326.88 1276.95 1334.78C1272.78 1342.67 1269.4 1350.95 1266.85 1359.46C1264.29 1367.97 1262.57 1376.71 1261.7 1385.51C1260.82 1394.31 1260.8 1403.18 1261.62 1411.95C1262.43 1420.73 1264.09 1429.41 1266.55 1437.82C1269 1446.24 1272.27 1454.41 1276.28 1462.17C1280.29 1469.93 1285.04 1477.28 1290.44 1484.1C1295.84 1490.91 1301.89 1497.19 1308.47 1502.83C1310.42 1504.5 1310.56 1507.4 1308.88 1509.36C1307.21 1511.31 1304.36 1511.58 1302.4 1509.9C1302.35 1509.86 1302.31 1509.82 1302.26 1509.78L1302.25 1509.78Z" fill="url(#paint29_linear_748_474)"/>
<path d="M1227.08 1458.34C1223.73 1447.27 1221.42 1435.9 1220.22 1424.43C1219.04 1412.96 1218.96 1401.41 1219.99 1389.98C1221.03 1378.54 1223.17 1367.23 1226.36 1356.26C1229.55 1345.27 1233.78 1334.63 1238.99 1324.5C1244.19 1314.38 1250.35 1304.77 1257.35 1295.85C1264.36 1286.93 1272.2 1278.71 1280.75 1271.33C1289.29 1263.95 1298.54 1257.41 1308.31 1251.84C1318.09 1246.26 1328.38 1241.65 1338.98 1238.03C1328.54 1242.09 1318.51 1247.13 1309.07 1253.09C1299.63 1259.03 1290.79 1265.88 1282.71 1273.49C1274.62 1281.11 1267.3 1289.49 1260.86 1298.47C1254.4 1307.45 1248.83 1317.04 1244.24 1327.04C1239.64 1337.05 1236.01 1347.49 1233.41 1358.13C1230.8 1368.78 1229.23 1379.66 1228.73 1390.57C1228.22 1401.48 1228.76 1412.4 1230.35 1423.16C1231.93 1433.91 1234.56 1444.48 1238.16 1454.7C1239.23 1457.74 1237.56 1460.96 1234.53 1462.03C1231.49 1463.09 1228.24 1461.61 1227.17 1458.57C1227.14 1458.49 1227.12 1458.43 1227.1 1458.35L1227.08 1458.34Z" fill="url(#paint30_linear_748_474)"/>
<path d="M1354.03 1614.3C1340.52 1611.15 1327.32 1606.73 1314.68 1601.09C1302.05 1595.44 1290 1588.59 1278.73 1580.65C1267.47 1572.72 1257.01 1563.71 1247.51 1553.81C1238.01 1543.9 1229.49 1533.12 1222.09 1521.63C1214.69 1510.15 1208.4 1497.98 1203.33 1485.36C1198.26 1472.73 1194.42 1459.64 1191.88 1446.33C1189.35 1433.02 1188.1 1419.49 1188.17 1406C1188.23 1392.48 1189.61 1379.02 1192.22 1365.84C1190.18 1379.12 1189.4 1392.57 1189.92 1405.95C1190.43 1419.33 1192.24 1432.62 1195.31 1445.59C1198.37 1458.56 1202.69 1471.21 1208.15 1483.29C1213.62 1495.38 1220.24 1506.93 1227.88 1517.7C1235.52 1528.49 1244.19 1538.52 1253.68 1547.6C1263.2 1556.71 1273.55 1564.86 1284.59 1571.93C1295.62 1579 1307.3 1585 1319.43 1589.8C1331.55 1594.61 1344.12 1598.22 1356.9 1600.61C1360.69 1601.32 1363.04 1604.99 1362.33 1608.78C1361.62 1612.58 1358.13 1615.07 1354.32 1614.36C1354.23 1614.34 1354.14 1614.32 1354.05 1614.29L1354.03 1614.3Z" fill="url(#paint31_linear_748_474)"/>
<path d="M1389.13 1691.04C1370.66 1690.04 1352.29 1687.28 1334.4 1682.81C1316.5 1678.31 1299.09 1672.11 1282.47 1664.29C1265.84 1656.48 1250.01 1647.07 1235.25 1636.28C1220.48 1625.47 1206.8 1613.27 1194.42 1599.91C1182.05 1586.54 1170.97 1572.02 1161.39 1556.62C1151.81 1541.21 1143.74 1524.91 1137.33 1508.03C1130.91 1491.14 1126.14 1473.65 1123.1 1455.92C1120.06 1438.16 1118.76 1420.17 1119.13 1402.26C1119.52 1420.17 1121.61 1438.01 1125.4 1455.46C1129.16 1472.91 1134.62 1489.94 1141.65 1506.26C1148.68 1522.58 1157.27 1538.19 1167.24 1552.78C1177.22 1567.4 1188.59 1581.02 1201.12 1593.4C1213.64 1605.8 1227.34 1616.96 1241.92 1626.7C1256.52 1636.44 1272.01 1644.76 1288.13 1651.49C1304.26 1658.22 1320.98 1663.38 1338.02 1666.89C1355.05 1670.39 1372.39 1672.22 1389.73 1672.4C1394.87 1672.46 1398.8 1676.73 1398.75 1681.87C1398.69 1687.02 1394.68 1691.1 1389.52 1691.04C1389.39 1691.04 1389.28 1691.04 1389.15 1691.03L1389.13 1691.04Z" fill="url(#paint32_linear_748_474)"/>
<path d="M1114.49 1625.08C1100.61 1606.58 1088.5 1586.79 1078.4 1566.05C1068.33 1545.31 1060.28 1523.65 1054.4 1501.45C1048.52 1479.25 1044.82 1456.54 1043.29 1433.73C1041.78 1410.9 1042.46 1388 1045.31 1365.41C1048.17 1342.82 1053.18 1320.55 1060.22 1299C1067.28 1277.44 1076.4 1256.62 1087.42 1236.91C1098.44 1217.2 1111.35 1198.58 1125.88 1181.43C1140.45 1164.25 1156.63 1148.54 1174.08 1134.51C1157.24 1149.28 1141.84 1165.61 1128.17 1183.25C1114.49 1200.88 1102.56 1219.8 1092.59 1239.63C1082.6 1259.48 1074.56 1280.25 1068.6 1301.52C1062.62 1322.82 1058.71 1344.65 1056.92 1366.59C1055.12 1388.55 1055.43 1410.64 1057.83 1432.42C1060.22 1454.23 1064.7 1475.74 1071.22 1496.59C1077.73 1517.44 1086.22 1537.6 1096.55 1556.73C1106.89 1575.86 1119.07 1593.93 1132.82 1610.68C1136.9 1615.65 1135.97 1622.84 1131 1626.92C1126.03 1631 1118.9 1630.45 1114.8 1625.46C1114.7 1625.33 1114.61 1625.23 1114.52 1625.09L1114.49 1625.08Z" fill="url(#paint33_linear_748_474)"/>
<path d="M965.566 1387.83C967.076 1360.12 971.215 1332.58 977.925 1305.73C984.664 1278.89 993.975 1252.77 1005.69 1227.83C1017.41 1202.89 1031.53 1179.15 1047.72 1157C1063.94 1134.86 1082.22 1114.33 1102.27 1095.77C1122.32 1077.2 1144.1 1060.59 1167.2 1046.22C1190.32 1031.85 1214.76 1019.74 1240.09 1010.12C1265.43 1000.5 1291.66 993.345 1318.25 988.787C1344.89 984.229 1371.88 982.272 1398.75 982.831C1371.88 983.418 1345.12 986.55 1318.95 992.226C1292.77 997.874 1267.22 1006.07 1242.75 1016.61C1218.26 1027.15 1194.85 1040.04 1172.96 1055C1151.04 1069.96 1130.6 1087.02 1112.03 1105.81C1093.44 1124.6 1076.69 1145.15 1062.09 1167.01C1047.47 1188.91 1035 1212.14 1024.9 1236.33C1014.81 1260.52 1007.06 1285.6 1001.8 1311.16C996.548 1336.71 993.808 1362.72 993.528 1388.72C993.444 1396.44 987.041 1402.34 979.323 1402.26C971.606 1402.17 965.482 1396.16 965.566 1388.42C965.566 1388.22 965.566 1388.05 965.594 1387.86L965.566 1387.83Z" fill="url(#paint34_linear_748_474)"/>
<path d="M1061 1778.58C1037.37 1756.45 1015.86 1732.1 996.9 1705.97C977.964 1679.82 961.606 1651.91 948.101 1622.73C934.596 1593.56 923.969 1563.14 916.318 1532.06C908.688 1500.96 904.059 1469.22 902.501 1437.38C900.942 1405.54 902.433 1373.62 906.909 1342.2C911.405 1310.75 918.911 1279.83 929.313 1249.98C939.714 1220.13 952.986 1191.32 968.854 1164.13C984.764 1136.9 1003.25 1111.32 1023.9 1087.72C1004.27 1112.18 987.006 1138.44 972.452 1166.09C957.873 1193.71 946.029 1222.7 937.103 1252.47C928.155 1282.27 922.124 1312.85 919.075 1343.64C916.005 1374.45 915.92 1405.5 918.79 1436.19C921.639 1466.9 927.446 1497.28 936.042 1526.72C944.643 1556.21 956.057 1584.78 970.103 1611.94C984.15 1639.1 1000.76 1664.83 1019.66 1688.7C1038.55 1712.56 1059.74 1734.51 1082.77 1754.26C1089.61 1760.12 1090.08 1770.27 1084.21 1777.1C1078.35 1783.94 1068.39 1784.9 1061.53 1779.02C1061.35 1778.87 1061.2 1778.75 1061.05 1778.58L1061 1778.58Z" fill="url(#paint35_linear_748_474)"/>
<path d="M1483.66 1999.43C1445.32 2004.06 1406.57 2005.04 1368.16 2002.33C1329.74 1999.58 1291.7 1993.13 1254.68 1983.1C1217.67 1973.07 1181.72 1959.46 1147.46 1942.62C1113.19 1925.74 1080.64 1905.64 1050.35 1882.65C1020.06 1859.66 992.029 1833.82 966.749 1805.64C941.464 1777.42 918.964 1746.85 899.659 1714.46C880.355 1682.06 864.206 1647.85 851.533 1612.5C838.847 1577.09 829.644 1540.58 823.917 1503.61C831.215 1540.3 841.974 1576.22 856.078 1610.72C870.144 1645.22 887.548 1678.27 907.908 1709.25C928.275 1740.27 951.597 1769.23 977.391 1795.63C1003.19 1822.05 1031.51 1845.95 1061.75 1866.85C1091.99 1887.79 1124.21 1905.78 1157.7 1920.5C1191.24 1935.25 1226.1 1946.73 1261.69 1954.72C1297.28 1962.71 1333.52 1967.26 1369.82 1968.29C1406.12 1969.32 1442.42 1966.79 1478.13 1960.89C1488.72 1959.14 1498.36 1966.49 1500.11 1977.09C1501.86 1987.69 1495.1 1997.53 1484.46 1999.29C1484.19 1999.33 1483.96 1999.38 1483.69 1999.38L1483.66 1999.43Z" fill="url(#paint36_linear_748_474)"/>
<path d="M780.759 1604.15C768.671 1564.32 760.375 1523.38 756.062 1482.1C751.789 1440.8 751.516 1399.21 755.234 1358.05C758.952 1316.88 766.676 1276.17 778.135 1236.65C789.633 1197.12 804.88 1158.81 823.614 1122.35C842.348 1085.9 864.53 1051.31 889.712 1019.2C914.933 987.08 943.168 957.477 973.942 930.922C1004.72 904.367 1038.01 880.821 1073.16 860.755C1108.38 840.66 1145.41 824.057 1183.57 811.06C1146 825.673 1109.88 843.816 1075.91 865.244C1041.91 886.632 1010.09 911.292 981.014 938.703C951.897 966.128 925.521 996.304 902.335 1028.62C879.11 1060.96 859.05 1095.48 842.519 1131.49C825.95 1167.52 812.885 1205.08 803.529 1243.39C794.148 1281.75 788.491 1320.9 786.672 1360.17C784.852 1399.44 786.802 1438.77 792.504 1477.49C798.206 1516.21 807.684 1554.27 820.631 1591.07C824.472 1601.99 818.474 1613.59 807.553 1617.43C796.631 1621.27 784.916 1615.94 781.06 1604.98C780.96 1604.71 780.874 1604.47 780.813 1604.18L780.759 1604.15Z" fill="url(#paint37_linear_748_474)"/>
<path d="M763.292 1816.38C737.643 1775.15 715.929 1731.51 698.605 1686.29C681.321 1641.05 668.455 1594.26 660.214 1546.75C651.974 1499.24 648.387 1451.03 649.367 1403.03C650.386 1355.01 656 1307.23 666.103 1260.49C676.207 1213.75 690.76 1168.08 709.443 1124.29C728.166 1080.48 751.046 1038.59 777.706 999.376C804.367 960.159 834.78 923.571 868.325 890.345C901.949 857.064 938.665 827.174 977.747 801.003C939.816 828.817 904.6 860.167 872.779 894.574C840.93 928.941 812.518 966.339 788.026 1006.01C763.494 1045.71 742.883 1087.68 726.513 1131.1C710.103 1174.55 697.923 1219.51 690.168 1265.09C682.374 1310.69 678.993 1356.96 680.017 1402.96C681.03 1449.02 686.476 1494.85 696.284 1539.65C706.091 1584.46 720.164 1628.19 738.282 1670.1C756.399 1712.01 778.573 1752.04 804.274 1789.6C811.9 1800.75 808.643 1815.63 797.496 1823.26C786.349 1830.88 771.536 1828.41 763.882 1817.23C763.685 1816.94 763.517 1816.7 763.361 1816.4L763.292 1816.38Z" fill="url(#paint38_linear_748_474)"/>
<path d="M842.622 2067.19C800.81 2030.7 762.498 1990.26 728.456 1946.63C694.448 1902.96 664.754 1856.13 639.871 1806.95C614.988 1757.77 594.961 1706.29 579.994 1653.5C565.061 1600.68 555.232 1546.58 550.657 1492.13C546.082 1437.67 546.727 1382.89 552.515 1328.79C558.337 1274.65 569.347 1221.22 585.381 1169.45C601.415 1117.69 622.429 1067.54 647.989 1020.01C673.617 972.405 703.757 927.469 737.726 885.808C705.564 928.881 677.55 974.91 654.27 1023.15C630.945 1071.35 612.388 1121.72 598.876 1173.26C585.329 1224.84 576.827 1277.6 573.445 1330.52C570.028 1383.49 571.741 1436.71 578.494 1489.11C585.212 1541.55 596.979 1593.25 613.467 1643.18C629.966 1693.19 651.231 1741.45 676.921 1787.14C702.611 1832.83 732.603 1875.92 766.408 1915.68C800.214 1955.43 837.823 1991.77 878.462 2024.23C890.522 2033.86 891.936 2051.22 882.301 2063.28C872.666 2075.34 855.651 2077.59 843.548 2067.92C843.239 2067.68 842.975 2067.47 842.701 2067.19L842.622 2067.19Z" fill="url(#paint39_linear_748_474)"/>
<path d="M1852.18 2251.73C1797.19 2279.61 1739.6 2302.24 1680.5 2319.15C1621.37 2336 1560.78 2347.1 1499.77 2352.26C1438.77 2357.43 1377.41 2356.63 1316.82 2350.08C1256.19 2343.48 1196.39 2331.09 1138.4 2313.14C1080.4 2295.19 1024.25 2271.73 970.943 2243.26C917.603 2214.73 867.161 2181.16 820.513 2143.11C773.865 2105.05 730.958 2062.54 692.65 2016.44C654.28 1970.23 620.54 1920.49 591.767 1868.17C622.746 1919.22 658.496 1967.22 698.49 2011.27C738.431 2055.35 782.583 2095.43 830.044 2130.79C877.535 2166.21 928.334 2196.92 981.437 2222.42C1034.57 2247.99 1090.09 2268.37 1146.87 2283.22C1203.68 2298.12 1261.83 2307.51 1320.11 2311.31C1378.48 2315.12 1437.04 2313.31 1494.79 2305.86C1552.54 2298.41 1609.4 2285.46 1664.41 2267.18C1719.42 2248.9 1772.5 2225.29 1822.84 2196.94C1837.78 2188.53 1856.25 2194.3 1864.66 2209.24C1873.07 2224.18 1868.31 2242.64 1853.31 2251.08C1852.94 2251.3 1852.61 2251.49 1852.2 2251.65L1852.18 2251.73Z" fill="url(#paint40_linear_748_474)"/>
<path d="M1363.88 2449.11C1296.91 2445.46 1230.35 2435.46 1165.48 2419.25C1100.61 2402.96 1037.5 2380.46 977.222 2352.14C916.946 2323.83 859.576 2289.71 806.057 2250.58C752.538 2211.39 702.939 2167.19 658.07 2118.74C613.201 2070.29 573.062 2017.65 538.328 1961.84C503.595 1905.95 474.336 1846.89 451.09 1785.67C427.845 1724.45 410.546 1661.06 399.531 1596.8C388.517 1532.4 383.787 1467.19 385.138 1402.26C386.557 1467.19 394.125 1531.86 407.843 1595.11C421.493 1658.36 441.292 1720.12 466.768 1779.25C492.243 1838.45 523.395 1895.01 559.547 1947.92C595.699 2000.89 636.919 2050.29 682.329 2095.16C727.739 2140.1 777.405 2180.57 830.248 2215.85C883.159 2251.19 939.313 2281.33 997.764 2305.72C1056.22 2330.12 1116.83 2348.83 1178.59 2361.54C1240.36 2374.24 1303.2 2380.86 1366.04 2381.54C1384.69 2381.74 1398.95 2397.22 1398.75 2415.87C1398.55 2434.52 1384.02 2449.32 1365.3 2449.11C1364.83 2449.11 1364.42 2449.11 1363.95 2449.05L1363.88 2449.11Z" fill="url(#paint41_linear_748_474)"/>
<path d="M639.581 2054.76C597.775 2015.85 559.52 1973.24 525.583 1927.73C491.682 1882.17 462.143 1833.74 437.462 1783.28C412.782 1732.82 393.004 1680.37 378.327 1626.95C363.684 1573.48 354.186 1519.07 349.977 1464.63C345.767 1410.19 346.812 1355.76 353.027 1302.33C359.277 1248.86 370.742 1196.42 387.249 1145.95C403.757 1095.47 425.263 1046.92 451.324 1001.26C477.455 955.528 508.106 912.731 542.586 873.431C509.914 914.248 481.395 958.265 457.621 1004.77C433.804 1051.25 414.768 1100.17 400.8 1150.57C386.796 1201.02 377.86 1252.95 374.074 1305.36C370.253 1357.82 371.592 1410.85 378.007 1463.38C384.387 1515.94 395.852 1568.09 412.081 1618.77C428.32 1669.53 449.367 1718.86 474.884 1765.9C500.402 1812.95 530.267 1857.67 563.994 1899.32C597.72 1940.97 635.298 1979.46 675.953 2014.28C688.018 2024.62 689.315 2041.97 679.533 2053.36C669.752 2064.74 652.616 2065.91 640.507 2055.54C640.199 2055.28 639.934 2055.06 639.66 2054.76L639.581 2054.76Z" fill="url(#paint42_linear_748_474)"/>
<path d="M1444.57 1328.67C1449.21 1331.7 1453.57 1335.17 1457.55 1339.02C1461.52 1342.87 1465.12 1347.1 1468.27 1351.62C1471.41 1356.14 1474.11 1360.96 1476.33 1365.98C1478.54 1371 1480.27 1376.22 1481.48 1381.55C1482.69 1386.88 1483.39 1392.32 1483.57 1397.75C1483.75 1403.2 1483.4 1408.64 1482.53 1413.99C1481.67 1419.34 1480.28 1424.6 1478.41 1429.66C1476.54 1434.73 1474.18 1439.6 1471.39 1444.2C1473.98 1439.49 1476.11 1434.54 1477.75 1429.44C1479.39 1424.34 1480.52 1419.09 1481.14 1413.8C1481.77 1408.5 1481.88 1403.16 1481.47 1397.87C1481.07 1392.58 1480.16 1387.33 1478.77 1382.24C1477.37 1377.14 1475.49 1372.18 1473.16 1367.47C1470.83 1362.75 1468.05 1358.26 1464.87 1354.1C1461.69 1349.93 1458.12 1346.08 1454.22 1342.61C1450.32 1339.15 1446.09 1336.07 1441.61 1333.42C1440.29 1332.64 1439.9 1330.94 1440.69 1329.61C1441.48 1328.28 1443.13 1327.82 1444.46 1328.61C1444.5 1328.63 1444.53 1328.65 1444.56 1328.67L1444.57 1328.67Z" fill="url(#paint43_linear_748_474)"/>
<path d="M1353.88 1264.93C1362.73 1262.24 1371.83 1260.4 1381.01 1259.44C1390.18 1258.49 1399.42 1258.43 1408.57 1259.25C1417.72 1260.08 1426.77 1261.8 1435.55 1264.34C1444.33 1266.9 1452.85 1270.29 1460.95 1274.45C1469.05 1278.61 1476.74 1283.54 1483.87 1289.14C1491.01 1294.74 1497.59 1301.02 1503.49 1307.85C1509.39 1314.69 1514.62 1322.09 1519.08 1329.9C1523.55 1337.73 1527.24 1345.96 1530.13 1354.44C1526.88 1346.09 1522.85 1338.06 1518.08 1330.51C1513.33 1322.96 1507.85 1315.89 1501.76 1309.43C1495.67 1302.96 1488.96 1297.09 1481.78 1291.94C1474.59 1286.78 1466.92 1282.32 1458.92 1278.65C1450.91 1274.97 1442.57 1272.06 1434.05 1269.99C1425.53 1267.9 1416.83 1266.64 1408.1 1266.24C1399.37 1265.83 1390.63 1266.27 1382.03 1267.54C1373.42 1268.8 1364.97 1270.91 1356.79 1273.79C1354.36 1274.64 1351.78 1273.31 1350.93 1270.88C1350.08 1268.45 1351.26 1265.85 1353.7 1264.99C1353.76 1264.97 1353.81 1264.95 1353.88 1264.94L1353.88 1264.93Z" fill="url(#paint44_linear_748_474)"/>
<path d="M1436.01 1225.55C1447.27 1228.17 1458.27 1231.87 1468.8 1236.56C1479.33 1241.27 1489.37 1246.98 1498.76 1253.59C1508.15 1260.2 1516.87 1267.71 1524.78 1275.96C1532.7 1284.22 1539.79 1293.21 1545.96 1302.78C1552.13 1312.35 1557.37 1322.49 1561.6 1333C1565.82 1343.53 1569.02 1354.44 1571.13 1365.53C1573.25 1376.62 1574.29 1387.9 1574.23 1399.14C1574.18 1410.4 1573.03 1421.62 1570.85 1432.6C1572.56 1421.53 1573.21 1410.33 1572.77 1399.18C1572.35 1388.03 1570.84 1376.95 1568.28 1366.15C1565.73 1355.33 1562.13 1344.8 1557.58 1334.73C1553.02 1324.65 1547.5 1315.03 1541.14 1306.05C1534.77 1297.06 1527.55 1288.7 1519.64 1281.13C1511.71 1273.55 1503.08 1266.75 1493.88 1260.86C1484.69 1254.97 1474.96 1249.97 1464.85 1245.97C1454.74 1241.96 1444.27 1238.96 1433.62 1236.96C1430.46 1236.37 1428.5 1233.31 1429.1 1230.15C1429.69 1226.99 1432.6 1224.91 1435.77 1225.51C1435.85 1225.52 1435.92 1225.53 1436 1225.56L1436.01 1225.55Z" fill="url(#paint45_linear_748_474)"/>
<path d="M1237.47 1257.51C1246.95 1247.38 1257.39 1238.16 1268.59 1230.04C1279.79 1221.92 1291.75 1214.91 1304.26 1209.12C1316.76 1203.33 1329.8 1198.78 1343.12 1195.5C1356.45 1192.23 1370.05 1190.25 1383.69 1189.58C1397.34 1188.91 1411.02 1189.55 1424.49 1191.47C1437.96 1193.39 1451.22 1196.61 1464.01 1201.07C1476.8 1205.53 1489.15 1211.21 1500.8 1218.02C1512.47 1224.83 1523.44 1232.76 1533.55 1241.61C1523.07 1233.2 1511.81 1225.79 1499.96 1219.56C1488.12 1213.31 1475.7 1208.23 1462.94 1204.41C1450.17 1200.57 1437.07 1197.99 1423.87 1196.68C1410.67 1195.37 1397.36 1195.33 1384.21 1196.56C1371.04 1197.78 1358.02 1200.27 1345.41 1203.95C1332.77 1207.64 1320.52 1212.53 1308.88 1218.55C1297.24 1224.57 1286.22 1231.69 1275.99 1239.79C1265.76 1247.89 1256.35 1256.97 1247.89 1266.84C1245.38 1269.77 1241.03 1269.97 1238.1 1267.46C1235.17 1264.94 1234.76 1260.67 1237.28 1257.73C1237.34 1257.66 1237.4 1257.59 1237.47 1257.53L1237.47 1257.51Z" fill="url(#paint46_linear_748_474)"/>
<path d="M1153.46 1249.53C1163.57 1234.04 1175.14 1219.51 1187.96 1206.25C1200.8 1193 1214.88 1181.03 1229.96 1170.53C1245.04 1160.04 1261.1 1151.04 1277.83 1143.65C1294.58 1136.27 1311.98 1130.52 1329.74 1126.48C1347.5 1122.44 1365.62 1120.11 1383.74 1119.52C1401.88 1118.93 1420.03 1120.08 1437.86 1122.97C1455.69 1125.86 1473.22 1130.47 1490.09 1136.71C1507 1142.96 1523.23 1150.82 1538.56 1160.1C1522.85 1151.48 1506.35 1144.37 1489.35 1138.92C1472.36 1133.46 1454.87 1129.67 1437.23 1127.6C1419.58 1125.52 1401.77 1125.17 1384.14 1126.5C1366.5 1127.83 1349.01 1130.87 1332.03 1135.53C1315.03 1140.18 1298.51 1146.46 1282.79 1154.22C1267.05 1161.99 1252.11 1171.24 1238.22 1181.84C1224.33 1192.44 1211.49 1204.34 1199.94 1217.35C1188.39 1230.35 1178.13 1244.45 1169.31 1259.37C1166.68 1263.8 1161.02 1265.07 1156.59 1262.45C1152.17 1259.83 1150.63 1254.31 1153.26 1249.87C1153.33 1249.76 1153.39 1249.66 1153.47 1249.56L1153.46 1249.53Z" fill="url(#paint47_linear_748_474)"/>
<path d="M1347.9 1044.67C1370.86 1041.9 1394.07 1041.31 1417.07 1042.93C1440.07 1044.58 1462.85 1048.44 1485.02 1054.44C1507.18 1060.45 1528.71 1068.6 1549.22 1078.69C1569.74 1088.79 1589.23 1100.83 1607.37 1114.59C1625.51 1128.36 1642.29 1143.83 1657.43 1160.71C1672.57 1177.61 1686.04 1195.91 1697.6 1215.31C1709.16 1234.71 1718.83 1255.2 1726.42 1276.36C1734.02 1297.57 1739.53 1319.43 1742.96 1341.56C1738.59 1319.6 1732.15 1298.09 1723.7 1277.43C1715.28 1256.77 1704.86 1236.98 1692.66 1218.43C1680.47 1199.85 1666.5 1182.51 1651.06 1166.71C1635.61 1150.88 1618.65 1136.57 1600.55 1124.06C1582.43 1111.51 1563.14 1100.74 1543.09 1091.93C1523 1083.1 1502.13 1076.22 1480.82 1071.44C1459.51 1066.66 1437.81 1063.93 1416.07 1063.31C1394.34 1062.7 1372.6 1064.21 1351.22 1067.74C1344.87 1068.79 1339.1 1064.39 1338.05 1058.05C1337.01 1051.7 1341.05 1045.8 1347.42 1044.75C1347.58 1044.72 1347.72 1044.7 1347.89 1044.69L1347.9 1044.67Z" fill="url(#paint48_linear_748_474)"/>
<path d="M1627.83 1034.32C1651.08 1049.49 1672.86 1066.84 1692.75 1086.07C1712.63 1105.33 1730.59 1126.45 1746.33 1149.07C1762.08 1171.69 1775.57 1195.79 1786.66 1220.88C1797.73 1246 1806.36 1272.1 1812.41 1298.74C1818.47 1325.39 1821.96 1352.56 1822.86 1379.75C1823.74 1406.96 1822.01 1434.18 1817.67 1460.92C1813.34 1487.67 1806.42 1513.97 1797.07 1539.27C1787.7 1564.63 1775.9 1588.98 1761.98 1611.97C1774.91 1588.4 1785.58 1563.66 1793.75 1538.16C1801.94 1512.67 1807.62 1486.44 1810.73 1459.98C1813.85 1433.5 1814.38 1406.78 1812.38 1380.34C1810.38 1353.88 1805.83 1327.65 1798.84 1302.18C1791.87 1276.68 1782.44 1251.9 1770.8 1228.32C1759.15 1204.71 1745.27 1182.29 1729.37 1161.46C1713.47 1140.62 1695.62 1121.37 1676.11 1104.04C1656.61 1086.71 1635.46 1071.34 1613.08 1058.09C1606.44 1054.16 1604.53 1045.67 1608.46 1039.02C1612.39 1032.38 1620.66 1030.08 1627.33 1034.03C1627.5 1034.13 1627.64 1034.21 1627.8 1034.33L1627.83 1034.32Z" fill="url(#paint49_linear_748_474)"/>
<path d="M1241.72 921.598C1272.7 912.196 1304.54 905.743 1336.65 902.389C1368.77 899.066 1401.11 898.853 1433.13 901.745C1465.15 904.636 1496.81 910.644 1527.55 919.557C1558.3 928.5 1588.1 940.358 1616.45 954.929C1644.81 969.5 1671.71 986.753 1696.68 1006.34C1721.66 1025.95 1744.69 1047.92 1765.34 1071.85C1786 1095.79 1804.31 1121.68 1819.92 1149.02C1835.55 1176.41 1848.46 1205.21 1858.57 1234.9C1847.2 1205.67 1833.09 1177.58 1816.42 1151.16C1799.79 1124.72 1780.61 1099.97 1759.29 1077.35C1737.96 1054.7 1714.49 1034.19 1689.35 1016.16C1664.2 998.093 1637.35 982.49 1609.34 969.633C1581.32 956.746 1552.11 946.584 1522.31 939.308C1492.47 932.011 1462.02 927.611 1431.48 926.196C1400.93 924.781 1370.35 926.298 1340.23 930.732C1310.11 935.167 1280.51 942.539 1251.89 952.609C1243.4 955.597 1234.38 950.931 1231.39 942.437C1228.4 933.943 1232.55 924.831 1241.07 921.832C1241.29 921.754 1241.47 921.687 1241.7 921.639L1241.72 921.598Z" fill="url(#paint50_linear_748_474)"/>
<path d="M839.127 1177.2C854.291 1141.68 872.812 1107.64 894.365 1075.73C915.954 1043.83 940.562 1014.11 967.755 987.067C994.948 960.026 1024.71 935.703 1056.43 914.448C1088.18 893.206 1121.86 875.071 1156.91 860.333C1191.97 845.596 1228.36 834.243 1265.41 826.441C1302.49 818.652 1340.21 814.451 1377.92 813.931C1415.62 813.41 1453.33 816.533 1490.28 823.229C1527.29 829.953 1563.51 840.236 1598.39 853.758C1562.97 841.735 1526.48 833.094 1489.55 828.06C1452.64 822.989 1415.32 821.538 1378.3 823.678C1341.25 825.805 1304.51 831.523 1268.76 840.665C1232.97 849.793 1198.12 862.37 1164.9 878.105C1131.64 893.828 1099.95 912.732 1070.46 934.38C1040.91 956.051 1013.54 980.501 988.83 1007.33C964.117 1034.15 942.05 1063.27 923.011 1094.19C903.972 1125.11 888.011 1157.81 875.267 1191.68C871.484 1201.73 860.302 1206.4 850.25 1202.62C840.198 1198.84 835.051 1188.06 838.847 1177.97C838.94 1177.71 839.02 1177.5 839.15 1177.25L839.127 1177.2Z" fill="url(#paint51_linear_748_474)"/>
<path d="M1532.89 766.112C1573.43 775.561 1613.04 788.848 1650.95 805.753C1688.84 822.699 1725 843.257 1758.79 867.06C1792.58 890.864 1823.97 917.906 1852.47 947.591C1880.96 977.316 1906.52 1009.68 1928.72 1044.13C1950.92 1078.58 1969.79 1115.08 1985 1152.94C2000.21 1190.85 2011.73 1230.1 2019.34 1270.03C2026.95 1309.96 2030.69 1350.57 2030.5 1391.04C2030.29 1431.59 2026.15 1471.96 2018.33 1511.5C2024.46 1471.66 2026.8 1431.31 2025.24 1391.17C2023.71 1351.04 2018.26 1311.15 2009.06 1272.26C1999.87 1233.33 1986.93 1195.4 1970.53 1159.17C1954.14 1122.89 1934.27 1088.25 1911.35 1055.93C1888.44 1023.57 1862.44 993.471 1833.94 966.214C1805.41 938.909 1774.33 914.434 1741.23 893.223C1708.13 872.012 1673.1 854.037 1636.71 839.615C1600.33 825.192 1562.63 814.371 1524.29 807.185C1512.91 805.051 1505.86 794.055 1508 782.676C1510.13 771.298 1520.61 763.818 1532.03 765.959C1532.32 766.01 1532.56 766.054 1532.85 766.146L1532.89 766.112Z" fill="url(#paint52_linear_748_474)"/>
<path d="M1357.83 644.871C1406.37 643.277 1455.02 646.291 1502.84 653.896C1550.66 661.55 1597.61 673.799 1642.88 690.42C1688.15 707.04 1731.69 728.037 1772.77 752.883C1813.85 777.779 1852.42 806.529 1887.84 838.648C1923.27 870.768 1955.55 906.208 1984.12 944.281C2012.71 982.402 2037.54 1023.16 2058.17 1065.86C2078.81 1108.56 2095.29 1153.19 2107.29 1198.85C2119.3 1244.61 2126.83 1291.35 2129.95 1338.28C2124.83 1291.53 2115.29 1245.36 2101.4 1200.59C2087.56 1155.83 2069.38 1112.52 2047.27 1071.48C2025.16 1030.38 1999.11 991.549 1969.7 955.662C1940.27 919.726 1907.42 886.694 1871.83 857.192C1836.24 827.641 1797.85 801.577 1757.51 779.466C1717.11 757.311 1674.7 739.114 1630.99 725.205C1587.29 711.297 1542.38 701.619 1497.02 696.353C1451.67 691.087 1405.91 690.276 1360.54 693.755C1347.07 694.785 1335.81 684.522 1334.78 671.055C1333.75 657.588 1343.29 645.996 1356.81 644.961C1357.15 644.931 1357.44 644.905 1357.79 644.924L1357.83 644.871Z" fill="url(#paint53_linear_748_474)"/>
<path d="M1100.96 588.167C1153.47 570.206 1207.65 557.245 1262.45 549.578C1317.28 541.963 1372.68 539.663 1427.71 542.702C1482.74 545.741 1537.34 554.14 1590.54 567.57C1643.76 581.052 1695.51 599.586 1744.96 622.853C1794.41 646.12 1841.53 674.068 1885.49 706.129C1929.47 738.242 1970.23 774.489 2007.04 814.26C2043.86 854.031 2076.78 897.304 2105.16 943.2C2133.58 989.199 2157.42 1037.77 2176.52 1088.02C2155.3 1038.63 2129.44 991.353 2099.31 947.073C2069.22 902.772 2034.88 861.518 1997 824.046C1959.1 786.522 1917.67 752.78 1873.52 723.389C1829.36 693.945 1782.42 668.821 1733.66 648.47C1684.89 628.067 1634.23 612.405 1582.74 601.721C1531.19 591.006 1478.76 585.29 1426.34 584.692C1373.93 584.095 1321.61 588.524 1270.28 597.924C1218.95 607.323 1168.68 621.725 1120.25 640.689C1105.87 646.315 1090.14 638.862 1084.51 624.488C1078.88 610.114 1085.44 594.255 1099.87 588.607C1100.23 588.461 1100.54 588.335 1100.93 588.24L1100.96 588.167Z" fill="url(#paint54_linear_748_474)"/>
<path d="M436.362 1370.2C439.716 1308.64 448.91 1247.45 463.819 1187.81C478.791 1128.18 499.477 1070.15 525.506 1014.74C551.535 959.33 582.906 906.589 618.875 857.388C654.905 808.188 695.532 762.591 740.074 721.342C784.615 680.093 833.007 643.193 884.32 611.263C935.694 579.332 989.988 552.434 1046.27 531.064C1102.55 509.694 1160.82 493.791 1219.9 483.665C1279.1 473.539 1339.05 469.191 1398.75 470.433C1339.05 471.738 1279.6 478.695 1221.45 491.306C1163.31 503.855 1106.53 522.056 1052.17 545.476C997.754 568.896 945.758 597.534 897.117 630.769C848.414 664.004 803.003 701.898 761.754 743.644C720.443 785.389 683.232 831.049 650.805 879.628C618.315 928.269 590.609 979.892 568.183 1033.63C545.758 1087.36 528.55 1143.09 516.871 1199.86C505.192 1256.64 499.104 1314.42 498.483 1372.19C498.297 1389.33 484.071 1402.44 466.925 1402.26C449.78 1402.07 436.175 1388.71 436.362 1371.51C436.362 1371.07 436.362 1370.7 436.424 1370.26L436.362 1370.2Z" fill="url(#paint55_linear_748_474)"/>
<path d="M509.578 848.631C546.221 792.461 588.162 739.819 634.642 691.748C681.182 643.71 732.226 600.303 786.884 562.259C841.543 524.215 899.781 491.594 960.424 464.808C1021.12 438.056 1084.2 417.198 1148.59 402.566C1212.99 387.933 1278.64 379.492 1344.35 377.32C1410.11 375.182 1475.89 379.373 1540.53 389.852C1605.17 400.332 1668.71 417.043 1729.88 439.636C1791.15 462.296 1849.99 490.804 1905.55 524.444C1848.61 493.203 1788.82 467.423 1727.18 447.678C1665.58 427.875 1602.19 414.14 1538.25 406.639C1474.25 399.104 1409.69 397.802 1345.79 402.656C1281.84 407.475 1218.45 418.475 1156.89 435.366C1095.26 452.224 1035.38 474.998 978.408 503.125C921.346 531.276 867.169 564.838 816.817 603.261C766.465 641.685 719.948 684.819 678.065 731.955C636.181 779.091 599.024 830.204 567.017 884.291C557.516 900.341 536.986 904.952 520.936 895.451C504.885 885.95 499.333 865.969 508.868 849.86C509.105 849.45 509.307 849.099 509.602 848.723L509.578 848.631Z" fill="url(#paint56_linear_748_474)"/>
<path d="M1056.35 359.441C1123.56 339.065 1192.65 325.114 1262.32 317.915C1332.02 310.782 1402.22 310.425 1471.72 316.83C1541.22 323.235 1609.95 336.426 1676.69 355.941C1743.46 375.522 1808.16 401.45 1869.75 433.282C1931.34 465.113 1989.78 502.781 2044.04 545.525C2098.32 588.336 2148.37 636.246 2193.27 688.449C2238.18 740.652 2278.01 797.122 2311.97 856.712C2345.98 916.435 2374.1 979.21 2396.14 1043.9C2371.37 980.202 2340.66 918.978 2304.4 861.359C2268.21 803.715 2226.5 749.744 2180.16 700.411C2133.79 651.011 2082.78 606.249 2028.17 566.887C1973.53 527.457 1915.19 493.383 1854.37 465.286C1793.51 437.122 1730.08 414.892 1665.39 398.944C1600.6 382.953 1534.5 373.268 1468.21 370.085C1401.92 366.901 1335.54 370.104 1270.19 379.664C1204.84 389.224 1140.62 405.184 1078.54 427.023C1060.12 433.503 1040.52 423.31 1034.01 404.798C1027.5 386.287 1036.47 366.453 1054.96 359.949C1055.42 359.78 1055.82 359.635 1056.31 359.532L1056.35 359.441Z" fill="url(#paint57_linear_748_474)"/>
<path d="M1398.75 2805C2170.89 2805 2796.83 2179.06 2796.83 1406.92C2796.83 634.776 2170.89 8.83252 1398.75 8.83252C626.608 8.83252 0.664551 634.776 0.664551 1406.92C0.664551 2179.06 626.608 2805 1398.75 2805Z" fill="url(#paint58_radial_748_474)" fill-opacity="0.58"/>
<defs>
<radialGradient id="paint0_radial_748_474" cx="0" cy="0" r="1" gradientUnits="userSpaceOnUse" gradientTransform="translate(1398.75 1402.26) scale(1398.08)">
<stop stop-color="#0DB3FA"/>
<stop offset="1" stop-color="#3B2EE9"/>
</radialGradient>
<radialGradient id="paint1_radial_748_474" cx="0" cy="0" r="1" gradientUnits="userSpaceOnUse" gradientTransform="translate(1398.75 1402.26) scale(932.056)">
<stop stop-color="#0DB3FA"/>
<stop offset="1" stop-color="#3B2EE9"/>
</radialGradient>
<radialGradient id="paint2_radial_748_474" cx="0" cy="0" r="1" gradientUnits="userSpaceOnUse" gradientTransform="translate(1398.75 1402.26) scale(838.85)">
<stop stop-color="#0DB3FA"/>
<stop offset="1" stop-color="#3B2EE9"/>
</radialGradient>
<radialGradient id="paint3_radial_748_474" cx="0" cy="0" r="1" gradientUnits="userSpaceOnUse" gradientTransform="translate(1398.75 1402.26) scale(792.247)">
<stop stop-color="#0DB3FA"/>
<stop offset="1" stop-color="#3B2EE9"/>
</radialGradient>
<radialGradient id="paint4_radial_748_474" cx="0" cy="0" r="1" gradientUnits="userSpaceOnUse" gradientTransform="translate(1398.75 1402.26) scale(769.412)">
<stop stop-color="#0DB3FA"/>
<stop offset="1" stop-color="#3B2EE9"/>
</radialGradient>
<radialGradient id="paint5_radial_748_474" cx="0" cy="0" r="1" gradientUnits="userSpaceOnUse" gradientTransform="translate(1398.75 1402.26) scale(675.74)">
<stop stop-color="#0DB3FA"/>
<stop offset="1" stop-color="#3B2EE9"/>
</radialGradient>
<radialGradient id="paint6_radial_748_474" cx="0" cy="0" r="1" gradientUnits="userSpaceOnUse" gradientTransform="translate(1398.75 1402.26) scale(582.535)">
<stop stop-color="#0DB3FA"/>
<stop offset="1" stop-color="#3B2EE9"/>
</radialGradient>
<radialGradient id="paint7_radial_748_474" cx="0" cy="0" r="1" gradientUnits="userSpaceOnUse" gradientTransform="translate(1398.75 1402.26) scale(547.583)">
<stop stop-color="#0DB3FA"/>
<stop offset="1" stop-color="#3B2EE9"/>
</radialGradient>
<radialGradient id="paint8_radial_748_474" cx="0" cy="0" r="1" gradientUnits="userSpaceOnUse" gradientTransform="translate(1398.75 1402.26) scale(419.425)">
<stop stop-color="#0DB3FA"/>
<stop offset="1" stop-color="#3B2EE9"/>
</radialGradient>
<radialGradient id="paint9_radial_748_474" cx="0" cy="0" r="1" gradientUnits="userSpaceOnUse" gradientTransform="translate(1398.75 1402.26) scale(349.521)">
<stop stop-color="#0DB3FA"/>
<stop offset="1" stop-color="#3B2EE9"/>
</radialGradient>
<radialGradient id="paint10_radial_748_474" cx="0" cy="0" r="1" gradientUnits="userSpaceOnUse" gradientTransform="translate(1398.75 1402.26) scale(233.014)">
<stop stop-color="#0DB3FA"/>
<stop offset="1" stop-color="#3B2EE9"/>
</radialGradient>
<radialGradient id="paint11_radial_748_474" cx="0" cy="0" r="1" gradientUnits="userSpaceOnUse" gradientTransform="translate(1398.75 1403.19) scale(177.091)">
<stop stop-color="#0DB3FA"/>
<stop offset="1" stop-color="#3B2EE9"/>
</radialGradient>
<radialGradient id="paint12_radial_748_474" cx="0" cy="0" r="1" gradientUnits="userSpaceOnUse" gradientTransform="translate(1398.75 1402.26) scale(116.507)">
<stop stop-color="#0DB3FA"/>
<stop offset="1" stop-color="#3B2EE9"/>
</radialGradient>
<linearGradient id="paint13_linear_748_474" x1="1359.34" y1="1416.6" x2="1388.98" y2="1498.06" gradientUnits="userSpaceOnUse">
<stop stop-color="#2471F2"/>
<stop offset="1" stop-color="#3B2EE9"/>
</linearGradient>
<linearGradient id="paint14_linear_748_474" x1="1374.84" y1="1467.94" x2="1510.6" y2="1517.36" gradientUnits="userSpaceOnUse">
<stop stop-color="#2471F2"/>
<stop offset="1" stop-color="#3B2EE9"/>
</linearGradient>
<linearGradient id="paint15_linear_748_474" x1="1331.81" y1="1458.42" x2="1447.89" y2="1596.76" gradientUnits="userSpaceOnUse">
<stop stop-color="#2471F2"/>
<stop offset="1" stop-color="#3B2EE9"/>
</linearGradient>
<linearGradient id="paint16_linear_748_474" x1="1416.96" y1="1505.52" x2="1630.37" y2="1467.89" gradientUnits="userSpaceOnUse">
<stop stop-color="#2471F2"/>
<stop offset="1" stop-color="#3B2EE9"/>
</linearGradient>
<linearGradient id="paint17_linear_748_474" x1="1446.57" y1="1533.63" x2="1718.08" y2="1434.81" gradientUnits="userSpaceOnUse">
<stop stop-color="#2471F2"/>
<stop offset="1" stop-color="#3B2EE9"/>
</linearGradient>
<linearGradient id="paint18_linear_748_474" x1="1311.37" y1="1553.6" x2="1624.15" y2="1734.19" gradientUnits="userSpaceOnUse">
<stop stop-color="#2471F2"/>
<stop offset="1" stop-color="#3B2EE9"/>
</linearGradient>
<linearGradient id="paint19_linear_748_474" x1="1201.68" y1="1473.98" x2="1349.92" y2="1881.25" gradientUnits="userSpaceOnUse">
<stop stop-color="#2471F2"/>
<stop offset="1" stop-color="#3B2EE9"/>
</linearGradient>
<linearGradient id="paint20_linear_748_474" x1="1315.07" y1="1632.17" x2="1790.21" y2="1805.1" gradientUnits="userSpaceOnUse">
<stop stop-color="#2471F2"/>
<stop offset="1" stop-color="#3B2EE9"/>
</linearGradient>
<linearGradient id="paint21_linear_748_474" x1="1544.67" y1="1655.01" x2="2067.02" y2="1353.43" gradientUnits="userSpaceOnUse">
<stop stop-color="#2471F2"/>
<stop offset="1" stop-color="#3B2EE9"/>
</linearGradient>
<linearGradient id="paint22_linear_748_474" x1="1157.77" y1="1604.46" x2="1575.66" y2="2102.47" gradientUnits="userSpaceOnUse">
<stop stop-color="#2471F2"/>
<stop offset="1" stop-color="#3B2EE9"/>
</linearGradient>
<linearGradient id="paint23_linear_748_474" x1="1188.25" y1="1702.88" x2="1809.54" y2="2137.92" gradientUnits="userSpaceOnUse">
<stop stop-color="#2471F2"/>
<stop offset="1" stop-color="#3B2EE9"/>
</linearGradient>
<linearGradient id="paint24_linear_748_474" x1="1269.14" y1="1801.15" x2="2093.53" y2="2069.01" gradientUnits="userSpaceOnUse">
<stop stop-color="#2471F2"/>
<stop offset="1" stop-color="#3B2EE9"/>
</linearGradient>
<linearGradient id="paint25_linear_748_474" x1="1755.66" y1="1701.74" x2="2374.59" y2="964.127" gradientUnits="userSpaceOnUse">
<stop stop-color="#2471F2"/>
<stop offset="1" stop-color="#3B2EE9"/>
</linearGradient>
<linearGradient id="paint26_linear_748_474" x1="1572.09" y1="1878.5" x2="2556.32" y2="1520.27" gradientUnits="userSpaceOnUse">
<stop stop-color="#2471F2"/>
<stop offset="1" stop-color="#3B2EE9"/>
</linearGradient>
<linearGradient id="paint27_linear_748_474" x1="1212.28" y1="1914.57" x2="2251.01" y2="2292.64" gradientUnits="userSpaceOnUse">
<stop stop-color="#2471F2"/>
<stop offset="1" stop-color="#3B2EE9"/>
</linearGradient>
<linearGradient id="paint28_linear_748_474" x1="1398.75" y1="1360.31" x2="1312.07" y2="1360.31" gradientUnits="userSpaceOnUse">
<stop stop-color="#2471F2"/>
<stop offset="1" stop-color="#3B2EE9"/>
</linearGradient>
<linearGradient id="paint29_linear_748_474" x1="1345.2" y1="1357.32" x2="1252.34" y2="1467.99" gradientUnits="userSpaceOnUse">
<stop stop-color="#2471F2"/>
<stop offset="1" stop-color="#3B2EE9"/>
</linearGradient>
<linearGradient id="paint30_linear_748_474" x1="1368.86" y1="1320.15" x2="1199.17" y2="1381.91" gradientUnits="userSpaceOnUse">
<stop stop-color="#2471F2"/>
<stop offset="1" stop-color="#3B2EE9"/>
</linearGradient>
<linearGradient id="paint31_linear_748_474" x1="1295.49" y1="1384.05" x2="1257.86" y2="1597.46" gradientUnits="userSpaceOnUse">
<stop stop-color="#2471F2"/>
<stop offset="1" stop-color="#3B2EE9"/>
</linearGradient>
<linearGradient id="paint32_linear_748_474" x1="1258.94" y1="1402.26" x2="1258.94" y2="1691.19" gradientUnits="userSpaceOnUse">
<stop stop-color="#2471F2"/>
<stop offset="1" stop-color="#3B2EE9"/>
</linearGradient>
<linearGradient id="paint33_linear_748_474" x1="1286.41" y1="1268.38" x2="1009.74" y2="1500.54" gradientUnits="userSpaceOnUse">
<stop stop-color="#2471F2"/>
<stop offset="1" stop-color="#3B2EE9"/>
</linearGradient>
<linearGradient id="paint34_linear_748_474" x1="1398.75" y1="1192.54" x2="965.343" y2="1192.54" gradientUnits="userSpaceOnUse">
<stop stop-color="#2471F2"/>
<stop offset="1" stop-color="#3B2EE9"/>
</linearGradient>
<linearGradient id="paint35_linear_748_474" x1="1211.32" y1="1244.99" x2="886.305" y2="1632.33" gradientUnits="userSpaceOnUse">
<stop stop-color="#2471F2"/>
<stop offset="1" stop-color="#3B2EE9"/>
</linearGradient>
<linearGradient id="paint36_linear_748_474" x1="1111.33" y1="1452.94" x2="1216.07" y2="2046.93" gradientUnits="userSpaceOnUse">
<stop stop-color="#2471F2"/>
<stop offset="1" stop-color="#3B2EE9"/>
</linearGradient>
<linearGradient id="paint37_linear_748_474" x1="1291.16" y1="1106.66" x2="680.257" y2="1329.01" gradientUnits="userSpaceOnUse">
<stop stop-color="#2471F2"/>
<stop offset="1" stop-color="#3B2EE9"/>
</linearGradient>
<linearGradient id="paint38_linear_748_474" x1="1188.25" y1="1101.63" x2="566.953" y2="1536.66" gradientUnits="userSpaceOnUse">
<stop stop-color="#2471F2"/>
<stop offset="1" stop-color="#3B2EE9"/>
</linearGradient>
<linearGradient id="paint39_linear_748_474" x1="1068.24" y1="1144.03" x2="534.574" y2="1827.09" gradientUnits="userSpaceOnUse">
<stop stop-color="#2471F2"/>
<stop offset="1" stop-color="#3B2EE9"/>
</linearGradient>
<linearGradient id="paint40_linear_748_474" x1="995.258" y1="1635.21" x2="1476.7" y2="2469.09" gradientUnits="userSpaceOnUse">
<stop stop-color="#2471F2"/>
<stop offset="1" stop-color="#3B2EE9"/>
</linearGradient>
<linearGradient id="paint41_linear_748_474" x1="891.943" y1="1402.26" x2="891.943" y2="2449.65" gradientUnits="userSpaceOnUse">
<stop stop-color="#2471F2"/>
<stop offset="1" stop-color="#3B2EE9"/>
</linearGradient>
<linearGradient id="paint42_linear_748_474" x1="873.268" y1="1150.91" x2="331.371" y2="1796.71" gradientUnits="userSpaceOnUse">
<stop stop-color="#2471F2"/>
<stop offset="1" stop-color="#3B2EE9"/>
</linearGradient>
<linearGradient id="paint43_linear_748_474" x1="1435.07" y1="1423.23" x2="1478.41" y2="1348.16" gradientUnits="userSpaceOnUse">
<stop stop-color="#2471F2"/>
<stop offset="1" stop-color="#3B2EE9"/>
</linearGradient>
<linearGradient id="paint44_linear_748_474" x1="1464.44" y1="1378.35" x2="1415.03" y2="1242.59" gradientUnits="userSpaceOnUse">
<stop stop-color="#2471F2"/>
<stop offset="1" stop-color="#3B2EE9"/>
</linearGradient>
<linearGradient id="paint45_linear_748_474" x1="1484.8" y1="1417.43" x2="1516.16" y2="1239.59" gradientUnits="userSpaceOnUse">
<stop stop-color="#2471F2"/>
<stop offset="1" stop-color="#3B2EE9"/>
</linearGradient>
<linearGradient id="paint46_linear_748_474" x1="1466.15" y1="1321.93" x2="1300.14" y2="1182.64" gradientUnits="userSpaceOnUse">
<stop stop-color="#2471F2"/>
<stop offset="1" stop-color="#3B2EE9"/>
</linearGradient>
<linearGradient id="paint47_linear_748_474" x1="1468.65" y1="1281.18" x2="1218.43" y2="1136.71" gradientUnits="userSpaceOnUse">
<stop stop-color="#2471F2"/>
<stop offset="1" stop-color="#3B2EE9"/>
</linearGradient>
<linearGradient id="paint48_linear_748_474" x1="1570.85" y1="1371.91" x2="1508.14" y2="1016.22" gradientUnits="userSpaceOnUse">
<stop stop-color="#2471F2"/>
<stop offset="1" stop-color="#3B2EE9"/>
</linearGradient>
<linearGradient id="paint49_linear_748_474" x1="1580.36" y1="1507.11" x2="1797.07" y2="1131.77" gradientUnits="userSpaceOnUse">
<stop stop-color="#2471F2"/>
<stop offset="1" stop-color="#3B2EE9"/>
</linearGradient>
<linearGradient id="paint50_linear_748_474" x1="1628.66" y1="1318.58" x2="1455.72" y2="843.429" gradientUnits="userSpaceOnUse">
<stop stop-color="#2471F2"/>
<stop offset="1" stop-color="#3B2EE9"/>
</linearGradient>
<linearGradient id="paint51_linear_748_474" x1="1498.57" y1="1128.01" x2="931.785" y2="921.715" gradientUnits="userSpaceOnUse">
<stop stop-color="#2471F2"/>
<stop offset="1" stop-color="#3B2EE9"/>
</linearGradient>
<linearGradient id="paint52_linear_748_474" x1="1708.54" y1="1456.88" x2="1821.43" y2="816.648" gradientUnits="userSpaceOnUse">
<stop stop-color="#2471F2"/>
<stop offset="1" stop-color="#3B2EE9"/>
</linearGradient>
<linearGradient id="paint53_linear_748_474" x1="1764.35" y1="1370.27" x2="1698.24" y2="614.696" gradientUnits="userSpaceOnUse">
<stop stop-color="#2471F2"/>
<stop offset="1" stop-color="#3B2EE9"/>
</linearGradient>
<linearGradient id="paint54_linear_748_474" x1="1787.63" y1="1245.14" x2="1462.92" y2="441.443" gradientUnits="userSpaceOnUse">
<stop stop-color="#2471F2"/>
<stop offset="1" stop-color="#3B2EE9"/>
</linearGradient>
<linearGradient id="paint55_linear_748_474" x1="1398.75" y1="936.345" x2="435.865" y2="936.345" gradientUnits="userSpaceOnUse">
<stop stop-color="#2471F2"/>
<stop offset="1" stop-color="#3B2EE9"/>
</linearGradient>
<linearGradient id="paint56_linear_748_474" x1="1652.15" y1="963.35" x2="745.078" y2="439.651" gradientUnits="userSpaceOnUse">
<stop stop-color="#2471F2"/>
<stop offset="1" stop-color="#3B2EE9"/>
</linearGradient>
<linearGradient id="paint57_linear_748_474" x1="1897.44" y1="1225.41" x2="1520.54" y2="189.884" gradientUnits="userSpaceOnUse">
<stop stop-color="#2471F2"/>
<stop offset="1" stop-color="#3B2EE9"/>
</linearGradient>
<radialGradient id="paint58_radial_748_474" cx="0" cy="0" r="1" gradientUnits="userSpaceOnUse" gradientTransform="translate(1398.75 1406.92) scale(1398.08)">
<stop stop-color="#0DB3FA"/>
<stop offset="1" stop-color="#3B2EE9"/>
</radialGradient>
</defs>
</svg>
