<svg viewBox="0 0 8049 8049" fill="none" xmlns="http://www.w3.org/2000/svg">
    <path d="M4024.66 7024.01C5681.52 7024.01 7024.66 5680.87 7024.66 4024.01C7024.66 2367.16 5681.52 1024.01 4024.66 1024.01C2367.81 1024.01 1024.66 2367.16 1024.66 4024.01C1024.66 5680.87 2367.81 7024.01 4024.66 7024.01Z" fill="url(#paint0_radial_335_663)"/>
    <g opacity="0.5">
    <path d="M4024.66 6024.01C5129.23 6024.01 6024.66 5128.58 6024.66 4024.01C6024.66 2919.44 5129.23 2024.01 4024.66 2024.01C2920.1 2024.01 2024.66 2919.44 2024.66 4024.01C2024.66 5128.58 2920.1 6024.01 4024.66 6024.01Z" fill="url(#paint1_radial_335_663)"/>
    <path d="M4024.66 5824.01C5018.78 5824.01 5824.66 5018.13 5824.66 4024.01C5824.66 3029.9 5018.78 2224.01 4024.66 2224.01C3030.55 2224.01 2224.66 3029.9 2224.66 4024.01C2224.66 5018.13 3030.55 5824.01 4024.66 5824.01Z" fill="url(#paint2_radial_335_663)"/>
    <path d="M4024.66 5724.01C4963.55 5724.01 5724.66 4962.9 5724.66 4024.01C5724.66 3085.13 4963.55 2324.01 4024.66 2324.01C3085.78 2324.01 2324.66 3085.13 2324.66 4024.01C2324.66 4962.9 3085.78 5724.01 4024.66 5724.01Z" fill="url(#paint3_radial_335_663)"/>
    <path d="M4024.66 5675.01C4936.49 5675.01 5675.66 4935.84 5675.66 4024.01C5675.66 3112.19 4936.49 2373.01 4024.66 2373.01C3112.84 2373.01 2373.66 3112.19 2373.66 4024.01C2373.66 4935.84 3112.84 5675.01 4024.66 5675.01Z" fill="url(#paint4_radial_335_663)"/>
    <path d="M4024.66 5474.01C4825.48 5474.01 5474.66 4824.83 5474.66 4024.01C5474.66 3223.2 4825.48 2574.01 4024.66 2574.01C3223.85 2574.01 2574.66 3223.2 2574.66 4024.01C2574.66 4824.83 3223.85 5474.01 4024.66 5474.01Z" fill="url(#paint5_radial_335_663)"/>
    <path d="M4024.66 5274.01C4715.02 5274.01 5274.66 4714.37 5274.66 4024.01C5274.66 3333.66 4715.02 2774.01 4024.66 2774.01C3334.31 2774.01 2774.66 3333.66 2774.66 4024.01C2774.66 4714.37 3334.31 5274.01 4024.66 5274.01Z" fill="url(#paint6_radial_335_663)"/>
    <path d="M4024.66 5199.01C4673.6 5199.01 5199.66 4672.95 5199.66 4024.01C5199.66 3375.08 4673.6 2849.01 4024.66 2849.01C3375.73 2849.01 2849.66 3375.08 2849.66 4024.01C2849.66 4672.95 3375.73 5199.01 4024.66 5199.01Z" fill="url(#paint7_radial_335_663)"/>
    <path d="M4024.66 4924.01C4521.72 4924.01 4924.66 4521.07 4924.66 4024.01C4924.66 3526.96 4521.72 3124.01 4024.66 3124.01C3527.61 3124.01 3124.66 3526.96 3124.66 4024.01C3124.66 4521.07 3527.61 4924.01 4024.66 4924.01Z" fill="url(#paint8_radial_335_663)"/>
    <path d="M4024.66 4774.01C4438.88 4774.01 4774.66 4438.23 4774.66 4024.01C4774.66 3609.8 4438.88 3274.01 4024.66 3274.01C3610.45 3274.01 3274.66 3609.8 3274.66 4024.01C3274.66 4438.23 3610.45 4774.01 4024.66 4774.01Z" fill="url(#paint9_radial_335_663)"/>
    <path d="M4024.66 4524.01C4300.81 4524.01 4524.66 4300.16 4524.66 4024.01C4524.66 3747.87 4300.81 3524.01 4024.66 3524.01C3748.52 3524.01 3524.66 3747.87 3524.66 4024.01C3524.66 4300.16 3748.52 4524.01 4024.66 4524.01Z" fill="url(#paint10_radial_335_663)"/>
    <path d="M4024.66 4404.01C4234.53 4404.01 4404.66 4233.88 4404.66 4024.01C4404.66 3814.15 4234.53 3644.01 4024.66 3644.01C3814.8 3644.01 3644.66 3814.15 3644.66 4024.01C3644.66 4233.88 3814.8 4404.01 4024.66 4404.01Z" fill="url(#paint11_radial_335_663)"/>
    <path d="M4024.66 4274.01C4162.74 4274.01 4274.66 4162.09 4274.66 4024.01C4274.66 3885.94 4162.74 3774.01 4024.66 3774.01C3886.59 3774.01 3774.66 3885.94 3774.66 4024.01C3774.66 4162.09 3886.59 4274.01 4024.66 4274.01Z" fill="url(#paint12_radial_335_663)"/>
    </g>
    <path d="M4082.43 4200.82C4071.03 4204.28 4059.32 4206.66 4047.51 4207.89C4035.69 4209.11 4023.79 4209.19 4012.02 4208.13C4000.24 4207.06 3988.59 4204.85 3977.28 4201.58C3965.97 4198.29 3955.01 4193.92 3944.58 4188.56C3934.15 4183.2 3924.26 4176.86 3915.07 4169.65C3905.88 4162.44 3897.41 4154.36 3889.81 4145.55C3882.22 4136.75 3875.48 4127.22 3869.74 4117.17C3863.99 4107.09 3859.24 4096.5 3855.52 4085.58C3859.7 4096.33 3864.89 4106.66 3871.02 4116.38C3877.14 4126.11 3884.2 4135.21 3892.04 4143.53C3899.89 4151.86 3908.52 4159.41 3917.77 4166.04C3927.02 4172.69 3936.9 4178.43 3947.2 4183.15C3957.51 4187.9 3968.25 4191.63 3979.21 4194.31C3990.19 4196.99 4001.39 4198.61 4012.62 4199.13C4023.86 4199.65 4035.11 4199.1 4046.19 4197.46C4057.27 4195.83 4068.16 4193.12 4078.69 4189.42C4081.81 4188.32 4085.13 4190.03 4086.23 4193.16C4087.33 4196.28 4085.8 4199.64 4082.67 4200.74C4082.59 4200.77 4082.52 4200.79 4082.44 4200.81L4082.43 4200.82Z" fill="url(#paint13_linear_335_663)"/>
    <path d="M4312.29 4139.68C4304.5 4157.94 4294.98 4175.44 4283.9 4191.84C4272.8 4208.23 4260.16 4223.51 4246.18 4237.41C4232.2 4251.3 4216.9 4263.81 4200.61 4274.73C4184.29 4285.65 4166.98 4294.97 4148.96 4302.54C4130.94 4310.12 4112.24 4315.95 4093.2 4319.96C4074.14 4323.96 4054.75 4326.12 4035.37 4326.39C4015.99 4326.66 3996.61 4325.05 3977.62 4321.61C3958.6 4318.16 3939.98 4312.87 3922.06 4305.92C3940.26 4312.1 3959.02 4316.54 3977.99 4319.13C3996.97 4321.74 4016.15 4322.48 4035.17 4321.38C4054.22 4320.29 4073.1 4317.35 4091.47 4312.65C4109.87 4307.96 4127.78 4301.5 4144.86 4293.41C4161.95 4285.33 4178.23 4275.61 4193.39 4264.49C4208.58 4253.35 4222.65 4240.78 4235.35 4226.99C4248.05 4213.21 4259.39 4198.24 4269.18 4182.35C4278.96 4166.46 4287.17 4149.65 4293.71 4132.24C4295.66 4127.08 4301.41 4124.68 4306.57 4126.62C4311.74 4128.56 4314.38 4134.1 4312.43 4139.29C4312.39 4139.42 4312.34 4139.53 4312.28 4139.66L4312.29 4139.68Z" fill="url(#paint14_linear_335_663)"/>
    <path d="M4263.73 4329C4243.89 4343.89 4222.65 4356.88 4200.4 4367.71C4178.15 4378.52 4154.91 4387.15 4131.09 4393.46C4107.28 4399.77 4082.9 4403.75 4058.43 4405.38C4033.94 4407 4009.37 4406.27 3985.14 4403.21C3960.9 4400.15 3937 4394.78 3913.89 4387.22C3890.75 4379.64 3868.42 4369.86 3847.27 4358.04C3826.12 4346.22 3806.15 4332.37 3787.74 4316.77C3769.31 4301.14 3752.46 4283.79 3737.4 4265.06C3753.24 4283.13 3770.77 4299.65 3789.7 4314.32C3808.61 4329 3828.9 4341.79 3850.19 4352.49C3871.48 4363.21 3893.76 4371.83 3916.59 4378.23C3939.43 4384.65 3962.86 4388.84 3986.4 4390.76C4009.96 4392.7 4033.66 4392.36 4057.03 4389.79C4080.42 4387.22 4103.51 4382.41 4125.87 4375.42C4148.24 4368.44 4169.87 4359.33 4190.4 4348.24C4210.92 4337.15 4230.31 4324.08 4248.28 4309.33C4253.61 4304.95 4261.33 4305.95 4265.71 4311.28C4270.09 4316.61 4269.49 4324.26 4264.14 4328.66C4264 4328.77 4263.89 4328.87 4263.74 4328.96L4263.73 4329Z" fill="url(#paint15_linear_335_663)"/>
    <path d="M4485.05 3958.55C4488.62 3988.11 4489.38 4017.99 4487.29 4047.6C4485.17 4077.22 4480.2 4106.55 4472.46 4135.08C4464.73 4163.62 4454.24 4191.33 4441.26 4217.75C4428.25 4244.17 4412.75 4269.26 4395.02 4292.61C4377.3 4315.97 4357.38 4337.57 4335.65 4357.06C4313.9 4376.56 4290.33 4393.9 4265.36 4408.78C4240.38 4423.67 4214 4436.12 4186.76 4445.89C4159.45 4455.67 4131.3 4462.76 4102.81 4467.18C4131.09 4461.55 4158.78 4453.26 4185.38 4442.38C4211.98 4431.54 4237.45 4418.12 4261.34 4402.43C4285.26 4386.72 4307.58 4368.74 4327.93 4348.86C4348.31 4328.97 4366.73 4307.14 4382.84 4283.82C4398.99 4260.51 4412.86 4235.67 4424.2 4209.85C4435.58 4183.99 4444.43 4157.12 4450.58 4129.68C4456.74 4102.24 4460.25 4074.3 4461.05 4046.32C4461.84 4018.33 4459.89 3990.35 4455.34 3962.82C4453.99 3954.65 4459.66 3947.22 4467.83 3945.87C4476 3944.52 4483.59 3949.73 4484.94 3957.93C4484.98 3958.14 4485.01 3958.32 4485.02 3958.53L4485.05 3958.55Z" fill="url(#paint16_linear_335_663)"/>
    <path d="M4614.03 3831.47C4625.56 3869.45 4633.47 3908.5 4637.59 3947.87C4641.66 3987.25 4641.92 4026.91 4638.38 4066.18C4634.83 4105.44 4627.46 4144.26 4616.53 4181.95C4605.57 4219.65 4591.03 4256.19 4573.16 4290.96C4555.3 4325.72 4534.14 4358.71 4510.13 4389.33C4486.07 4419.96 4459.14 4448.19 4429.8 4473.52C4400.45 4498.84 4368.69 4521.3 4335.18 4540.44C4301.59 4559.6 4266.27 4575.43 4229.88 4587.83C4265.71 4573.89 4300.15 4556.59 4332.56 4536.16C4364.97 4515.76 4395.32 4492.24 4423.05 4466.1C4450.82 4439.94 4475.98 4411.17 4498.09 4380.34C4520.24 4349.51 4539.37 4316.58 4555.13 4282.24C4570.94 4247.88 4583.39 4212.06 4592.32 4175.52C4601.26 4138.94 4606.66 4101.6 4608.39 4064.15C4610.13 4026.7 4608.27 3989.19 4602.83 3952.26C4597.39 3915.34 4588.35 3879.04 4576.01 3843.94C4572.34 3833.53 4578.06 3822.47 4588.48 3818.8C4598.9 3815.14 4610.07 3820.22 4613.75 3830.68C4613.84 3830.94 4613.92 3831.17 4613.98 3831.44L4614.03 3831.47Z" fill="url(#paint17_linear_335_663)"/>
    <path d="M4682.59 4433.66C4655.48 4475.22 4624.44 4514.17 4590.05 4549.74C4555.61 4585.28 4517.84 4617.4 4477.4 4645.55C4436.96 4673.7 4393.87 4697.84 4348.99 4717.66C4304.08 4737.45 4257.41 4752.89 4209.76 4763.71C4162.12 4774.54 4113.53 4780.79 4064.92 4782.39C4016.26 4783.98 3967.59 4780.88 3919.76 4773.12C3871.93 4765.37 3824.91 4753 3779.65 4736.29C3734.31 4719.52 3690.78 4698.42 3649.67 4673.53C3691.8 4696.65 3736.04 4715.72 3781.65 4730.33C3827.23 4744.99 3874.13 4755.15 3921.44 4760.7C3968.8 4766.28 4016.57 4767.24 4063.85 4763.65C4111.17 4760.08 4158.07 4751.94 4203.63 4739.44C4249.22 4726.97 4293.53 4710.12 4335.69 4689.31C4377.91 4668.48 4418 4643.64 4455.25 4615.21C4492.51 4586.78 4526.93 4554.87 4557.92 4519.99C4588.91 4485.11 4616.4 4447.29 4640.09 4407.27C4647.12 4395.4 4662.31 4391.98 4674.18 4399.01C4686.06 4406.04 4690.17 4420.83 4683.11 4432.75C4682.94 4433.05 4682.79 4433.31 4682.57 4433.59L4682.59 4433.66Z" fill="url(#paint18_linear_335_663)"/>
    <path d="M4313.49 4908.07C4256.5 4925.36 4197.93 4937.23 4138.88 4943.4C4079.81 4949.51 4020.31 4949.9 3961.42 4944.58C3902.53 4939.26 3844.3 4928.21 3787.77 4911.82C3731.21 4895.37 3676.4 4873.56 3624.25 4846.76C3572.1 4819.96 3522.63 4788.23 3476.69 4752.21C3430.74 4716.13 3388.4 4675.74 3350.41 4631.71C3312.42 4587.69 3278.74 4540.06 3250.03 4489.78C3221.28 4439.4 3197.54 4386.43 3178.94 4331.83C3199.85 4385.58 3225.8 4437.24 3256.45 4485.85C3287.05 4534.48 3322.33 4580 3361.54 4621.6C3400.77 4663.25 3443.94 4700.98 3490.17 4734.15C3536.42 4767.37 3585.82 4796.07 3637.33 4819.72C3688.87 4843.42 3742.6 4862.11 3797.4 4875.49C3852.28 4888.91 3908.29 4897.01 3964.47 4899.61C4020.64 4902.21 4076.9 4899.42 4132.29 4891.26C4187.68 4883.11 4242.13 4869.55 4294.77 4851.03C4310.39 4845.53 4326.99 4854.11 4332.48 4869.74C4337.98 4885.36 4330.35 4902.12 4314.67 4907.64C4314.28 4907.78 4313.94 4907.9 4313.52 4907.99L4313.49 4908.07Z" fill="url(#paint19_linear_335_663)"/>
    <path d="M5031.35 4428.86C5004.07 4492.75 4970.76 4554 4931.99 4611.4C4893.15 4668.78 4848.88 4722.24 4799.97 4770.88C4751.05 4819.53 4697.51 4863.28 4640.46 4901.52C4583.35 4939.73 4522.75 4972.35 4459.69 4998.86C4396.63 5025.37 4331.17 5045.8 4264.53 5059.83C4197.83 5073.84 4129.97 5081.4 4062.14 5082.34C3994.31 5083.27 3926.48 5077.65 3860.02 5065.61C3793.43 5053.51 3728.28 5035.01 3665.54 5010.69C3729.26 5032.32 3794.89 5047.86 3861.32 5056.92C3927.73 5066.04 3994.86 5068.65 4061.44 5064.8C4128.09 5060.97 4194.18 5050.69 4258.5 5034.24C4322.88 5017.82 4385.57 4995.2 4445.33 4966.89C4505.16 4938.61 4562.16 4904.6 4615.22 4865.66C4668.37 4826.68 4717.6 4782.7 4762.06 4734.44C4806.51 4686.18 4846.21 4633.81 4880.46 4578.19C4914.7 4522.57 4943.42 4463.74 4966.34 4402.81C4973.14 4384.73 4993.26 4376.33 5011.34 4383.14C5029.43 4389.94 5038.68 4409.33 5031.85 4427.47C5031.69 4427.94 5031.54 4428.33 5031.31 4428.77L5031.35 4428.86Z" fill="url(#paint20_linear_335_663)"/>
    <path d="M5166.48 3414.54C5203.95 3488.45 5234.37 3565.86 5257.1 3645.3C5279.75 3724.78 5294.67 3806.23 5301.61 3888.22C5308.55 3970.22 5307.48 4052.7 5298.67 4134.14C5289.8 4215.63 5273.15 4296.01 5249.02 4373.96C5224.9 4451.91 5193.36 4527.39 5155.09 4599.05C5116.75 4670.74 5071.63 4738.54 5020.47 4801.24C4969.32 4863.95 4912.18 4921.62 4850.21 4973.11C4788.1 5024.69 4721.24 5070.04 4650.92 5108.71C4719.53 5067.07 4784.06 5019.02 4843.27 4965.26C4902.52 4911.57 4956.38 4852.23 5003.92 4788.43C5051.52 4724.6 5092.8 4656.32 5127.09 4584.94C5161.44 4513.52 5188.84 4438.89 5208.8 4362.57C5228.83 4286.22 5241.46 4208.06 5246.56 4129.71C5251.69 4051.26 5249.25 3972.55 5239.24 3894.92C5229.23 3817.3 5211.81 3740.87 5187.24 3666.93C5162.68 3592.98 5130.94 3521.64 5092.83 3453.97C5081.53 3433.89 5089.28 3409.07 5109.36 3397.76C5129.45 3386.46 5154.26 3392.86 5165.61 3413.02C5165.9 3413.52 5166.15 3413.96 5166.37 3414.51L5166.48 3414.54Z" fill="url(#paint21_linear_335_663)"/>
    <path d="M4885.32 5121.95C4813.87 5175.55 4737.4 5222.33 4657.33 5261.32C4577.2 5300.24 4493.54 5331.32 4407.8 5354.03C4322.06 5376.75 4234.32 5391.05 4146.22 5396.95C4058.06 5402.78 3969.62 5400.15 3882.36 5389.13C3795.1 5378.11 3709.09 5358.77 3625.86 5331.56C3542.58 5304.27 3462.17 5269.07 3386.04 5226.5C3309.91 5183.94 3238 5134.08 3171.74 5077.95C3105.37 5021.67 3044.72 4959.19 2990.5 4891.78C3047.55 4956.82 3110.63 5016.32 3178.78 5069.11C3246.85 5121.95 3319.93 5168.02 3396.54 5206.53C3473.21 5245.12 3553.41 5276.15 3635.6 5299.19C3717.84 5322.29 3802.18 5337.4 3886.92 5344.3C3971.72 5351.27 4057.05 5350.05 4141.16 5340.8C4225.4 5331.56 4308.5 5314.24 4389.02 5289.08C4469.54 5263.93 4547.41 5231.14 4621.3 5191.22C4695.19 5151.31 4764.97 5104.26 4829.67 5051.15C4848.87 5035.39 4876.67 5038.97 4892.43 5058.17C4908.19 5077.38 4906.03 5104.91 4886.76 5120.73C4886.28 5121.14 4885.87 5121.48 4885.33 5121.82L4885.32 5121.95Z" fill="url(#paint22_linear_335_663)"/>
    <path d="M5326.07 5001.41C5261.74 5083.39 5189.69 5159.2 5111.23 5227.32C5032.69 5295.37 4947.79 5355.65 4858.03 5407.14C4768.27 5458.63 4673.71 5501.24 4576.21 5534.49C4478.62 5567.68 4378.17 5591.42 4276.51 5605.35C4174.85 5619.28 4072.07 5623.46 3970.07 5617.92C3867.98 5612.32 3766.73 5596.93 3668.09 5571.95C3569.44 5546.98 3473.35 5512.5 3381.74 5469.25C3289.95 5425.87 3202.73 5373.78 3121.28 5314.18C3205.2 5370.25 3294.26 5418.25 3386.99 5457.16C3479.67 5496.16 3575.93 5526 3673.89 5546.28C3771.94 5566.61 3871.7 5577.37 3971.26 5578.51C4070.92 5579.71 4170.53 5571.26 4268.11 5553.46C4365.78 5535.71 4461.57 5508.56 4553.56 5472.74C4645.7 5436.89 4734.11 5392.28 4817.25 5339.62C4900.4 5286.96 4978.25 5226.49 5049.46 5159.2C5120.68 5091.91 5185.12 5017.82 5241.99 4938.43C5258.87 4914.87 5291.27 4910.52 5314.83 4927.4C5338.39 4944.28 5344.28 4975.96 5327.34 4999.6C5326.91 5000.21 5326.55 5000.72 5326.04 5001.26L5326.07 5001.41Z" fill="url(#paint23_linear_335_663)"/>
    <path d="M5773.58 4657.38C5730.67 4768.48 5677.25 4875.4 5614.27 4976.06C5551.16 5076.69 5478.52 5170.94 5397.63 5257.2C5316.73 5343.46 5227.61 5421.63 5132.17 5490.55C5036.6 5559.43 4934.75 5618.95 4828.29 5668.14C4721.84 5717.33 4610.91 5756.24 4497.58 5784.27C4384.14 5812.26 4268.34 5829.27 4152.18 5834.93C4036.03 5840.6 3919.48 5835.03 3804.9 5818.37C3690.1 5801.63 3577.37 5773.83 3468.43 5735.92C3578.89 5769.16 3692.26 5791.86 3806.61 5803.4C3920.92 5815.06 4036.1 5815.51 4149.94 5804.93C4263.9 5794.39 4376.52 5772.81 4485.72 5740.79C4595.03 5708.81 4701.08 5666.3 4801.78 5614.23C4902.59 5562.19 4998.21 5500.52 5086.78 5430.63C5175.5 5360.66 5257.22 5282.36 5330.49 5197.03C5403.77 5111.7 5468.65 5019.6 5524 4922.26C5579.34 4824.92 5625.01 4722.41 5660.64 4616.64C5671.22 4585.26 5705.18 4569.67 5736.57 4580.24C5767.95 4590.82 5784.98 4623.48 5774.36 4654.98C5774.1 4655.78 5773.88 4656.47 5773.51 4657.23L5773.58 4657.38Z" fill="url(#paint24_linear_335_663)"/>
    <path d="M5404.77 2486.28C5501.33 2576.71 5589.23 2676.22 5666.7 2782.98C5744.08 2889.85 5810.92 3003.88 5866.1 3123.1C5921.29 3242.31 5964.71 3366.62 5995.98 3493.61C6027.15 3620.7 6046.07 3750.37 6052.44 3880.48C6058.81 4010.59 6052.71 4141.03 6034.43 4269.42C6016.05 4397.91 5985.38 4524.26 5942.88 4646.25C5900.37 4768.24 5846.14 4885.96 5781.3 4997.03C5716.29 5108.31 5640.76 5212.85 5556.37 5309.27C5636.57 5209.34 5707.13 5102.02 5766.6 4989.05C5826.17 4876.16 5874.57 4757.72 5911.05 4636.07C5947.61 4514.32 5972.25 4389.35 5984.71 4263.55C5997.26 4137.65 5997.6 4010.74 5985.87 3885.36C5974.23 3759.87 5950.5 3635.73 5915.38 3515.42C5880.24 3394.93 5833.59 3278.18 5776.2 3167.2C5718.8 3056.22 5650.94 2951.08 5573.72 2853.57C5496.49 2756.05 5409.92 2666.36 5315.81 2585.65C5287.89 2561.7 5285.96 2520.23 5309.92 2492.31C5333.87 2464.38 5374.59 2460.44 5402.62 2484.48C5403.34 2485.08 5403.95 2485.6 5404.58 2486.3L5404.77 2486.28Z" fill="url(#paint25_linear_335_663)"/>
    <path d="M6161.12 3326.03C6202.91 3463.74 6231.6 3605.29 6246.5 3747.99C6261.28 3890.75 6262.22 4034.53 6249.37 4176.85C6236.51 4319.17 6209.81 4459.89 6170.19 4596.52C6130.44 4733.2 6077.73 4865.64 6012.97 4991.68C5948.2 5117.71 5871.52 5237.28 5784.46 5348.28C5697.27 5459.32 5599.66 5561.67 5493.27 5653.47C5386.88 5745.27 5271.77 5826.67 5150.27 5896.05C5028.51 5965.52 4900.49 6022.91 4768.56 6067.85C4898.46 6017.33 5023.3 5954.6 5140.77 5880.53C5258.29 5806.58 5368.29 5721.33 5468.82 5626.57C5569.48 5531.76 5660.67 5427.44 5740.82 5315.71C5821.11 5203.93 5890.46 5084.56 5947.61 4960.07C6004.9 4835.53 6050.06 4705.67 6082.41 4573.23C6114.84 4440.61 6134.39 4305.26 6140.68 4169.5C6146.97 4033.73 6140.23 3897.77 6120.52 3763.91C6100.81 3630.05 6068.04 3498.48 6023.28 3371.26C6010 3333.51 6030.74 3293.4 6068.5 3280.12C6106.25 3266.84 6146.75 3285.28 6160.08 3323.17C6160.43 3324.12 6160.73 3324.94 6160.94 3325.94L6161.12 3326.03Z" fill="url(#paint26_linear_335_663)"/>
    <path d="M6325.66 4949.37C6263.31 5095.41 6187.16 5235.41 6098.54 5366.61C6009.77 5497.76 5908.59 5619.96 5796.78 5731.15C5684.97 5842.33 5562.59 5942.34 5432.19 6029.74C5301.65 6117.08 5163.15 6191.64 5019.01 6252.24C4874.88 6312.84 4725.25 6359.52 4572.93 6391.59C4420.46 6423.62 4265.36 6440.89 4110.32 6443.03C3955.27 6445.18 3800.24 6432.33 3648.33 6404.8C3496.13 6377.16 3347.21 6334.87 3203.82 6279.28C3349.45 6328.71 3499.47 6364.24 3651.31 6384.94C3803.09 6405.79 3956.54 6411.75 4108.73 6402.95C4261.07 6394.21 4412.14 6370.7 4559.14 6333.11C4706.29 6295.58 4849.58 6243.87 4986.19 6179.17C5122.94 6114.52 5253.23 6036.79 5374.5 5947.78C5495.98 5858.68 5608.52 5758.14 5710.13 5647.85C5811.74 5537.55 5902.47 5417.84 5980.76 5290.71C6059.04 5163.58 6124.67 5029.11 6177.06 4889.83C6192.62 4848.5 6238.59 4829.31 6279.93 4844.86C6321.26 4860.42 6342.42 4904.73 6326.81 4946.21C6326.43 4947.26 6326.1 4948.16 6325.57 4949.16L6325.66 4949.37Z" fill="url(#paint27_linear_335_663)"/>
    <path d="M3838.76 4017.82C3839.41 4005.93 3841.19 3994.11 3844.07 3982.59C3846.96 3971.07 3850.95 3959.86 3855.98 3949.16C3861.01 3938.45 3867.07 3928.27 3874.02 3918.76C3880.98 3909.26 3888.83 3900.45 3897.43 3892.48C3906.03 3884.51 3915.38 3877.39 3925.29 3871.22C3935.22 3865.05 3945.71 3859.85 3956.58 3855.73C3967.45 3851.6 3978.71 3848.53 3990.12 3846.57C4001.55 3844.61 4013.13 3843.77 4024.67 3844.01C4013.13 3844.27 4001.65 3845.61 3990.42 3848.05C3979.19 3850.47 3968.22 3853.99 3957.72 3858.51C3947.21 3863.03 3937.16 3868.57 3927.77 3874.99C3918.36 3881.41 3909.59 3888.73 3901.62 3896.79C3893.64 3904.85 3886.45 3913.67 3880.19 3923.06C3873.91 3932.45 3868.56 3942.43 3864.23 3952.81C3859.89 3963.19 3856.57 3973.95 3854.31 3984.92C3852.06 3995.89 3850.88 4007.05 3850.76 4018.21C3850.73 4021.52 3847.98 4024.05 3844.67 4024.01C3841.35 4023.98 3838.73 4021.4 3838.76 4018.07C3838.76 4017.99 3838.76 4017.92 3838.77 4017.83L3838.76 4017.82Z" fill="url(#paint28_linear_335_663)"/>
    <path d="M3817.6 4254.73C3803.11 4241.16 3789.92 4226.23 3778.3 4210.22C3766.69 4194.18 3756.66 4177.07 3748.38 4159.19C3740.1 4141.3 3733.59 4122.65 3728.89 4103.59C3724.22 4084.53 3721.38 4065.07 3720.42 4045.55C3719.47 4026.03 3720.38 4006.46 3723.13 3987.19C3725.88 3967.92 3730.48 3948.96 3736.86 3930.66C3743.24 3912.35 3751.38 3894.69 3761.1 3878.03C3770.86 3861.33 3782.19 3845.64 3794.85 3831.18C3782.82 3846.17 3772.23 3862.27 3763.31 3879.22C3754.37 3896.16 3747.11 3913.93 3741.64 3932.18C3736.15 3950.45 3732.45 3969.2 3730.59 3988.07C3728.7 4006.96 3728.65 4026.01 3730.41 4044.82C3732.16 4063.65 3735.72 4082.27 3740.99 4100.32C3746.26 4118.4 3753.26 4135.92 3761.87 4152.57C3770.48 4169.22 3780.66 4185 3792.25 4199.63C3803.84 4214.26 3816.82 4227.71 3830.94 4239.82C3835.13 4243.42 3835.42 4249.64 3831.83 4253.83C3828.24 4258.02 3822.13 4258.61 3817.92 4255C3817.81 4254.91 3817.72 4254.83 3817.63 4254.73L3817.6 4254.73Z" fill="url(#paint29_linear_335_663)"/>
    <path d="M3656.31 4144.36C3649.11 4120.61 3644.16 4096.21 3641.59 4071.6C3639.04 4046.99 3638.88 4022.2 3641.1 3997.66C3643.31 3973.13 3647.92 3948.86 3654.75 3925.31C3661.6 3901.74 3670.69 3878.91 3681.85 3857.18C3693.02 3835.45 3706.24 3814.83 3721.25 3795.69C3736.29 3776.55 3753.12 3758.9 3771.46 3743.07C3789.8 3727.25 3809.65 3713.21 3830.6 3701.25C3851.59 3689.27 3873.66 3679.38 3896.41 3671.63C3874.01 3680.34 3852.49 3691.15 3832.23 3703.93C3811.97 3716.67 3793.01 3731.37 3775.67 3747.71C3758.32 3764.06 3742.6 3782.05 3728.78 3801.31C3714.93 3820.58 3702.98 3841.16 3693.12 3862.63C3683.25 3884.1 3675.46 3906.49 3669.88 3929.32C3664.29 3952.19 3660.92 3975.52 3659.83 3998.93C3658.75 4022.34 3659.91 4045.78 3663.31 4068.86C3666.71 4091.94 3672.36 4114.62 3680.08 4136.56C3682.37 4143.07 3678.79 4149.98 3672.28 4152.27C3665.77 4154.56 3658.79 4151.38 3656.49 4144.85C3656.43 4144.69 3656.38 4144.54 3656.34 4144.37L3656.31 4144.36Z" fill="url(#paint30_linear_335_663)"/>
    <path d="M3928.72 4479.03C3899.72 4472.27 3871.39 4462.76 3844.28 4450.67C3817.17 4438.55 3791.31 4423.85 3767.14 4406.82C3742.97 4389.8 3720.52 4370.45 3700.13 4349.22C3679.76 4327.96 3661.48 4304.81 3645.59 4280.17C3629.71 4255.53 3616.22 4229.42 3605.34 4202.34C3594.46 4175.23 3586.22 4147.15 3580.78 4118.59C3575.33 4090.03 3572.66 4060.99 3572.8 4032.04C3572.95 4003.04 3575.9 3974.16 3581.5 3945.87C3577.12 3974.37 3575.44 4003.23 3576.56 4031.94C3577.65 4060.65 3581.55 4089.18 3588.13 4116.99C3594.7 4144.84 3603.96 4171.97 3615.69 4197.89C3627.41 4223.84 3641.62 4248.61 3658.02 4271.73C3674.41 4294.88 3693 4316.4 3713.39 4335.9C3733.8 4355.43 3756.02 4372.94 3779.7 4388.11C3803.37 4403.28 3828.43 4416.14 3854.46 4426.45C3880.48 4436.77 3907.45 4444.51 3934.87 4449.65C3943.01 4451.17 3948.05 4459.04 3946.52 4467.18C3945 4475.32 3937.5 4480.67 3929.34 4479.14C3929.13 4479.1 3928.95 4479.07 3928.75 4479L3928.72 4479.03Z" fill="url(#paint31_linear_335_663)"/>
    <path d="M4004.03 4643.69C3964.39 4641.53 3924.99 4635.61 3886.59 4626.01C3848.19 4616.37 3810.83 4603.05 3775.15 4586.29C3739.47 4569.53 3705.51 4549.33 3673.83 4526.17C3642.15 4502.97 3612.79 4476.81 3586.23 4448.13C3559.67 4419.45 3535.91 4388.29 3515.35 4355.25C3494.79 4322.17 3477.47 4287.21 3463.71 4250.97C3449.95 4214.73 3439.71 4177.21 3433.19 4139.17C3426.67 4101.05 3423.87 4062.45 3424.67 4024.01C3425.51 4062.45 3429.99 4100.73 3438.11 4138.17C3446.19 4175.61 3457.91 4212.17 3472.99 4247.17C3488.07 4282.21 3506.51 4315.69 3527.91 4347.01C3549.31 4378.37 3573.71 4407.61 3600.59 4434.17C3627.47 4460.77 3656.87 4484.73 3688.15 4505.61C3719.47 4526.53 3752.71 4544.37 3787.31 4558.81C3821.91 4573.25 3857.79 4584.33 3894.35 4591.85C3930.91 4599.37 3968.11 4603.29 4005.31 4603.69C4016.35 4603.81 4024.79 4612.97 4024.67 4624.01C4024.55 4635.05 4015.95 4643.81 4004.87 4643.69C4004.59 4643.69 4004.35 4643.69 4004.07 4643.65L4004.03 4643.69Z" fill="url(#paint32_linear_335_663)"/>
    <path d="M3414.7 4502.15C3384.92 4462.46 3358.93 4419.98 3337.27 4375.49C3315.65 4330.98 3298.38 4284.5 3285.77 4236.87C3273.15 4189.24 3265.2 4140.49 3261.92 4091.54C3258.69 4042.57 3260.14 3993.43 3266.27 3944.96C3272.39 3896.48 3283.14 3848.69 3298.25 3802.46C3313.41 3756.19 3332.97 3711.52 3356.62 3669.22C3380.26 3626.93 3407.96 3586.98 3439.15 3550.17C3470.41 3513.3 3505.12 3479.6 3542.57 3449.48C3506.44 3481.17 3473.39 3516.22 3444.06 3554.08C3414.7 3591.9 3389.11 3632.49 3367.71 3675.06C3346.27 3717.65 3329.03 3762.21 3316.24 3807.86C3303.4 3853.55 3295.01 3900.41 3291.17 3947.49C3287.3 3994.6 3287.98 4042.01 3293.12 4088.74C3298.25 4135.54 3307.88 4181.7 3321.85 4226.43C3335.82 4271.17 3354.04 4314.43 3376.22 4355.48C3398.39 4396.53 3424.53 4435.3 3454.03 4471.24C3462.79 4481.91 3460.8 4497.35 3450.13 4506.11C3439.46 4514.86 3424.17 4513.66 3415.38 4502.96C3415.15 4502.69 3414.96 4502.46 3414.77 4502.16L3414.7 4502.15Z" fill="url(#paint33_linear_335_663)"/>
    <path d="M3095.15 3993.05C3098.39 3933.59 3107.27 3874.49 3121.67 3816.89C3136.13 3759.29 3156.11 3703.25 3181.25 3649.73C3206.39 3596.21 3236.69 3545.27 3271.43 3497.75C3306.23 3450.23 3345.47 3406.19 3388.49 3366.35C3431.51 3326.51 3478.25 3290.87 3527.81 3260.03C3577.43 3229.19 3629.87 3203.21 3684.23 3182.57C3738.59 3161.93 3794.87 3146.57 3851.93 3136.79C3909.11 3127.01 3967.01 3122.81 4024.67 3124.01C3967.01 3125.27 3909.59 3131.99 3853.43 3144.17C3797.27 3156.29 3742.43 3173.87 3689.93 3196.49C3637.37 3219.11 3587.15 3246.77 3540.17 3278.87C3493.13 3310.97 3449.27 3347.57 3409.43 3387.89C3369.53 3428.21 3333.59 3472.31 3302.27 3519.23C3270.89 3566.21 3244.13 3616.07 3222.47 3667.97C3200.81 3719.87 3184.19 3773.69 3172.91 3828.53C3161.63 3883.37 3155.75 3939.17 3155.15 3994.97C3154.97 4011.53 3141.23 4024.19 3124.67 4024.01C3108.11 4023.83 3094.97 4010.93 3095.15 3994.31C3095.15 3993.89 3095.15 3993.53 3095.21 3993.11L3095.15 3993.05Z" fill="url(#paint34_linear_335_663)"/>
    <path d="M3299.93 4831.53C3249.22 4784.04 3203.06 4731.78 3162.38 4675.72C3121.75 4619.6 3086.65 4559.72 3057.67 4497.11C3028.69 4434.51 3005.89 4369.23 2989.47 4302.55C2973.1 4235.81 2963.16 4167.71 2959.82 4099.39C2956.47 4031.06 2959.67 3962.56 2969.28 3895.14C2978.93 3827.67 2995.03 3761.32 3017.35 3697.26C3039.67 3633.2 3068.15 3571.38 3102.2 3513.05C3136.34 3454.62 3176.01 3399.72 3220.32 3349.09C3178.2 3401.56 3141.15 3457.92 3109.92 3517.25C3078.64 3576.53 3053.22 3638.72 3034.07 3702.6C3014.87 3766.54 3001.93 3832.17 2995.38 3898.23C2988.8 3964.34 2988.62 4030.98 2994.77 4096.83C3000.89 4162.72 3013.35 4227.91 3031.79 4291.09C3050.25 4354.37 3074.74 4415.68 3104.88 4473.95C3135.02 4532.23 3170.66 4587.45 3211.21 4638.65C3251.76 4689.86 3297.22 4736.96 3346.64 4779.34C3361.31 4791.92 3362.32 4813.7 3349.74 4828.36C3337.16 4843.03 3315.78 4845.1 3301.06 4832.47C3300.68 4832.16 3300.36 4831.89 3300.03 4831.52L3299.93 4831.53Z" fill="url(#paint35_linear_335_663)"/>
    <path d="M4206.86 5305.43C4124.59 5315.35 4041.44 5317.47 3959.02 5311.65C3876.59 5305.75 3794.95 5291.91 3715.53 5270.39C3636.1 5248.87 3558.96 5219.65 3485.44 5183.52C3411.9 5147.31 3342.06 5104.18 3277.07 5054.84C3212.07 5005.51 3151.93 4950.07 3097.68 4889.6C3043.43 4829.04 2995.15 4763.45 2953.72 4693.94C2912.3 4624.42 2877.65 4551 2850.45 4475.16C2823.23 4399.16 2803.48 4320.82 2791.19 4241.51C2806.85 4320.23 2829.94 4397.3 2860.21 4471.33C2890.39 4545.36 2927.73 4616.28 2971.42 4682.76C3015.13 4749.33 3065.17 4811.47 3120.52 4868.1C3175.88 4924.82 3236.64 4976.08 3301.53 5020.94C3366.43 5065.88 3435.55 5104.48 3507.43 5136.07C3579.4 5167.72 3654.2 5192.35 3730.56 5209.49C3806.93 5226.63 3884.71 5236.4 3962.59 5238.61C4040.48 5240.82 4118.37 5235.39 4194.99 5222.73C4217.73 5218.97 4238.4 5234.75 4242.16 5257.49C4245.91 5280.23 4231.41 5301.35 4208.59 5305.12C4208.01 5305.22 4207.52 5305.31 4206.93 5305.33L4206.86 5305.43Z" fill="url(#paint36_linear_335_663)"/>
    <path d="M2698.59 4457.25C2672.65 4371.77 2654.85 4283.91 2645.59 4195.34C2636.42 4106.73 2635.84 4017.49 2643.81 3929.15C2651.79 3840.82 2668.37 3753.47 2692.96 3668.67C2717.63 3583.83 2750.35 3501.62 2790.55 3423.4C2830.74 3345.17 2878.34 3270.95 2932.38 3202.06C2986.5 3133.13 3047.08 3069.61 3113.12 3012.63C3179.15 2955.65 3250.6 2905.12 3326.01 2862.06C3401.59 2818.94 3481.05 2783.32 3562.94 2755.43C3482.31 2786.79 3404.82 2825.72 3331.91 2871.7C3258.97 2917.59 3190.69 2970.51 3128.29 3029.32C3065.81 3088.17 3009.22 3152.93 2959.46 3222.27C2909.63 3291.65 2866.58 3365.74 2831.11 3443.02C2795.56 3520.32 2767.52 3600.92 2747.45 3683.12C2727.32 3765.44 2715.18 3849.45 2711.27 3933.71C2707.37 4017.98 2711.55 4102.37 2723.79 4185.46C2736.02 4268.54 2756.36 4350.21 2784.14 4429.17C2792.39 4452.61 2779.51 4477.5 2756.08 4485.74C2732.65 4493.98 2707.51 4482.54 2699.23 4459.02C2699.02 4458.43 2698.83 4457.92 2698.7 4457.3L2698.59 4457.25Z" fill="url(#paint37_linear_335_663)"/>
    <path d="M2661.11 4912.65C2606.07 4824.16 2559.48 4730.52 2522.3 4633.5C2485.21 4536.41 2457.6 4436.02 2439.92 4334.07C2422.24 4232.11 2414.54 4128.67 2416.65 4025.68C2418.83 3922.63 2430.88 3820.11 2452.56 3719.82C2474.24 3619.53 2505.47 3521.52 2545.56 3427.56C2585.73 3333.55 2634.83 3243.67 2692.04 3159.52C2749.24 3075.36 2814.5 2996.85 2886.48 2925.56C2958.64 2854.14 3037.42 2790.01 3121.28 2733.85C3039.89 2793.53 2964.32 2860.8 2896.04 2934.63C2827.7 3008.38 2766.73 3088.63 2714.18 3173.75C2661.54 3258.93 2617.31 3348.99 2582.19 3442.17C2546.97 3535.4 2520.84 3631.89 2504.2 3729.68C2487.47 3827.53 2480.22 3926.82 2482.42 4025.52C2484.59 4124.36 2496.27 4222.7 2517.32 4318.84C2538.37 4414.98 2568.56 4508.82 2607.44 4598.75C2646.31 4688.69 2693.9 4774.58 2749.04 4855.17C2765.41 4879.09 2758.42 4911.03 2734.5 4927.4C2710.58 4943.76 2678.8 4938.46 2662.37 4914.45C2661.95 4913.85 2661.59 4913.33 2661.25 4912.67L2661.11 4912.65Z" fill="url(#paint38_linear_335_663)"/>
    <path d="M2831.33 5450.84C2741.61 5372.52 2659.4 5285.75 2586.36 5192.13C2513.38 5098.42 2449.66 4997.92 2396.27 4892.4C2342.88 4786.88 2299.9 4676.4 2267.79 4563.14C2235.74 4449.78 2214.65 4333.71 2204.84 4216.86C2195.02 4100 2196.4 3982.45 2208.82 3866.37C2221.32 3750.19 2244.94 3635.56 2279.35 3524.47C2313.75 3413.38 2358.84 3305.77 2413.69 3203.8C2468.68 3101.64 2533.36 3005.22 2606.25 2915.82C2537.23 3008.25 2477.12 3107.02 2427.17 3210.52C2377.12 3313.96 2337.3 3422.03 2308.3 3532.63C2279.23 3643.32 2260.99 3756.52 2253.73 3870.09C2246.4 3983.75 2250.08 4097.94 2264.57 4210.38C2278.98 4322.91 2304.23 4433.85 2339.61 4540.98C2375.02 4648.29 2420.65 4751.86 2475.77 4849.9C2530.9 4947.94 2595.25 5040.4 2667.79 5125.71C2740.33 5211.01 2821.04 5288.99 2908.24 5358.64C2934.12 5379.31 2937.15 5416.56 2916.48 5442.43C2895.8 5468.31 2859.29 5473.14 2833.32 5452.39C2832.66 5451.87 2832.09 5451.43 2831.5 5450.82L2831.33 5450.84Z" fill="url(#paint39_linear_335_663)"/>
    <path d="M4997.64 5846.82C4879.64 5906.64 4756.06 5955.2 4629.24 5991.48C4502.36 6027.64 4372.34 6051.45 4241.44 6062.53C4110.54 6073.62 3978.87 6071.9 3848.85 6057.85C3718.77 6043.68 3590.45 6017.1 3466 5978.59C3341.56 5940.07 3221.07 5889.73 3106.68 5828.64C2992.22 5767.43 2883.99 5695.39 2783.89 5613.73C2683.79 5532.07 2591.72 5440.84 2509.52 5341.92C2427.19 5242.77 2354.79 5136.04 2293.05 5023.76C2359.52 5133.3 2436.24 5236.32 2522.05 5330.84C2607.76 5425.43 2702.5 5511.41 2804.34 5587.3C2906.25 5663.3 3015.25 5729.2 3129.2 5783.93C3243.21 5838.78 3362.35 5882.51 3484.19 5914.37C3606.09 5946.35 3730.86 5966.51 3855.92 5974.65C3981.17 5982.84 4106.83 5978.94 4230.75 5962.96C4354.67 5946.99 4476.68 5919.18 4594.72 5879.96C4712.76 5840.75 4826.66 5790.08 4934.68 5729.25C4966.75 5711.2 5006.37 5723.57 5024.42 5755.63C5042.46 5787.69 5032.24 5827.31 5000.06 5845.42C4999.26 5845.89 4998.56 5846.29 4997.69 5846.64L4997.64 5846.82Z" fill="url(#paint40_linear_335_663)"/>
    <path d="M3949.85 6270.35C3806.15 6262.52 3663.33 6241.06 3524.13 6206.26C3384.93 6171.32 3249.5 6123.03 3120.16 6062.28C2990.82 6001.52 2867.71 5928.3 2752.87 5844.34C2638.03 5760.24 2531.6 5665.41 2435.32 5561.45C2339.04 5457.48 2252.91 5344.53 2178.38 5224.76C2103.85 5104.84 2041.07 4978.11 1991.19 4846.74C1941.31 4715.37 1904.19 4579.36 1880.55 4441.47C1856.92 4303.28 1846.77 4163.36 1849.67 4024.01C1852.71 4163.36 1868.95 4302.12 1898.39 4437.84C1927.68 4573.56 1970.16 4706.09 2024.83 4832.97C2079.49 4959.99 2146.34 5081.35 2223.91 5194.89C2301.49 5308.57 2389.94 5414.56 2487.38 5510.84C2584.82 5607.27 2691.39 5694.12 2804.78 5769.81C2918.32 5845.65 3038.81 5910.32 3164.24 5962.66C3289.66 6015.01 3419.73 6055.17 3552.26 6082.43C3684.79 6109.69 3819.64 6123.9 3954.49 6125.35C3994.51 6125.79 4025.1 6158.99 4024.67 6199.01C4024.23 6239.03 3993.06 6270.79 3952.89 6270.35C3951.88 6270.35 3951.01 6270.35 3949.99 6270.21L3949.85 6270.35Z" fill="url(#paint41_linear_335_663)"/>
    <path d="M2368.13 5869.76C2252.22 5761.22 2146.71 5641.77 2053.73 5513.62C1960.85 5385.35 1880.62 5248.48 1814.39 5105.39C1748.15 4962.29 1696.03 4813.08 1658.5 4660.66C1621.08 4508.12 1598.37 4352.47 1590.73 4196.3C1583.09 4040.13 1590.4 3883.56 1612.35 3729.45C1634.4 3575.23 1671.22 3423.57 1722.24 3277.15C1773.25 3130.72 1838.34 2989.43 1916.17 2856.1C1994.21 2722.53 2084.87 2597.05 2186.16 2481.32C2089.9 2601.27 2005.2 2730.09 1933.82 2865.69C1862.31 3001.18 1804.22 3143.34 1760.44 3289.36C1716.56 3435.51 1686.98 3585.51 1672.02 3736.5C1656.96 3887.61 1656.55 4039.95 1670.63 4190.44C1684.6 4341.06 1713.08 4490.07 1755.24 4634.48C1797.42 4779.11 1853.41 4919.24 1922.3 5052.45C1991.19 5185.66 2072.65 5311.86 2165.34 5428.9C2258.03 5545.95 2361.94 5653.61 2474.9 5750.48C2508.42 5779.23 2510.73 5829 2481.97 5862.52C2453.22 5896.04 2404.35 5900.77 2370.7 5871.92C2369.85 5871.2 2369.11 5870.58 2368.36 5869.74L2368.13 5869.76Z" fill="url(#paint42_linear_335_663)"/>
    <path d="M4122.98 3866.11C4132.95 3872.62 4142.3 3880.07 4150.84 3888.32C4159.37 3896.59 4167.08 3905.65 4173.83 3915.36C4180.59 3925.06 4186.38 3935.41 4191.14 3946.18C4195.89 3956.95 4199.59 3968.16 4202.19 3979.59C4204.79 3991.03 4206.29 4002.69 4206.68 4014.35C4207.06 4026.03 4206.31 4037.71 4204.45 4049.19C4202.59 4060.67 4199.62 4071.96 4195.61 4082.82C4191.59 4093.7 4186.52 4104.15 4180.55 4114.01C4186.1 4103.9 4190.67 4093.28 4194.18 4082.34C4197.7 4071.4 4200.14 4060.14 4201.47 4048.79C4202.81 4037.42 4203.04 4025.96 4202.18 4014.61C4201.32 4003.25 4199.37 3992 4196.37 3981.06C4193.37 3970.12 4189.33 3959.49 4184.33 3949.37C4179.34 3939.24 4173.38 3929.61 4166.55 3920.67C4159.73 3911.73 4152.07 3903.47 4143.7 3896.03C4135.33 3888.6 4126.25 3882 4116.65 3876.31C4113.8 3874.63 4112.98 3870.98 4114.66 3868.13C4116.35 3865.28 4119.9 3864.29 4122.76 3865.99C4122.83 3866.03 4122.9 3866.06 4122.96 3866.12L4122.98 3866.11Z" fill="url(#paint43_linear_335_663)"/>
    <path d="M3928.39 3729.33C3947.38 3723.57 3966.91 3719.61 3986.59 3717.55C4006.28 3715.52 4026.11 3715.39 4045.75 3717.16C4065.38 3718.93 4084.79 3722.62 4103.63 3728.08C4122.48 3733.56 4140.75 3740.83 4158.14 3749.77C4175.52 3758.7 4192.01 3769.28 4207.32 3781.28C4222.64 3793.31 4236.75 3806.77 4249.42 3821.45C4262.08 3836.12 4273.31 3852 4282.88 3868.76C4292.46 3885.55 4300.37 3903.21 4306.57 3921.41C4299.6 3903.49 4290.95 3886.27 4280.74 3870.07C4270.54 3853.86 4258.78 3838.69 4245.71 3824.82C4232.63 3810.94 4218.24 3798.36 4202.83 3787.3C4187.41 3776.23 4170.95 3766.66 4153.78 3758.78C4136.6 3750.88 4118.69 3744.65 4100.42 3740.19C4082.13 3735.72 4063.46 3733.02 4044.73 3732.15C4026.01 3731.28 4007.25 3732.21 3988.79 3734.93C3970.33 3737.65 3952.18 3742.17 3934.63 3748.34C3929.42 3750.17 3923.89 3747.31 3922.06 3742.11C3920.23 3736.9 3922.77 3731.31 3928 3729.47C3928.13 3729.43 3928.24 3729.39 3928.38 3729.36L3928.39 3729.33Z" fill="url(#paint44_linear_335_663)"/>
    <path d="M4104.62 3644.84C4128.79 3650.47 4152.4 3658.39 4174.99 3668.47C4197.58 3678.57 4219.13 3690.82 4239.27 3705.01C4259.41 3719.2 4278.12 3735.32 4295.11 3753.01C4312.09 3770.73 4327.32 3790.02 4340.56 3810.55C4353.79 3831.09 4365.03 3852.84 4374.1 3875.41C4383.17 3898 4390.03 3921.4 4394.57 3945.2C4399.11 3969 4401.34 3993.2 4401.22 4017.33C4401.1 4041.5 4398.63 4065.56 4393.97 4089.13C4397.62 4065.38 4399.02 4041.33 4398.09 4017.41C4397.18 3993.49 4393.93 3969.71 4388.45 3946.53C4382.97 3923.33 4375.25 3900.72 4365.48 3879.12C4355.71 3857.49 4343.87 3836.85 4330.2 3817.58C4316.54 3798.29 4301.05 3780.36 4284.06 3764.11C4267.06 3747.83 4248.53 3733.25 4228.8 3720.6C4209.07 3707.96 4188.19 3697.25 4166.51 3688.65C4144.82 3680.05 4122.35 3673.6 4099.49 3669.32C4092.71 3668.05 4088.51 3661.49 4089.78 3654.71C4091.05 3647.93 4097.3 3643.47 4104.11 3644.75C4104.28 3644.78 4104.43 3644.8 4104.59 3644.86L4104.62 3644.84Z" fill="url(#paint45_linear_335_663)"/>
    <path d="M3678.59 3713.41C3698.94 3691.68 3721.33 3671.9 3745.36 3654.46C3769.41 3637.05 3795.08 3622.01 3821.91 3609.59C3848.74 3597.17 3876.71 3587.39 3905.29 3580.36C3933.9 3573.34 3963.08 3569.08 3992.36 3567.65C4021.64 3566.22 4051 3567.59 4079.89 3571.71C4108.81 3575.84 4137.25 3582.74 4164.7 3592.31C4192.16 3601.87 4218.65 3614.08 4243.65 3628.67C4268.69 3643.3 4292.22 3660.3 4313.92 3679.29C4291.43 3661.25 4267.28 3645.36 4241.85 3631.98C4216.45 3618.57 4189.79 3607.68 4162.41 3599.47C4135.01 3591.24 4106.88 3585.7 4078.57 3582.89C4050.24 3580.07 4021.68 3579.99 3993.46 3582.63C3965.22 3585.25 3937.28 3590.59 3910.2 3598.5C3883.08 3606.41 3856.81 3616.9 3831.83 3629.82C3806.86 3642.74 3783.19 3658.01 3761.25 3675.39C3739.3 3692.77 3719.12 3712.25 3700.95 3733.43C3695.56 3739.72 3686.23 3740.15 3679.94 3734.76C3673.66 3729.37 3672.77 3720.2 3678.18 3713.9C3678.32 3713.74 3678.43 3713.6 3678.59 3713.46L3678.59 3713.41Z" fill="url(#paint46_linear_335_663)"/>
    <path d="M3498.33 3696.3C3520.02 3663.05 3544.84 3631.89 3572.36 3603.43C3599.91 3575 3630.12 3549.3 3662.48 3526.78C3694.83 3504.26 3729.3 3484.95 3765.2 3469.1C3801.13 3453.26 3838.47 3440.92 3876.59 3432.25C3914.7 3423.59 3953.57 3418.6 3992.46 3417.31C4031.39 3416.05 4070.33 3418.53 4108.59 3424.73C4146.86 3430.93 4184.47 3440.82 4220.67 3454.2C4256.95 3467.61 4291.77 3484.49 4324.66 3504.4C4290.95 3485.91 4255.56 3470.65 4219.08 3458.96C4182.62 3447.24 4145.09 3439.11 4107.24 3434.67C4069.36 3430.21 4031.14 3429.43 3993.32 3432.31C3955.46 3435.16 3917.94 3441.67 3881.5 3451.67C3845.02 3461.65 3809.57 3475.13 3775.85 3491.78C3742.07 3508.44 3710 3528.31 3680.19 3551.05C3650.39 3573.8 3622.85 3599.33 3598.06 3627.23C3573.27 3655.14 3551.27 3685.39 3532.33 3717.41C3526.7 3726.91 3514.55 3729.64 3505.05 3724.01C3495.55 3718.39 3492.26 3706.56 3497.91 3697.03C3498.05 3696.78 3498.17 3696.58 3498.34 3696.35L3498.33 3696.3Z" fill="url(#paint47_linear_335_663)"/>
    <path d="M3915.56 3256.7C3964.83 3250.76 4014.62 3249.49 4063.97 3252.97C4113.34 3256.51 4162.22 3264.79 4209.78 3277.68C4257.34 3290.57 4303.53 3308.06 4347.55 3329.7C4391.59 3351.38 4433.41 3377.21 4472.33 3406.75C4511.25 3436.29 4547.26 3469.49 4579.74 3505.7C4612.23 3541.96 4641.14 3581.24 4665.95 3622.86C4690.75 3664.49 4711.5 3708.45 4727.79 3753.86C4744.09 3799.38 4755.91 3846.28 4763.27 3893.78C4753.89 3846.64 4740.07 3800.49 4721.95 3756.16C4703.87 3711.83 4681.51 3669.37 4655.35 3629.55C4629.18 3589.69 4599.21 3552.48 4566.07 3518.57C4532.92 3484.61 4496.54 3453.91 4457.68 3427.05C4418.82 3400.14 4377.43 3377.03 4334.39 3358.12C4291.29 3339.16 4246.5 3324.41 4200.77 3314.15C4155.05 3303.88 4108.47 3298.03 4061.83 3296.71C4015.2 3295.39 3968.55 3298.64 3922.67 3306.22C3909.06 3308.47 3896.68 3299.02 3894.43 3285.41C3892.18 3271.79 3900.87 3259.14 3914.53 3256.88C3914.88 3256.82 3915.17 3256.77 3915.52 3256.76L3915.56 3256.7Z" fill="url(#paint48_linear_335_663)"/>
    <path d="M4516.24 3234.51C4566.11 3267.04 4612.85 3304.28 4655.54 3345.55C4698.19 3386.88 4736.73 3432.2 4770.51 3480.73C4804.29 3529.26 4833.26 3580.97 4857.04 3634.82C4880.79 3688.72 4899.31 3744.72 4912.3 3801.9C4925.3 3859.07 4932.79 3917.37 4934.72 3975.71C4936.62 4034.1 4932.9 4092.51 4923.59 4149.9C4914.29 4207.3 4899.45 4263.72 4879.39 4318.03C4859.27 4372.44 4833.96 4424.68 4804.09 4474.01C4831.83 4423.45 4854.72 4370.36 4872.25 4315.64C4889.83 4260.94 4902.03 4204.66 4908.69 4147.88C4915.38 4091.05 4916.53 4033.73 4912.22 3977C4907.95 3920.21 4898.18 3863.92 4883.18 3809.26C4868.21 3754.55 4847.99 3701.37 4823.02 3650.79C4798.02 3600.12 4768.22 3552.02 4734.1 3507.31C4699.99 3462.6 4661.69 3421.3 4619.84 3384.11C4577.98 3346.92 4532.6 3313.93 4484.57 3285.51C4470.32 3277.07 4466.23 3258.84 4474.66 3244.59C4483.1 3230.34 4500.84 3225.41 4515.15 3233.88C4515.51 3234.09 4515.82 3234.27 4516.15 3234.53L4516.24 3234.51Z" fill="url(#paint49_linear_335_663)"/>
    <path d="M3687.71 2992.62C3754.19 2972.45 3822.52 2958.6 3891.41 2951.4C3960.33 2944.27 4029.74 2943.81 4098.45 2950.02C4167.15 2956.23 4235.09 2969.12 4301.05 2988.24C4367.03 3007.43 4430.97 3032.88 4491.81 3064.14C4552.66 3095.41 4610.38 3132.43 4663.96 3174.46C4717.57 3216.55 4766.98 3263.67 4811.3 3315.03C4855.62 3366.39 4894.91 3421.96 4928.4 3480.62C4961.94 3539.4 4989.65 3601.2 5011.34 3664.89C4986.95 3602.18 4956.67 3541.91 4920.91 3485.21C4885.22 3428.47 4844.06 3375.37 4798.31 3326.84C4752.54 3278.24 4702.18 3234.22 4648.24 3195.52C4594.28 3156.76 4536.65 3123.28 4476.55 3095.69C4416.43 3068.04 4353.74 3046.24 4289.8 3030.62C4225.78 3014.97 4160.44 3005.52 4094.9 3002.49C4029.36 2999.45 3963.72 3002.71 3899.1 3012.22C3834.48 3021.74 3770.96 3037.56 3709.54 3059.16C3691.32 3065.58 3671.95 3055.56 3665.54 3037.34C3659.13 3019.11 3668.03 2999.56 3686.33 2993.12C3686.79 2992.96 3687.18 2992.81 3687.66 2992.71L3687.71 2992.62Z" fill="url(#paint50_linear_335_663)"/>
    <path d="M2823.83 3541.1C2856.37 3464.88 2896.11 3391.82 2942.36 3323.35C2988.69 3254.9 3041.49 3191.13 3099.84 3133.1C3158.19 3075.08 3222.06 3022.89 3290.11 2977.28C3358.24 2931.7 3430.52 2892.78 3505.74 2861.16C3580.96 2829.54 3659.05 2805.17 3738.54 2788.43C3818.11 2771.72 3899.05 2762.71 3979.97 2761.59C4060.88 2760.47 4141.79 2767.17 4221.06 2781.54C4300.49 2795.97 4378.21 2818.04 4453.05 2847.05C4377.04 2821.25 4298.75 2802.71 4219.51 2791.91C4140.3 2781.03 4060.22 2777.91 3980.79 2782.51C3901.29 2787.07 3822.45 2799.34 3745.74 2818.95C3668.94 2838.54 3594.16 2865.53 3522.87 2899.3C3451.5 2933.03 3383.51 2973.6 3320.22 3020.05C3256.82 3066.55 3198.09 3119.02 3145.06 3176.58C3092.04 3234.14 3044.68 3296.61 3003.83 3362.96C2962.98 3429.31 2928.73 3499.48 2901.38 3572.17C2893.26 3593.74 2869.27 3603.75 2847.7 3595.63C2826.13 3587.52 2815.09 3564.39 2823.23 3542.74C2823.43 3542.19 2823.6 3541.72 2823.88 3541.2L2823.83 3541.1Z" fill="url(#paint51_linear_335_663)"/>
    <path d="M4312.51 2658.98C4399.5 2679.25 4484.49 2707.77 4565.83 2744.04C4647.15 2780.41 4724.73 2824.52 4797.24 2875.59C4869.76 2926.67 4937.11 2984.7 4998.26 3048.4C5059.39 3112.18 5114.23 3181.62 5161.88 3255.54C5209.52 3329.47 5250 3407.8 5282.64 3489.04C5315.28 3570.38 5339.99 3654.61 5356.33 3740.28C5372.66 3825.96 5380.69 3913.1 5380.27 3999.94C5379.82 4086.95 5370.95 4173.58 5354.16 4258.44C5367.31 4172.94 5372.34 4086.36 5368.98 4000.23C5365.7 3914.11 5354.02 3828.52 5334.28 3745.08C5314.55 3661.54 5286.77 3580.15 5251.59 3502.39C5216.43 3424.54 5173.79 3350.22 5124.6 3280.87C5075.43 3211.42 5019.65 3146.85 4958.5 3088.36C4897.27 3029.77 4830.59 2977.25 4759.56 2931.73C4688.54 2886.22 4613.36 2847.65 4535.29 2816.7C4457.22 2785.75 4376.32 2762.53 4294.05 2747.11C4269.63 2742.53 4254.51 2718.94 4259.09 2694.52C4263.67 2670.11 4286.15 2654.06 4310.65 2658.65C4311.27 2658.76 4311.8 2658.86 4312.41 2659.05L4312.51 2658.98Z" fill="url(#paint52_linear_335_663)"/>
    <path d="M3936.87 2398.82C4041.02 2395.4 4145.4 2401.87 4248.02 2418.19C4350.64 2434.61 4451.38 2460.9 4548.52 2496.56C4645.66 2532.22 4739.09 2577.28 4827.23 2630.59C4915.38 2684.01 4998.14 2745.71 5074.16 2814.63C5150.17 2883.55 5219.44 2959.6 5280.76 3041.29C5342.09 3123.09 5395.38 3210.55 5439.66 3302.17C5483.93 3393.79 5519.29 3489.57 5545.04 3587.55C5570.82 3685.74 5586.97 3786.04 5593.67 3886.74C5582.68 3786.42 5562.21 3687.34 5532.41 3591.29C5502.71 3495.23 5463.7 3402.31 5416.26 3314.23C5368.81 3226.05 5312.93 3142.72 5249.8 3065.72C5186.66 2988.6 5116.17 2917.72 5039.8 2854.42C4963.42 2791.01 4881.06 2735.08 4794.49 2687.63C4707.8 2640.09 4616.79 2601.05 4523.01 2571.2C4429.23 2541.36 4332.87 2520.59 4235.54 2509.29C4138.21 2497.99 4040.04 2496.25 3942.67 2503.72C3913.77 2505.93 3889.61 2483.9 3887.39 2455.01C3885.18 2426.11 3905.67 2401.24 3934.67 2399.01C3935.4 2398.95 3936.03 2398.9 3936.77 2398.94L3936.87 2398.82Z" fill="url(#paint53_linear_335_663)"/>
    <path d="M3385.67 2277.15C3498.36 2238.61 3614.6 2210.8 3732.2 2194.34C3849.85 2178 3968.74 2173.07 4086.82 2179.59C4204.9 2186.11 4322.06 2204.13 4436.21 2232.95C4550.4 2261.88 4661.46 2301.65 4767.57 2351.58C4873.68 2401.5 4974.79 2461.47 5069.11 2530.27C5163.48 2599.18 5250.94 2676.96 5329.94 2762.3C5408.94 2847.64 5479.59 2940.49 5540.48 3038.97C5601.45 3137.68 5652.62 3241.9 5693.6 3349.72C5648.06 3243.74 5592.58 3142.3 5527.92 3047.29C5463.37 2952.22 5389.68 2863.7 5308.4 2783.29C5227.07 2702.78 5138.16 2630.37 5043.43 2567.3C4948.67 2504.13 4847.94 2450.21 4743.32 2406.54C4638.66 2362.76 4529.95 2329.16 4419.48 2306.23C4308.85 2283.24 4196.34 2270.97 4083.88 2269.69C3971.41 2268.41 3859.15 2277.91 3749.01 2298.08C3638.86 2318.25 3530.98 2349.15 3427.06 2389.85C3396.22 2401.92 3362.45 2385.93 3350.37 2355.08C3338.3 2324.24 3352.38 2290.21 3383.33 2278.09C3384.11 2277.78 3384.78 2277.51 3385.6 2277.3L3385.67 2277.15Z" fill="url(#paint54_linear_335_663)"/>
    <path d="M1959.58 3955.23C1966.78 3823.13 1986.51 3691.83 2018.5 3563.86C2050.63 3435.89 2095.01 3311.39 2150.87 3192.49C2206.72 3073.59 2274.04 2960.41 2351.22 2854.84C2428.53 2749.27 2515.71 2651.42 2611.29 2562.91C2706.86 2474.4 2810.7 2395.22 2920.81 2326.71C3031.05 2258.19 3147.55 2200.47 3268.32 2154.62C3389.09 2108.76 3514.13 2074.64 3640.89 2052.91C3767.93 2031.18 3896.56 2021.85 4024.67 2024.51C3896.56 2027.31 3769 2042.24 3644.23 2069.3C3519.46 2096.23 3397.62 2135.29 3280.98 2185.54C3164.21 2235.79 3052.64 2297.25 2948.27 2368.56C2843.76 2439.88 2746.32 2521.19 2657.81 2610.77C2569.16 2700.35 2489.32 2798.32 2419.73 2902.56C2350.02 3006.94 2290.57 3117.71 2242.44 3233.01C2194.32 3348.32 2157.4 3467.89 2132.34 3589.72C2107.28 3711.56 2094.21 3835.53 2092.88 3959.5C2092.48 3996.29 2061.96 4024.41 2025.16 4024.01C1988.37 4023.61 1959.18 3994.95 1959.58 3958.03C1959.58 3957.1 1959.58 3956.3 1959.71 3955.36L1959.58 3955.23Z" fill="url(#paint55_linear_335_663)"/>
    <path d="M2116.69 2836.05C2195.32 2715.52 2285.31 2602.56 2385.05 2499.41C2484.91 2396.33 2594.44 2303.19 2711.73 2221.55C2829.02 2139.92 2953.98 2069.92 3084.11 2012.44C3214.36 1955.04 3349.7 1910.28 3487.88 1878.88C3626.06 1847.49 3766.94 1829.37 3907.93 1824.71C4049.05 1820.12 4190.19 1829.12 4328.9 1851.6C4467.61 1874.09 4603.96 1909.95 4735.2 1958.43C4866.68 2007.05 4992.94 2068.23 5112.16 2140.41C4989.97 2073.37 4861.67 2018.06 4729.42 1975.69C4597.24 1933.19 4461.22 1903.72 4324.01 1887.62C4186.67 1871.46 4048.15 1868.66 3911.03 1879.08C3773.8 1889.42 3637.78 1913.02 3505.68 1949.27C3373.45 1985.44 3244.94 2034.31 3122.7 2094.66C3000.26 2155.07 2884 2227.09 2775.96 2309.54C2667.91 2391.98 2568.1 2484.54 2478.23 2585.69C2388.35 2686.83 2308.62 2796.51 2239.94 2912.57C2219.55 2947.01 2175.5 2956.9 2141.06 2936.51C2106.62 2916.13 2094.71 2873.25 2115.16 2838.69C2115.67 2837.81 2116.11 2837.05 2116.74 2836.25L2116.69 2836.05Z" fill="url(#paint56_linear_335_663)"/>
    <path d="M3254.47 1666.54C3406.43 1620.43 3562.62 1588.78 3720.09 1572.33C3877.62 1556.03 4036.27 1554.99 4193.31 1569.17C4350.35 1583.35 4505.63 1612.82 4656.4 1656.53C4807.21 1700.4 4953.36 1758.56 5092.43 1830.02C5231.5 1901.49 5363.44 1986.11 5485.92 2082.17C5608.46 2178.38 5721.39 2286.09 5822.69 2403.49C5923.98 2520.88 6013.81 2647.9 6090.35 2781.96C6167.01 2916.33 6230.34 3057.58 6279.93 3203.17C6224.18 3059.83 6154.97 2922.07 6073.23 2792.45C5991.64 2662.78 5897.57 2541.39 5793 2430.46C5688.38 2319.39 5573.27 2218.77 5449.98 2130.32C5326.64 2041.73 5194.92 1965.2 5057.55 1902.14C4920.13 1838.93 4776.84 1789.09 4630.7 1753.4C4484.35 1717.62 4335.01 1696.04 4185.2 1689.1C4035.39 1682.16 3885.37 1689.59 3737.66 1711.35C3589.95 1733.1 3444.76 1769.26 3304.39 1818.64C3262.72 1833.3 3218.47 1810.41 3203.82 1768.75C3189.16 1727.09 3209.51 1682.4 3251.32 1667.69C3252.37 1667.31 3253.27 1666.98 3254.38 1666.75L3254.47 1666.54Z" fill="url(#paint57_linear_335_663)"/>
    <path d="M4024.66 7024.01C5681.52 7024.01 7024.66 5680.87 7024.66 4024.01C7024.66 2367.16 5681.52 1024.01 4024.66 1024.01C2367.81 1024.01 1024.66 2367.16 1024.66 4024.01C1024.66 5680.87 2367.81 7024.01 4024.66 7024.01Z" fill="url(#paint58_radial_335_663)" fill-opacity="0.58"/>
    <defs>
    <radialGradient id="paint0_radial_335_663" cx="0" cy="0" r="1" gradientUnits="userSpaceOnUse" gradientTransform="translate(4024.66 4024.01) scale(3000)">
    <stop stop-color="#0DB3FA"/>
    <stop offset="1" stop-color="#3B2EE9"/>
    </radialGradient>
    <radialGradient id="paint1_radial_335_663" cx="0" cy="0" r="1" gradientUnits="userSpaceOnUse" gradientTransform="translate(4024.66 4024.01) scale(2000)">
    <stop stop-color="#0DB3FA"/>
    <stop offset="1" stop-color="#3B2EE9"/>
    </radialGradient>
    <radialGradient id="paint2_radial_335_663" cx="0" cy="0" r="1" gradientUnits="userSpaceOnUse" gradientTransform="translate(4024.66 4024.01) scale(1800)">
    <stop stop-color="#0DB3FA"/>
    <stop offset="1" stop-color="#3B2EE9"/>
    </radialGradient>
    <radialGradient id="paint3_radial_335_663" cx="0" cy="0" r="1" gradientUnits="userSpaceOnUse" gradientTransform="translate(4024.66 4024.01) scale(1700)">
    <stop stop-color="#0DB3FA"/>
    <stop offset="1" stop-color="#3B2EE9"/>
    </radialGradient>
    <radialGradient id="paint4_radial_335_663" cx="0" cy="0" r="1" gradientUnits="userSpaceOnUse" gradientTransform="translate(4024.66 4024.01) scale(1651)">
    <stop stop-color="#0DB3FA"/>
    <stop offset="1" stop-color="#3B2EE9"/>
    </radialGradient>
    <radialGradient id="paint5_radial_335_663" cx="0" cy="0" r="1" gradientUnits="userSpaceOnUse" gradientTransform="translate(4024.66 4024.01) scale(1450)">
    <stop stop-color="#0DB3FA"/>
    <stop offset="1" stop-color="#3B2EE9"/>
    </radialGradient>
    <radialGradient id="paint6_radial_335_663" cx="0" cy="0" r="1" gradientUnits="userSpaceOnUse" gradientTransform="translate(4024.66 4024.01) scale(1250)">
    <stop stop-color="#0DB3FA"/>
    <stop offset="1" stop-color="#3B2EE9"/>
    </radialGradient>
    <radialGradient id="paint7_radial_335_663" cx="0" cy="0" r="1" gradientUnits="userSpaceOnUse" gradientTransform="translate(4024.66 4024.01) scale(1175)">
    <stop stop-color="#0DB3FA"/>
    <stop offset="1" stop-color="#3B2EE9"/>
    </radialGradient>
    <radialGradient id="paint8_radial_335_663" cx="0" cy="0" r="1" gradientUnits="userSpaceOnUse" gradientTransform="translate(4024.66 4024.01) scale(900)">
    <stop stop-color="#0DB3FA"/>
    <stop offset="1" stop-color="#3B2EE9"/>
    </radialGradient>
    <radialGradient id="paint9_radial_335_663" cx="0" cy="0" r="1" gradientUnits="userSpaceOnUse" gradientTransform="translate(4024.66 4024.01) scale(750)">
    <stop stop-color="#0DB3FA"/>
    <stop offset="1" stop-color="#3B2EE9"/>
    </radialGradient>
    <radialGradient id="paint10_radial_335_663" cx="0" cy="0" r="1" gradientUnits="userSpaceOnUse" gradientTransform="translate(4024.66 4024.01) scale(500)">
    <stop stop-color="#0DB3FA"/>
    <stop offset="1" stop-color="#3B2EE9"/>
    </radialGradient>
    <radialGradient id="paint11_radial_335_663" cx="0" cy="0" r="1" gradientUnits="userSpaceOnUse" gradientTransform="translate(4024.66 4024.01) scale(380)">
    <stop stop-color="#0DB3FA"/>
    <stop offset="1" stop-color="#3B2EE9"/>
    </radialGradient>
    <radialGradient id="paint12_radial_335_663" cx="0" cy="0" r="1" gradientUnits="userSpaceOnUse" gradientTransform="translate(4024.66 4024.01) scale(250)">
    <stop stop-color="#0DB3FA"/>
    <stop offset="1" stop-color="#3B2EE9"/>
    </radialGradient>
    <linearGradient id="paint13_linear_335_663" x1="3940.09" y1="4054.8" x2="4003.71" y2="4229.58" gradientUnits="userSpaceOnUse">
    <stop stop-color="#2471F2"/>
    <stop offset="1" stop-color="#3B2EE9"/>
    </linearGradient>
    <linearGradient id="paint14_linear_335_663" x1="3973.36" y1="4164.97" x2="4264.67" y2="4270.99" gradientUnits="userSpaceOnUse">
    <stop stop-color="#2471F2"/>
    <stop offset="1" stop-color="#3B2EE9"/>
    </linearGradient>
    <linearGradient id="paint15_linear_335_663" x1="3881.03" y1="4144.54" x2="4130.11" y2="4441.38" gradientUnits="userSpaceOnUse">
    <stop stop-color="#2471F2"/>
    <stop offset="1" stop-color="#3B2EE9"/>
    </linearGradient>
    <linearGradient id="paint16_linear_335_663" x1="4063.74" y1="4245.6" x2="4521.67" y2="4164.85" gradientUnits="userSpaceOnUse">
    <stop stop-color="#2471F2"/>
    <stop offset="1" stop-color="#3B2EE9"/>
    </linearGradient>
    <linearGradient id="paint17_linear_335_663" x1="4127.27" y1="4305.92" x2="4709.88" y2="4093.87" gradientUnits="userSpaceOnUse">
    <stop stop-color="#2471F2"/>
    <stop offset="1" stop-color="#3B2EE9"/>
    </linearGradient>
    <linearGradient id="paint18_linear_335_663" x1="3837.17" y1="4348.77" x2="4508.33" y2="4736.27" gradientUnits="userSpaceOnUse">
    <stop stop-color="#2471F2"/>
    <stop offset="1" stop-color="#3B2EE9"/>
    </linearGradient>
    <linearGradient id="paint19_linear_335_663" x1="3601.8" y1="4177.92" x2="3919.88" y2="5051.84" gradientUnits="userSpaceOnUse">
    <stop stop-color="#2471F2"/>
    <stop offset="1" stop-color="#3B2EE9"/>
    </linearGradient>
    <linearGradient id="paint20_linear_335_663" x1="3845.1" y1="4517.35" x2="4864.67" y2="4888.44" gradientUnits="userSpaceOnUse">
    <stop stop-color="#2471F2"/>
    <stop offset="1" stop-color="#3B2EE9"/>
    </linearGradient>
    <linearGradient id="paint21_linear_335_663" x1="4337.79" y1="4566.36" x2="5458.64" y2="3919.24" gradientUnits="userSpaceOnUse">
    <stop stop-color="#2471F2"/>
    <stop offset="1" stop-color="#3B2EE9"/>
    </linearGradient>
    <linearGradient id="paint22_linear_335_663" x1="3507.58" y1="4457.9" x2="4404.27" y2="5526.53" gradientUnits="userSpaceOnUse">
    <stop stop-color="#2471F2"/>
    <stop offset="1" stop-color="#3B2EE9"/>
    </linearGradient>
    <linearGradient id="paint23_linear_335_663" x1="3572.97" y1="4669.1" x2="4906.14" y2="5602.59" gradientUnits="userSpaceOnUse">
    <stop stop-color="#2471F2"/>
    <stop offset="1" stop-color="#3B2EE9"/>
    </linearGradient>
    <linearGradient id="paint24_linear_335_663" x1="3746.55" y1="4879.97" x2="5515.51" y2="5454.74" gradientUnits="userSpaceOnUse">
    <stop stop-color="#2471F2"/>
    <stop offset="1" stop-color="#3B2EE9"/>
    </linearGradient>
    <linearGradient id="paint25_linear_335_663" x1="4790.52" y1="4666.64" x2="6118.61" y2="3083.88" gradientUnits="userSpaceOnUse">
    <stop stop-color="#2471F2"/>
    <stop offset="1" stop-color="#3B2EE9"/>
    </linearGradient>
    <linearGradient id="paint26_linear_335_663" x1="4396.61" y1="5045.93" x2="6508.57" y2="4277.24" gradientUnits="userSpaceOnUse">
    <stop stop-color="#2471F2"/>
    <stop offset="1" stop-color="#3B2EE9"/>
    </linearGradient>
    <linearGradient id="paint27_linear_335_663" x1="3614.24" y1="5151.65" x2="5944.68" y2="5999.86" gradientUnits="userSpaceOnUse">
    <stop stop-color="#2471F2"/>
    <stop offset="1" stop-color="#3B2EE9"/>
    </linearGradient>
    <linearGradient id="paint28_linear_335_663" x1="4024.67" y1="3934.01" x2="3838.67" y2="3934.01" gradientUnits="userSpaceOnUse">
    <stop stop-color="#2471F2"/>
    <stop offset="1" stop-color="#3B2EE9"/>
    </linearGradient>
    <linearGradient id="paint29_linear_335_663" x1="3909.76" y1="3927.6" x2="3710.49" y2="4165.07" gradientUnits="userSpaceOnUse">
    <stop stop-color="#2471F2"/>
    <stop offset="1" stop-color="#3B2EE9"/>
    </linearGradient>
    <linearGradient id="paint30_linear_335_663" x1="3960.54" y1="3847.82" x2="3596.41" y2="3980.35" gradientUnits="userSpaceOnUse">
    <stop stop-color="#2471F2"/>
    <stop offset="1" stop-color="#3B2EE9"/>
    </linearGradient>
    <linearGradient id="paint31_linear_335_663" x1="3803.08" y1="3984.94" x2="3722.34" y2="4442.88" gradientUnits="userSpaceOnUse">
    <stop stop-color="#2471F2"/>
    <stop offset="1" stop-color="#3B2EE9"/>
    </linearGradient>
    <linearGradient id="paint32_linear_335_663" x1="3724.67" y1="4024.01" x2="3724.67" y2="4644.01" gradientUnits="userSpaceOnUse">
    <stop stop-color="#2471F2"/>
    <stop offset="1" stop-color="#3B2EE9"/>
    </linearGradient>
    <linearGradient id="paint33_linear_335_663" x1="3783.62" y1="3736.75" x2="3189.94" y2="4234.91" gradientUnits="userSpaceOnUse">
    <stop stop-color="#2471F2"/>
    <stop offset="1" stop-color="#3B2EE9"/>
    </linearGradient>
    <linearGradient id="paint34_linear_335_663" x1="4024.67" y1="3574.01" x2="3094.67" y2="3574.01" gradientUnits="userSpaceOnUse">
    <stop stop-color="#2471F2"/>
    <stop offset="1" stop-color="#3B2EE9"/>
    </linearGradient>
    <linearGradient id="paint35_linear_335_663" x1="3622.49" y1="3686.55" x2="2925.07" y2="4517.71" gradientUnits="userSpaceOnUse">
    <stop stop-color="#2471F2"/>
    <stop offset="1" stop-color="#3B2EE9"/>
    </linearGradient>
    <linearGradient id="paint36_linear_335_663" x1="3407.93" y1="4132.76" x2="3632.67" y2="5407.35" gradientUnits="userSpaceOnUse">
    <stop stop-color="#2471F2"/>
    <stop offset="1" stop-color="#3B2EE9"/>
    </linearGradient>
    <linearGradient id="paint37_linear_335_663" x1="3793.8" y1="3389.72" x2="2482.93" y2="3866.84" gradientUnits="userSpaceOnUse">
    <stop stop-color="#2471F2"/>
    <stop offset="1" stop-color="#3B2EE9"/>
    </linearGradient>
    <linearGradient id="paint38_linear_335_663" x1="3572.97" y1="3378.93" x2="2239.8" y2="4312.43" gradientUnits="userSpaceOnUse">
    <stop stop-color="#2471F2"/>
    <stop offset="1" stop-color="#3B2EE9"/>
    </linearGradient>
    <linearGradient id="paint39_linear_335_663" x1="3315.46" y1="3469.92" x2="2170.33" y2="4935.62" gradientUnits="userSpaceOnUse">
    <stop stop-color="#2471F2"/>
    <stop offset="1" stop-color="#3B2EE9"/>
    </linearGradient>
    <linearGradient id="paint40_linear_335_663" x1="3158.86" y1="4523.89" x2="4191.93" y2="6313.23" gradientUnits="userSpaceOnUse">
    <stop stop-color="#2471F2"/>
    <stop offset="1" stop-color="#3B2EE9"/>
    </linearGradient>
    <linearGradient id="paint41_linear_335_663" x1="2937.17" y1="4024.01" x2="2937.17" y2="6271.51" gradientUnits="userSpaceOnUse">
    <stop stop-color="#2471F2"/>
    <stop offset="1" stop-color="#3B2EE9"/>
    </linearGradient>
    <linearGradient id="paint42_linear_335_663" x1="3105.41" y1="3252.67" x2="1511.3" y2="5152.46" gradientUnits="userSpaceOnUse">
    <stop stop-color="#2471F2"/>
    <stop offset="1" stop-color="#3B2EE9"/>
    </linearGradient>
    <linearGradient id="paint43_linear_335_663" x1="4102.61" y1="4069.01" x2="4195.61" y2="3907.93" gradientUnits="userSpaceOnUse">
    <stop stop-color="#2471F2"/>
    <stop offset="1" stop-color="#3B2EE9"/>
    </linearGradient>
    <linearGradient id="paint44_linear_335_663" x1="4165.62" y1="3972.71" x2="4059.59" y2="3681.41" gradientUnits="userSpaceOnUse">
    <stop stop-color="#2471F2"/>
    <stop offset="1" stop-color="#3B2EE9"/>
    </linearGradient>
    <linearGradient id="paint45_linear_335_663" x1="4209.32" y1="4056.57" x2="4276.6" y2="3674.96" gradientUnits="userSpaceOnUse">
    <stop stop-color="#2471F2"/>
    <stop offset="1" stop-color="#3B2EE9"/>
    </linearGradient>
    <linearGradient id="paint46_linear_335_663" x1="4169.29" y1="3851.65" x2="3813.08" y2="3552.76" gradientUnits="userSpaceOnUse">
    <stop stop-color="#2471F2"/>
    <stop offset="1" stop-color="#3B2EE9"/>
    </linearGradient>
    <linearGradient id="paint47_linear_335_663" x1="4174.66" y1="3764.21" x2="3637.73" y2="3454.21" gradientUnits="userSpaceOnUse">
    <stop stop-color="#2471F2"/>
    <stop offset="1" stop-color="#3B2EE9"/>
    </linearGradient>
    <linearGradient id="paint48_linear_335_663" x1="4393.97" y1="3958.9" x2="4259.39" y2="3195.67" gradientUnits="userSpaceOnUse">
    <stop stop-color="#2471F2"/>
    <stop offset="1" stop-color="#3B2EE9"/>
    </linearGradient>
    <linearGradient id="paint49_linear_335_663" x1="4414.38" y1="4249.01" x2="4879.38" y2="3443.61" gradientUnits="userSpaceOnUse">
    <stop stop-color="#2471F2"/>
    <stop offset="1" stop-color="#3B2EE9"/>
    </linearGradient>
    <linearGradient id="paint50_linear_335_663" x1="4518" y1="3844.45" x2="4146.91" y2="2824.89" gradientUnits="userSpaceOnUse">
    <stop stop-color="#2471F2"/>
    <stop offset="1" stop-color="#3B2EE9"/>
    </linearGradient>
    <linearGradient id="paint51_linear_335_663" x1="4238.86" y1="3435.53" x2="3022.66" y2="2992.87" gradientUnits="userSpaceOnUse">
    <stop stop-color="#2471F2"/>
    <stop offset="1" stop-color="#3B2EE9"/>
    </linearGradient>
    <linearGradient id="paint52_linear_335_663" x1="4689.41" y1="4141.23" x2="4931.65" y2="2767.42" gradientUnits="userSpaceOnUse">
    <stop stop-color="#2471F2"/>
    <stop offset="1" stop-color="#3B2EE9"/>
    </linearGradient>
    <linearGradient id="paint53_linear_335_663" x1="4809.17" y1="3955.38" x2="4667.32" y2="2334.07" gradientUnits="userSpaceOnUse">
    <stop stop-color="#2471F2"/>
    <stop offset="1" stop-color="#3B2EE9"/>
    </linearGradient>
    <linearGradient id="paint54_linear_335_663" x1="4859.13" y1="3686.87" x2="4162.36" y2="1962.31" gradientUnits="userSpaceOnUse">
    <stop stop-color="#2471F2"/>
    <stop offset="1" stop-color="#3B2EE9"/>
    </linearGradient>
    <linearGradient id="paint55_linear_335_663" x1="4024.67" y1="3024.26" x2="1958.52" y2="3024.26" gradientUnits="userSpaceOnUse">
    <stop stop-color="#2471F2"/>
    <stop offset="1" stop-color="#3B2EE9"/>
    </linearGradient>
    <linearGradient id="paint56_linear_335_663" x1="4568.41" y1="3082.21" x2="2622.02" y2="1958.46" gradientUnits="userSpaceOnUse">
    <stop stop-color="#2471F2"/>
    <stop offset="1" stop-color="#3B2EE9"/>
    </linearGradient>
    <linearGradient id="paint57_linear_335_663" x1="5152.3" y1="3613.59" x2="4304.09" y2="1283.15" gradientUnits="userSpaceOnUse">
    <stop stop-color="#2471F2"/>
    <stop offset="1" stop-color="#3B2EE9"/>
    </linearGradient>
    <radialGradient id="paint58_radial_335_663" cx="0" cy="0" r="1" gradientUnits="userSpaceOnUse" gradientTransform="translate(4024.66 4024.01) scale(3000)">
    <stop stop-color="#0DB3FA"/>
    <stop offset="1" stop-color="#3B2EE9"/>
    </radialGradient>
    </defs>
    </svg>