<svg viewBox="0 0 1916 169" fill="none" xmlns="http://www.w3.org/2000/svg">
    <path d="M0 104.885L63.8667 78.1376C127.733 51.7905 255.467 -2.30626 383.2 3.40395C510.933 8.71344 638.667 72.8281 766.4 94.1662C894.133 115.905 1021.87 93.8657 1149.6 62.1089C1277.33 29.7511 1405.07 -12.3242 1532.8 3.40395C1660.53 19.7331 1788.27 93.8657 1852.13 131.633L1916 169H1852.13C1788.27 169 1660.53 169 1532.8 169C1405.07 169 1277.33 169 1149.6 169C1021.87 169 894.133 169 766.4 169C638.667 169 510.933 169 383.2 169C255.467 169 127.733 169 63.8667 169H0V104.885Z" fill="#050505"/>
</svg>