<svg width="36" height="45" viewBox="0 0 36 45" fill="none" xmlns="http://www.w3.org/2000/svg">
    <g clip-path="url(#clip0_277_947)">
        <path d="M8.35685 43.0979C7.54085 42.9729 7.14425 44.4835 6.15722 44.496C5.54933 44.496 5.38415 44.3068 5.38415 43.6105C5.38415 42.9928 5.6891 41.2147 5.91566 40.5114C6.07832 40.0065 5.98571 39.8567 5.64315 40.0706C5.27239 40.3022 3.86534 40.2397 3.258 39.9647C2.97012 39.8343 2.588 39.6976 2.40884 39.6608C1.96977 39.5706 0.889126 38.8429 0.648212 38.4752C0.0703492 37.5931 -0.139783 34.9792 0.093435 31.5742C0.384591 22.7854 1.30867 18.4458 2.05887 9.84457C2.15572 7.52053 2.35892 4.19235 3.34357 2.47638C4.01814 1.23717 5.56419 0.687741 5.69805 0.375766C6.42911 -0.251355 8.54286 0.0685147 9.72699 0.190032C16.942 0.708724 23.3797 -0.089589 29.3256 0.344853C30.1154 0.455716 30.953 0.543429 31.6101 0.564884C32.8567 0.603936 32.9787 0.631462 33.3209 0.951193C33.5236 1.14054 33.6894 1.4155 33.6894 1.56222C34.1089 2.25095 34.4075 1.90962 34.8683 2.57868C35.9151 3.86506 35.6903 4.80567 35.8813 4.93719C36.0496 5.04123 36.0348 6.46177 35.863 6.69709C35.5174 7.84971 35.4104 9.0532 35.2505 10.2404C34.5898 18.2495 34.0642 25.2237 34.1748 32.4814C34.1218 32.5209 34.0506 34.0975 34.0165 35.9848C33.9824 37.8722 33.9141 39.5268 33.8648 39.6617C33.8154 39.7967 33.6071 40.155 33.4018 40.458C33.0328 41.0027 33.0201 41.0088 32.2927 40.9937C24.5742 41.0727 17.263 40.7409 10.9382 40.571C10.872 42.6361 10.8194 43.2753 10.6603 43.9462C10.2871 46.0864 8.45728 44.5347 8.35685 43.0979ZM8.61885 41.0261C9.08694 41.0537 9.15764 41.1001 9.22203 41.422C9.37424 42.1833 9.50209 41.8704 9.51016 40.7169C9.43332 39.2503 9.91993 38.0359 10.0603 36.6107L10.1017 36.1583L9.00309 36.0827C8.39886 36.0411 7.82648 35.9829 7.73114 35.9534C7.55846 37.4899 6.98809 40.2238 6.93668 41.9107L6.93542 42.3631C7.44918 41.7454 7.86512 40.9865 8.61885 41.0261ZM31.7507 39.4269C31.81 39.1633 30.5787 39.2471 29.1499 39.266C27.3361 39.29 26.2065 39.0446 26.2707 39.4121C26.231 39.7499 27.1816 39.5263 29.1237 39.6027C31.1256 39.6814 31.6928 39.6841 31.7507 39.4269ZM32.6554 39.4546C32.6554 39.3836 32.5972 39.3254 32.5261 39.3254C32.4551 39.3254 32.3969 39.3836 32.3969 39.4546C32.3969 39.5257 32.4551 39.5839 32.5261 39.5839C32.5972 39.5839 32.6554 39.5257 32.6554 39.4546ZM25.3139 39.34C25.3013 39.2184 16.5115 39.047 14.8192 38.999C14.215 38.9818 13.1972 38.9347 12.5574 38.8943C11.3392 38.8173 10.7334 38.9186 11.0796 39.1415C11.264 39.2601 24.4684 39.592 25.0231 39.5016C25.183 39.4755 25.3428 39.6196 25.3139 39.34ZM6.06087 38.9757C6.06087 38.9088 6.03266 38.5585 5.96157 38.5146C5.89049 38.4706 4.88093 38.2151 4.86397 38.6362C4.85188 38.9365 5.31148 39.0174 5.38256 39.0174C5.45365 39.0174 6.06087 39.0426 6.06087 38.9757ZM3.77382 38.3917C3.77382 38.3211 3.58278 38.2202 3.43469 38.1307C2.0494 36.6738 2.15617 33.629 3.41888 32.3504L3.84993 31.8925C4.22392 31.5144 21.4806 32.323 29.198 32.8165L30.1996 32.8878L30.2052 32.3902C30.2083 32.1165 30.267 30.9327 30.3359 29.7596C30.5456 25.9035 30.6225 21.944 30.7918 18.1903C30.9808 15.0173 31.2074 12.2042 31.3579 9.77328C31.4287 8.62768 31.5133 7.60971 31.546 7.51113C31.5786 7.41256 31.6379 6.79539 31.6776 6.13965C31.7817 4.42175 31.8818 3.2373 31.9503 2.91244C32.0271 2.54852 31.9437 2.50487 31.0233 2.42786C30.6031 2.39269 28.9518 2.24254 27.3537 2.09417C20.0327 1.59086 13.5877 2.06852 7.43165 1.61053C6.43058 1.52031 6.37588 1.78913 5.6737 2.38189C4.47036 3.39769 3.95887 5.3971 3.84733 9.52146C3.28452 22.4965 1.19961 28.5862 2.03125 36.4532C2.03736 38.033 3.4976 39.35 3.77382 38.3917ZM3.53669 29.4042C4.4418 21.309 5.05045 10.7891 5.97288 3.43731C6.15645 2.95442 6.6716 2.77987 7.09472 3.05716C7.60946 3.52372 7.23322 4.63345 7.20164 5.42535C5.56137 13.2711 5.36451 18.8634 4.80031 26.2048C4.43961 30.1822 4.36625 30.5352 3.90067 30.5352C3.62937 30.5352 3.60721 30.4663 3.53669 29.4042ZM30.7374 37.9018C30.8753 37.8877 30.7401 37.4161 30.5971 37.3277C30.5313 37.2871 29.9061 37.3199 29.2077 37.4005C24.3009 37.5846 20.6411 37.4268 16.4671 37.3969C15.5003 37.4195 11.2343 36.8695 11.2023 37.4187C11.1407 37.815 11.7863 37.7005 12.5505 37.7107C18.5004 37.8143 25.2434 38.3313 30.7374 37.9019V37.9018ZM32.6404 36.126C32.5541 30.6477 32.9196 24.0682 33.1117 19.2244C33.5615 13.825 34.3426 8.78066 33.996 4.21296C33.8061 3.76074 33.7759 3.73873 33.6839 3.9849C33.6278 4.13476 33.5452 5.00731 33.5003 5.9239C33.4554 6.84048 33.3627 8.31755 33.2942 9.20626C32.7175 15.7897 32.6156 21.168 32.2481 27.5621C32.171 28.8774 32.0989 30.8942 32.0879 32.0438C32.0705 33.8547 32.0369 34.1683 31.836 34.3902C31.101 35.1742 31.5822 37.8835 32.4442 37.9034C32.6209 37.9034 32.6473 37.6634 32.6403 36.126H32.6404ZM6.47855 37.1729C6.47952 36.7888 5.94218 36.9428 5.66189 36.88C5.18391 36.7728 4.83346 36.9278 4.85062 37.3368C4.89454 37.6921 6.57006 38.1946 6.47855 37.1729ZM3.96551 35.8029C3.96716 35.1452 4.01924 34.389 4.08115 34.1224C4.1795 33.6988 4.16408 33.6376 3.95884 33.6376C3.65243 33.6376 3.40541 34.3787 3.39869 35.3181C3.39336 36.0648 3.64037 36.9986 3.84321 36.9986C3.90879 36.9986 3.96382 36.4605 3.96551 35.8029ZM30.382 36.5127C30.2886 36.2454 23.1625 36.4619 23.0162 36.4619C22.8698 36.4619 11.6966 35.8508 11.6264 36.209C11.5357 36.6723 17.7179 36.7631 23.4071 36.9755C31.0561 37.261 30.5931 36.8781 30.382 36.5127ZM6.41813 36.1583C6.41813 35.8528 6.37936 35.8352 5.70728 35.8352C5.16156 35.8352 4.9964 35.8802 4.9964 36.0291C4.9964 36.1723 5.14635 36.223 5.5704 36.223C6.1432 36.1885 6.46437 36.4448 6.41813 36.1583ZM13.4462 35.2476C13.7584 35.0546 13.3924 34.9872 12.5124 35.0756C12.0106 35.126 11.6 35.2233 11.6 35.2918C11.6 35.4319 13.2104 35.3934 13.4462 35.2476ZM16.9961 35.1464C16.9961 35.1464 17.8121 35.329 17.9331 35.0064C17.9331 34.888 17.2388 34.8463 13.9587 35.0009C13.7989 35.0084 13.6679 35.0687 13.6679 35.1381C13.6679 35.2151 14.1336 35.2424 14.8635 35.208C15.521 35.1771 16.4807 35.1494 16.9961 35.1465V35.1464ZM30.2923 35.493C30.3195 35.4111 30.2085 35.3419 30.0445 35.3385C28.2834 35.3018 27.8244 35.2968 27.1042 35.3067C25.9902 35.3219 26.2328 35.5505 27.4209 35.605C29.1875 35.686 30.2417 35.6449 30.2923 35.493ZM26.1284 35.4474C26.176 35.3703 26.0195 35.3181 25.7406 35.3181C25.4618 35.3181 25.3053 35.3703 25.3529 35.4474C25.3968 35.5185 25.5713 35.5766 25.7406 35.5766C25.91 35.5766 26.0845 35.5185 26.1284 35.4474ZM5.64265 34.8677C5.64265 34.7773 5.56029 34.6351 5.45964 34.5515C5.31352 34.4302 5.25975 34.4529 5.19281 34.6638C5.14669 34.8091 5.14366 34.9841 5.18601 35.0528C5.28878 35.2191 5.6426 35.0756 5.6426 34.8677H5.64265ZM7.7106 34.5425C7.7106 34.4714 7.62336 34.4132 7.51673 34.4132C7.4101 34.4132 7.32286 34.4714 7.32286 34.5425C7.32286 34.6136 7.4101 34.6718 7.51673 34.6718C7.62336 34.6718 7.7106 34.6136 7.7106 34.5425ZM9.26157 33.551C9.68964 33.4778 9.69659 33.4687 9.39084 33.3822C9.21312 33.332 8.40088 33.2849 7.58586 33.2776C6.19971 33.2652 5.77189 33.3528 5.77189 33.6491C5.77189 33.7624 8.46939 33.6867 9.26157 33.551Z" fill="white"/>
    </g>
    <defs>
        <clipPath id="clip0_277_947">
            <rect width="36" height="45" fill="white"/>
        </clipPath>
    </defs>
</svg>