<svg width="34" height="42" viewBox="0 0 34 42" fill="none" xmlns="http://www.w3.org/2000/svg">
    <path d="M6.21631 26.7549C6.21631 27.4421 6.78529 28.0078 7.47664 28.0078H26.3266C27.0179 28.0078 27.5869 27.4421 27.5869 26.7549C27.5869 26.0676 27.0179 25.502 26.3266 25.502H7.47664C6.77918 25.502 6.21631 26.0676 6.21631 26.7549ZM26.3266 31.8456H7.47664C6.78529 31.8456 6.21631 32.4112 6.21631 33.0985C6.21631 33.7858 6.78529 34.3514 7.47664 34.3514H26.3266C27.0179 34.3514 27.5869 33.7858 27.5869 33.0985C27.5869 32.4112 27.0179 31.8456 26.3266 31.8456Z" fill="white"/>
    <path d="M21.3094 0H2.52067C1.13185 0 0 1.12519 0 2.50583V38.6092C0 39.9899 1.13185 41.1151 2.52067 41.1151H31.1474C32.5362 41.1151 33.6681 39.9899 33.6681 38.6092V12.2859L21.3094 0ZM22.9491 5.17588L28.7552 10.9478H23.3835C23.151 10.9478 22.9491 10.7471 22.9491 10.516V5.17588ZM31.1413 38.6032C31.1413 38.6032 31.1413 38.6092 31.1413 38.6032L2.52067 38.6092C2.52067 38.6092 2.51455 38.6092 2.51455 38.6032V2.51191C2.51455 2.51191 2.51455 2.50583 2.52067 2.50583H20.3244L20.4223 2.60314V10.5099C20.4223 12.1277 21.7561 13.4475 23.3774 13.4475H31.1413V38.6032Z" fill="white"/>
    <path d="M11.8633 13.2351C14.0842 13.2351 15.8829 11.4469 15.8829 9.23911C15.8829 7.0313 14.0842 5.24316 11.8633 5.24316C9.64246 5.24316 7.83761 7.02522 7.83761 9.23911C7.83761 11.4469 9.63634 13.2351 11.8633 13.2351ZM11.8633 7.43272C12.8667 7.43272 13.6804 8.24164 13.6804 9.23911C13.6804 10.2366 12.8667 11.0455 11.8633 11.0455C10.86 11.0455 10.0463 10.2366 10.0463 9.23911C10.0463 8.24164 10.86 7.43272 11.8633 7.43272ZM7.47664 20.1261C8.17411 20.1261 8.73698 19.5665 8.73698 18.8732C8.73698 17.5169 10.1686 16.3673 11.8633 16.3673C13.5581 16.3673 14.9897 17.5108 14.9897 18.8732C14.9897 19.5665 15.5526 20.1261 16.25 20.1261C16.9475 20.1261 17.5104 19.5665 17.5104 18.8732C17.5104 16.1119 14.9775 13.8615 11.8633 13.8615C8.74921 13.8615 6.21631 16.1119 6.21631 18.8732C6.21631 19.5665 6.77918 20.1261 7.47664 20.1261Z" fill="white"/>
</svg>
