<svg width="50" height="50" viewBox="0 0 50 50" fill="none" xmlns="http://www.w3.org/2000/svg">
    <g clip-path="url(#clip0_0_1)">
        <path d="M11.182 34.1248C11.1593 32.2122 10.9051 30.4838 11.0385 28.6316C11.0944 25.2965 10.7798 20.6091 11.4118 16.598C11.6839 14.8662 14.0859 15.0618 24.2246 15.0115C35.3662 14.9563 36.4699 15.0581 37.8206 16.2675C38.5898 16.9561 38.8829 17.5155 39 18.5182C38.9742 24.6611 38.9841 28.708 38.5492 33.7778C38.4339 36.7775 30.9587 35.7873 26.8561 35.811C13.4787 35.8886 10.9774 36.725 11.182 34.1248ZM35.6306 32.4982C36.7897 28.0828 35.997 23.0938 36.6188 19.149C36.5545 19.0833 36.1183 19.3922 35.6496 19.8352C32.5386 22.6699 31.3802 24.1904 28.2426 26.1445C27.5627 26.5692 26.6893 26.9227 26.3016 26.9303C21.7533 25.894 16.7467 20.4438 13.7155 17.7382C13.8535 21.2913 13.5675 24.5577 13.4201 27.5095C13.1708 32.5047 13.3434 33.3334 15.3032 33.2069C21.3431 33.2963 35.2183 34.0692 35.6306 32.4982ZM28.1614 23.4975C29.8825 22.3844 34.918 17.4784 34.7031 17.1239C34.6192 16.9857 31.1147 16.8736 26.9152 16.8747C23.78 17.1044 20.5631 16.6052 17.4441 16.8152C16.7276 16.8669 16.5655 16.697 20.8335 20.3697C23.9313 23.0352 25.8267 24.4226 26.3708 24.4226C26.5688 24.4226 27.3746 24.0062 28.1614 23.4975Z" fill="white"/>
    </g>
    <circle cx="25" cy="25" r="23.5" stroke="white" stroke-width="3"/>
    <defs>
        <clipPath id="clip0_0_1">
            <rect width="28" height="21" fill="white" transform="translate(11 15)"/>
        </clipPath>
    </defs>
</svg>