<svg width="41" height="38" viewBox="0 0 41 38" fill="none" xmlns="http://www.w3.org/2000/svg">
    <g clip-path="url(#clip0_277_913)">
        <path d="M40.8521 21.7384C38.3521 31.1897 34.8521 39.2232 22.3521 38.2781C14.8759 37.7128 16.9981 38.5438 13.8521 37.333C7.7797 34.9958 1.84013 28.5867 0.852051 21.7384C0.852051 11.2989 9.80636 2.83594 20.8521 2.83594C31.8977 2.83594 40.8521 11.2989 40.8521 21.7384Z" fill="#FBFBFB"/>
        <path d="M19.3996 0.00189257C14.3536 0.0575413 8.10089 2.87281 5.10026 7.03522C-0.900798 15.3601 -0.174706 27.3512 4.96621 31.7564C8.85527 35.089 15.1264 39.436 15.0665 37.1834C15.2045 36.5257 15.5435 34.9877 15.5886 34.1475C15.5886 33.3153 15.5687 33.4564 14.402 33.278C12.5893 33.001 10.9119 32.019 10.2451 30.2058C9.06584 27.0006 8.60613 26.8443 7.44105 26.5576C5.19848 26.0059 3.70467 24.4823 7.52185 23.9191C9.81634 23.6793 12.1885 26.053 13.3278 27.1804C14.6963 28.8956 15.8544 28.7192 16.4294 28.3267C18.5602 26.8724 18.1241 25.8954 16.9883 25.8954C13.6324 25.6635 9.48777 22.6269 9.6569 18.6773C9.6569 16.3652 10.1713 14.498 11.2509 13.0991C11.9458 12.199 11.6914 10.3087 11.6914 8.67646C11.6914 4.22511 14.5607 3.50703 17.7184 8.26414C18.2233 9.02466 18.2857 9.23458 18.8713 9.03669C19.2638 8.90409 20.8865 8.73409 22.477 8.65874L25.3691 8.52165L26.2885 7.26663C27.3929 5.75866 28.625 4.59663 29.4987 4.6278C29.6235 4.63228 29.7411 4.66115 29.8498 4.71678C30.7243 5.16421 32.0511 8.25932 31.9978 10.5883C31.969 11.8515 32.0209 11.6867 32.5866 12.0412C34.4427 13.2035 34.8185 18.591 33.4577 21.2693C31.8752 24.3841 28.5838 24.8558 26.9886 25.2993C24.8832 25.8847 25.4561 26.6733 25.9791 26.9159C28.923 28.2817 29.5338 33.3854 29.7365 37.0653C29.776 39.4578 36.5413 34.3424 38.7488 29.7563C41.9879 23.0271 42.3042 7.73493 33.7427 3.32392C29.4621 1.11842 24.4458 -0.0537358 19.3996 0.00189257V0.00189257ZM6.75876 24.4593C6.54101 24.476 6.07877 24.5806 6.04158 24.9729C6.00343 25.3775 6.3527 25.5747 6.56793 25.6112C7.28646 25.7334 7.54143 25.175 7.54143 24.9662C7.54143 24.7575 7.43583 24.4076 6.75876 24.4593V24.4593ZM8.17839 25.1208C8.17839 25.3475 8.14894 25.707 8.54956 25.8806C8.7121 25.951 9.41822 25.9036 9.53427 25.5223C9.65012 25.1411 9.65614 24.7414 8.90991 24.6397C8.64334 24.6033 8.17683 24.895 8.17839 25.1208V25.1208ZM10.0486 25.9878C9.67086 26.3304 9.96899 27.0503 10.2859 27.2235C10.5678 27.3777 11.1872 27.5881 11.5837 26.9514C11.9431 26.3743 11.5149 25.9322 10.8663 25.7572C10.637 25.6952 10.1924 25.8575 10.0486 25.9878V25.9878ZM12.6044 27.6752C12.421 27.6586 11.8863 27.7272 11.7368 27.7961C11.0734 28.1017 11.3111 28.6845 11.8342 29.019C12.7335 29.5941 13.4574 29.2104 13.3834 28.3282C13.3528 27.9618 12.901 27.7023 12.6044 27.6752V27.6752ZM13.7352 29.8291C13.5686 30.2068 13.9636 30.5804 14.2145 30.7522C14.4232 30.8951 15.0142 31.0529 15.3075 30.75C15.9464 30.0902 15.6376 29.5026 15.1184 29.285C14.199 28.8998 13.8288 29.6171 13.7352 29.829V29.8291Z" fill="#050505"/>
    </g>
    <defs>
        <clipPath id="clip0_277_913">
            <rect width="40" height="37.805" fill="white" transform="translate(0.852051)"/>
        </clipPath>
    </defs>
</svg>