<svg width="28" height="30" viewBox="0 0 28 30" fill="none" xmlns="http://www.w3.org/2000/svg">
<path d="M3.5 26.5714H8.75V16.2857H19.25V26.5714H24.5V11.1429L14 3.42857L3.5 11.1429V26.5714ZM3.5 30C2.5375 30 1.71383 29.6646 1.029 28.9937C0.343 28.3217 0 27.5143 0 26.5714V11.1429C0 10.6 0.12425 10.0857 0.37275 9.6C0.620083 9.11429 0.9625 8.71428 1.4 8.4L11.9 0.685714C12.2208 0.457143 12.5562 0.285714 12.9062 0.171428C13.2563 0.0571427 13.6208 0 14 0C14.3792 0 14.7437 0.0571427 15.0938 0.171428C15.4438 0.285714 15.7792 0.457143 16.1 0.685714L26.6 8.4C27.0375 8.71428 27.3805 9.11429 27.629 9.6C27.8763 10.0857 28 10.6 28 11.1429V26.5714C28 27.5143 27.6576 28.3217 26.9727 28.9937C26.2868 29.6646 25.4625 30 24.5 30H15.75V19.7143H12.25V30H3.5Z" fill="black"/>
</svg>
