 <svg width="42" height="38" viewBox="0 0 42 38" fill="none" xmlns="http://www.w3.org/2000/svg">
    <path d="M4.40855 1.73633H37.9988C39.1449 1.73633 40.0676 2.60717 40.0676 3.68889V34.8501C40.0676 35.9318 39.1449 36.8026 37.9988 36.8026H4.40855C3.26244 36.8026 2.33984 35.9318 2.33984 34.8501V3.68889C2.33984 2.60717 3.26244 1.73633 4.40855 1.73633Z" fill="#FBFBFB"/>
    <path d="M0.852051 35.4395L0.972602 4.49704C0.3815 0.164771 3.46441 -0.085406 6.33274 0.016249C9.04436 0.359181 30.8142 0.436167 37.144 0.00855321C41.395 0.57783 42.1241 3.34189 41.7759 6.87997C41.3949 10.6597 41.5546 27.7409 41.5064 30.947C41.4503 36.9685 42.0414 37.4433 36.3981 37.7148C25.4578 38.4982 13.7895 37.3493 3.7123 37.9847C1.25173 37.8234 1.00045 36.6548 0.852051 35.4393V35.4395ZM36.8691 35.0095C38.9272 35.1627 38.6815 34.7944 39.0736 28.2351C38.7239 21.2356 38.971 13.9555 39.2525 5.05809C39.2766 3.58322 39.1116 2.8703 37.1089 2.67213C35.848 2.54738 15.3495 2.58727 6.67214 2.6638C3.54959 2.56207 4.046 2.29447 3.67217 5.08607C3.28636 7.97138 3.96824 24.8907 3.64016 33.5204C3.60822 34.4538 3.76773 35.4648 5.56183 35.2995C16.2672 35.2063 26.2249 35.3598 36.8691 35.0095ZM29.5957 30.8992C28.5764 30.6575 28.3276 29.7086 28.3415 28.1863C28.3481 27.2212 29.1179 21.56 28.9798 20.432C28.1232 18.0238 25.6535 19.2927 25.5725 21.6664L24.3191 30.2797C21.8304 31.0083 19.279 30.5326 16.7091 30.7381C16.2446 30.5701 15.9758 29.0824 16.3929 22.0788L16.9248 13.1239C18.893 12.4718 21.1598 11.9136 22.4478 13.0958C23.0494 13.6686 22.694 13.79 25.2422 12.8186C28.8033 11.0616 32.7847 12.9668 34.0353 15.6535C35.7163 19.5896 36.3059 29.9335 34.9654 30.4189C32.9564 30.6303 32.2842 31.1092 29.5957 30.8994V30.8992ZM22.6042 28.5656C22.9588 25.6873 23.0108 20.0561 25.8341 17.4019C26.9602 16.1678 28.9067 16.8186 29.951 17.617C31.281 18.6331 31.0114 21.135 30.7715 25.0487C30.6672 26.7449 30.47 28.1929 30.5999 28.3908C30.8623 28.7918 32.3372 29.1946 33.1208 28.6122C34.1394 27.8549 33.5979 19.601 32.2681 16.596C30.032 12.6152 24.9846 14.0811 23.3188 16.6626C22.1236 18.004 20.9943 18.8455 21.0778 17.1135C21.102 16.2019 21.1339 15.7044 21.2856 15.1352C21.2856 15.1352 19.9757 14.2581 19.1232 14.7292C18.6637 15.2754 18.0284 28.204 18.4286 28.8159C20.2662 29.0758 21.5182 28.7818 22.6042 28.5655V28.5656ZM7.30885 30.1165C6.98893 27.8715 6.99515 28.5843 7.2229 23.6521C7.4089 19.6265 7.29509 16.5666 7.70885 13.9262C7.77306 13.3121 9.50006 13.2101 11.2118 13.2531C12.9241 13.2962 14.6203 13.484 14.5972 14.2077L14.4287 19.3744C14.5987 22.3524 13.3357 25.4863 13.8592 28.4097C14.3695 29.7109 13.4847 30.2696 10.4994 30.5328C8.59133 30.5979 7.72743 30.6387 7.30885 30.1165ZM11.49 27.4942C11.49 27.4942 12.608 16.8411 12.3041 15.6421C12.0963 14.8206 10.6632 15.1898 9.87227 15.5899C9.27884 15.8894 9.49201 22.1548 9.34993 26.2457C9.26742 28.6252 10.5355 28.2033 11.49 27.4945V27.4942ZM7.39236 6.16381C8.15415 5.26162 9.84911 4.08441 12.4799 4.75754C14.2091 5.2 15.1057 6.34406 15.1057 8.25701C15.1057 10.7743 13.6356 11.5429 11.0264 11.5429C8.06194 11.7415 5.75131 8.26994 7.39236 6.16381ZM13.0781 8.25027C13.1022 7.26004 12.6025 6.19773 11.0528 6.23444C9.81366 6.23444 8.84157 7.14095 8.84157 7.91151C8.84157 8.64558 9.96352 10.1689 10.9294 10.1597C13.2017 10.1386 13.0596 8.9593 13.0781 8.25027Z" fill="#050505"/>
</svg>