<svg width="214" height="33" viewBox="0 0 214 33" fill="none" xmlns="http://www.w3.org/2000/svg">
<path d="M14.1694 26.48C12.2994 26.48 10.5444 26.15 8.90441 25.49C7.26441 24.83 5.81941 23.915 4.56941 22.745C3.31941 21.565 2.34441 20.2 1.64441 18.65C0.944414 17.1 0.594414 15.435 0.594414 13.655C0.594414 11.865 0.944414 10.195 1.64441 8.645C2.35441 7.085 3.32941 5.72 4.56941 4.55C5.81941 3.37 7.25941 2.45 8.88941 1.79C10.5294 1.13 12.2794 0.799999 14.1394 0.799999C15.6594 0.799999 17.1044 1.015 18.4744 1.445C19.8544 1.875 21.0344 2.44 22.0144 3.14L19.9144 7.265C19.2444 6.735 18.4294 6.32 17.4694 6.02C16.5094 5.72 15.5044 5.57 14.4544 5.57C13.2244 5.57 12.0844 5.775 11.0344 6.185C9.99441 6.595 9.08441 7.165 8.30441 7.895C7.53441 8.625 6.93441 9.48 6.50441 10.46C6.07441 11.44 5.85941 12.5 5.85941 13.64C5.85941 14.78 6.07441 15.84 6.50441 16.82C6.93441 17.8 7.53441 18.655 8.30441 19.385C9.08441 20.115 9.99441 20.685 11.0344 21.095C12.0844 21.505 13.2244 21.71 14.4544 21.71C15.5044 21.71 16.5094 21.56 17.4694 21.26C18.4294 20.96 19.2444 20.545 19.9144 20.015L22.0144 24.14C21.0744 24.82 19.9194 25.38 18.5494 25.82C17.1794 26.26 15.7194 26.48 14.1694 26.48ZM25.3039 26V10.64H29.9089V12.845C30.4789 11.985 31.1739 11.325 31.9939 10.865C32.8239 10.395 33.7139 10.16 34.6639 10.16C35.2039 10.16 35.7639 10.24 36.3439 10.4C36.9239 10.56 37.4089 10.765 37.7989 11.015L35.8789 14.9C35.5389 14.67 35.1389 14.49 34.6789 14.36C34.2289 14.22 33.8089 14.15 33.4189 14.15C32.8189 14.15 32.2489 14.305 31.7089 14.615C31.1689 14.925 30.7339 15.33 30.4039 15.83C30.0739 16.32 29.9089 16.85 29.9089 17.42V26H25.3039ZM40.3475 26V10.64H44.9525V26H40.3475ZM42.6575 7.445C42.1575 7.445 41.6975 7.325 41.2775 7.085C40.8675 6.835 40.5375 6.5 40.2875 6.08C40.0375 5.66 39.9125 5.2 39.9125 4.7C39.9125 4.2 40.0375 3.745 40.2875 3.335C40.5375 2.925 40.8675 2.6 41.2775 2.36C41.6975 2.11 42.1575 1.985 42.6575 1.985C43.1575 1.985 43.6125 2.11 44.0225 2.36C44.4325 2.6 44.7575 2.925 44.9975 3.335C45.2475 3.745 45.3725 4.2 45.3725 4.7C45.3725 5.2 45.2475 5.66 44.9975 6.08C44.7575 6.5 44.4325 6.835 44.0225 7.085C43.6125 7.325 43.1575 7.445 42.6575 7.445ZM54.732 26.48C53.432 26.48 52.267 26.275 51.237 25.865C50.217 25.455 49.367 24.855 48.687 24.065L50.622 20.975C51.262 21.655 51.932 22.175 52.632 22.535C53.332 22.895 54.032 23.075 54.732 23.075C55.122 23.075 55.457 23.01 55.737 22.88C56.027 22.75 56.252 22.565 56.412 22.325C56.582 22.075 56.667 21.775 56.667 21.425C56.667 21.025 56.552 20.71 56.322 20.48C56.102 20.25 55.762 20.04 55.302 19.85C54.842 19.65 54.247 19.4 53.517 19.1C52.897 18.84 52.302 18.545 51.732 18.215C51.162 17.885 50.697 17.465 50.337 16.955C49.987 16.445 49.812 15.8 49.812 15.02C49.812 14.07 50.077 13.235 50.607 12.515C51.137 11.785 51.867 11.215 52.797 10.805C53.737 10.395 54.817 10.19 56.037 10.19C56.797 10.19 57.592 10.305 58.422 10.535C59.262 10.765 60.157 11.115 61.107 11.585L59.532 14.54C58.242 13.71 57.087 13.295 56.067 13.295C55.497 13.295 55.042 13.42 54.702 13.67C54.362 13.92 54.192 14.235 54.192 14.615C54.192 14.975 54.367 15.29 54.717 15.56C55.077 15.82 55.512 16.055 56.022 16.265C56.542 16.465 57.037 16.65 57.507 16.82C58.277 17.1 58.957 17.41 59.547 17.75C60.147 18.09 60.617 18.535 60.957 19.085C61.297 19.625 61.467 20.35 61.467 21.26C61.467 22.37 61.197 23.315 60.657 24.095C60.127 24.865 59.357 25.455 58.347 25.865C57.347 26.275 56.142 26.48 54.732 26.48ZM70.7649 26.48C69.2349 26.48 68.0449 25.995 67.1949 25.025C66.3449 24.045 65.9199 22.68 65.9199 20.93V14.135H63.8649V10.64H65.9199V4.88H70.5249V10.64H73.8999V14.135H70.5249V20.6C70.5249 21.18 70.6399 21.62 70.8699 21.92C71.1099 22.22 71.4449 22.37 71.8749 22.37C72.3549 22.37 72.8149 22.21 73.2549 21.89L74.4099 25.58C73.8899 25.86 73.3049 26.08 72.6549 26.24C72.0149 26.4 71.3849 26.48 70.7649 26.48ZM78.3748 26V10.64H82.9798V26H78.3748ZM80.6848 7.445C80.1848 7.445 79.7248 7.325 79.3048 7.085C78.8948 6.835 78.5648 6.5 78.3148 6.08C78.0648 5.66 77.9398 5.2 77.9398 4.7C77.9398 4.2 78.0648 3.745 78.3148 3.335C78.5648 2.925 78.8948 2.6 79.3048 2.36C79.7248 2.11 80.1848 1.985 80.6848 1.985C81.1848 1.985 81.6398 2.11 82.0498 2.36C82.4598 2.6 82.7848 2.925 83.0248 3.335C83.2748 3.745 83.3998 4.2 83.3998 4.7C83.3998 5.2 83.2748 5.66 83.0248 6.08C82.7848 6.5 82.4598 6.835 82.0498 7.085C81.6398 7.325 81.1848 7.445 80.6848 7.445ZM94.8143 26.48C93.4043 26.48 92.1193 26.13 90.9593 25.43C89.8093 24.72 88.8943 23.75 88.2143 22.52C87.5443 21.28 87.2093 19.87 87.2093 18.29C87.2093 16.75 87.5343 15.37 88.1843 14.15C88.8343 12.92 89.7293 11.95 90.8693 11.24C92.0193 10.52 93.3343 10.16 94.8143 10.16C95.9043 10.16 96.9193 10.37 97.8593 10.79C98.8093 11.2 99.5843 11.775 100.184 12.515V10.64H104.789V26H100.184V23.975C99.4843 24.785 98.6793 25.405 97.7693 25.835C96.8593 26.265 95.8743 26.48 94.8143 26.48ZM96.1793 22.565C96.9793 22.565 97.6893 22.385 98.3093 22.025C98.9293 21.655 99.4143 21.15 99.7643 20.51C100.114 19.87 100.289 19.14 100.289 18.32C100.289 17.49 100.109 16.76 99.7493 16.13C99.3993 15.49 98.9143 14.99 98.2943 14.63C97.6843 14.26 96.9793 14.075 96.1793 14.075C95.3893 14.075 94.6843 14.26 94.0643 14.63C93.4443 14.99 92.9543 15.49 92.5943 16.13C92.2343 16.77 92.0543 17.5 92.0543 18.32C92.0543 19.14 92.2293 19.87 92.5793 20.51C92.9393 21.15 93.4293 21.655 94.0493 22.025C94.6693 22.385 95.3793 22.565 96.1793 22.565ZM110.206 26V10.64H114.811V12.35C115.401 11.69 116.136 11.16 117.016 10.76C117.906 10.36 118.886 10.16 119.956 10.16C121.136 10.16 122.171 10.42 123.061 10.94C123.961 11.45 124.666 12.165 125.176 13.085C125.686 13.995 125.941 15.06 125.941 16.28V26H121.336V17.255C121.336 16.155 121.046 15.3 120.466 14.69C119.896 14.07 119.111 13.76 118.111 13.76C117.431 13.76 116.841 13.9 116.341 14.18C115.851 14.45 115.471 14.825 115.201 15.305C114.941 15.775 114.811 16.31 114.811 16.91V26H110.206Z" fill="black"/>
<path d="M134.273 25V1.9H142.141C143.718 1.9 145.086 2.18 146.243 2.74C147.41 3.29067 148.31 4.08867 148.945 5.134C149.589 6.17 149.911 7.42067 149.911 8.886C149.911 10.0433 149.706 11.0887 149.295 12.022C148.884 12.946 148.296 13.7253 147.531 14.36C146.766 14.9947 145.837 15.466 144.745 15.774L152.305 25H146.551L139.887 16.292H138.809V25H134.273ZM138.809 12.512H140.741C141.684 12.512 142.482 12.3767 143.135 12.106C143.788 11.8353 144.288 11.4387 144.633 10.916C144.988 10.384 145.165 9.74933 145.165 9.012C145.165 7.892 144.778 7.03333 144.003 6.436C143.238 5.82933 142.15 5.526 140.741 5.526H138.809V12.512ZM161.25 25.448C159.673 25.448 158.25 25.126 156.98 24.482C155.711 23.8287 154.703 22.9327 153.956 21.794C153.21 20.646 152.836 19.3253 152.836 17.832C152.836 16.3387 153.205 15.0227 153.942 13.884C154.689 12.736 155.697 11.84 156.966 11.196C158.245 10.5427 159.673 10.216 161.25 10.216C162.837 10.216 164.265 10.5427 165.534 11.196C166.804 11.84 167.807 12.736 168.544 13.884C169.291 15.0227 169.664 16.3387 169.664 17.832C169.664 19.3253 169.291 20.646 168.544 21.794C167.807 22.9327 166.804 23.8287 165.534 24.482C164.265 25.126 162.837 25.448 161.25 25.448ZM161.264 21.78C161.992 21.78 162.655 21.612 163.252 21.276C163.85 20.94 164.321 20.478 164.666 19.89C165.012 19.2927 165.184 18.6067 165.184 17.832C165.184 17.0573 165.012 16.376 164.666 15.788C164.321 15.1907 163.85 14.724 163.252 14.388C162.655 14.052 161.992 13.884 161.264 13.884C160.527 13.884 159.86 14.052 159.262 14.388C158.674 14.724 158.208 15.1907 157.862 15.788C157.517 16.376 157.344 17.0573 157.344 17.832C157.344 18.6067 157.517 19.2927 157.862 19.89C158.208 20.478 158.674 20.94 159.262 21.276C159.86 21.612 160.527 21.78 161.264 21.78ZM172.826 32.7C172.2 32.7 171.552 32.6207 170.88 32.462C170.208 32.3127 169.666 32.1073 169.256 31.846L170.572 28.388C171.01 28.696 171.468 28.85 171.944 28.85C172.961 28.85 173.47 28.122 173.47 26.666V10.664H177.768V27.422C177.768 29.0553 177.329 30.3433 176.452 31.286C175.584 32.2287 174.375 32.7 172.826 32.7ZM175.612 7.668C175.154 7.668 174.73 7.556 174.338 7.332C173.946 7.09867 173.633 6.79067 173.4 6.408C173.176 6.016 173.064 5.58667 173.064 5.12C173.064 4.65333 173.176 4.22867 173.4 3.846C173.633 3.454 173.946 3.146 174.338 2.922C174.73 2.68867 175.159 2.572 175.626 2.572C176.083 2.572 176.503 2.68867 176.886 2.922C177.278 3.146 177.586 3.454 177.81 3.846C178.043 4.22867 178.16 4.64867 178.16 5.106C178.16 5.57267 178.043 6.002 177.81 6.394C177.586 6.786 177.278 7.09867 176.886 7.332C176.503 7.556 176.078 7.668 175.612 7.668ZM188.826 25.448C187.51 25.448 186.311 25.1213 185.228 24.468C184.155 23.8053 183.301 22.9 182.666 21.752C182.041 20.5947 181.728 19.2787 181.728 17.804C181.728 16.3667 182.032 15.0787 182.638 13.94C183.245 12.792 184.08 11.8867 185.144 11.224C186.218 10.552 187.445 10.216 188.826 10.216C189.844 10.216 190.791 10.412 191.668 10.804C192.555 11.1867 193.278 11.7233 193.838 12.414V10.664H198.136V25H193.838V23.11C193.185 23.866 192.434 24.4447 191.584 24.846C190.735 25.2473 189.816 25.448 188.826 25.448ZM190.1 21.794C190.847 21.794 191.51 21.626 192.088 21.29C192.667 20.9447 193.12 20.4733 193.446 19.876C193.773 19.2787 193.936 18.5973 193.936 17.832C193.936 17.0573 193.768 16.376 193.432 15.788C193.106 15.1907 192.653 14.724 192.074 14.388C191.505 14.0427 190.847 13.87 190.1 13.87C189.363 13.87 188.705 14.0427 188.126 14.388C187.548 14.724 187.09 15.1907 186.754 15.788C186.418 16.3853 186.25 17.0667 186.25 17.832C186.25 18.5973 186.414 19.2787 186.74 19.876C187.076 20.4733 187.534 20.9447 188.112 21.29C188.691 21.626 189.354 21.794 190.1 21.794ZM207.143 25.448C205.929 25.448 204.842 25.2567 203.881 24.874C202.929 24.4913 202.135 23.9313 201.501 23.194L203.307 20.31C203.904 20.9447 204.529 21.43 205.183 21.766C205.836 22.102 206.489 22.27 207.143 22.27C207.507 22.27 207.819 22.2093 208.081 22.088C208.351 21.9667 208.561 21.794 208.711 21.57C208.869 21.3367 208.949 21.0567 208.949 20.73C208.949 20.3567 208.841 20.0627 208.627 19.848C208.421 19.6333 208.104 19.4373 207.675 19.26C207.245 19.0733 206.69 18.84 206.009 18.56C205.43 18.3173 204.875 18.042 204.343 17.734C203.811 17.426 203.377 17.034 203.041 16.558C202.714 16.082 202.551 15.48 202.551 14.752C202.551 13.8653 202.798 13.086 203.293 12.414C203.787 11.7327 204.469 11.2007 205.337 10.818C206.214 10.4353 207.222 10.244 208.361 10.244C209.07 10.244 209.812 10.3513 210.587 10.566C211.371 10.7807 212.206 11.1073 213.093 11.546L211.623 14.304C210.419 13.5293 209.341 13.142 208.389 13.142C207.857 13.142 207.432 13.2587 207.115 13.492C206.797 13.7253 206.639 14.0193 206.639 14.374C206.639 14.71 206.802 15.004 207.129 15.256C207.465 15.4987 207.871 15.718 208.347 15.914C208.832 16.1007 209.294 16.2733 209.733 16.432C210.451 16.6933 211.086 16.9827 211.637 17.3C212.197 17.6173 212.635 18.0327 212.953 18.546C213.27 19.05 213.429 19.7267 213.429 20.576C213.429 21.612 213.177 22.494 212.673 23.222C212.178 23.9407 211.459 24.4913 210.517 24.874C209.583 25.2567 208.459 25.448 207.143 25.448Z" fill="#8435F2"/>
<path d="M134.273 25H133.773V25.5H134.273V25ZM134.273 1.9V1.4H133.773V1.9H134.273ZM146.243 2.74L146.025 3.1901L146.03 3.19216L146.243 2.74ZM148.945 5.134L148.518 5.3935L148.52 5.39797L148.945 5.134ZM149.295 12.022L149.752 12.2251L149.753 12.2234L149.295 12.022ZM147.531 14.36L147.212 13.9751L147.531 14.36ZM144.745 15.774L144.609 15.2928L143.874 15.5001L144.358 16.0909L144.745 15.774ZM152.305 25V25.5H153.361L152.692 24.6831L152.305 25ZM146.551 25L146.154 25.3039L146.304 25.5H146.551V25ZM139.887 16.292L140.284 15.9881L140.134 15.792H139.887V16.292ZM138.809 16.292V15.792H138.309V16.292H138.809ZM138.809 25V25.5H139.309V25H138.809ZM138.809 12.512H138.309V13.012H138.809V12.512ZM143.135 12.106L142.944 11.6441V11.6441L143.135 12.106ZM144.633 10.916L144.217 10.6386L144.216 10.6404L144.633 10.916ZM144.003 6.436L143.692 6.82786L143.698 6.83196L144.003 6.436ZM138.809 5.526V5.026H138.309V5.526H138.809ZM134.773 25V1.9H133.773V25H134.773ZM134.273 2.4H142.141V1.4H134.273V2.4ZM142.141 2.4C143.66 2.4 144.949 2.66953 146.025 3.19008L146.461 2.28992C145.222 1.69047 143.777 1.4 142.141 1.4V2.4ZM146.03 3.19216C147.113 3.7034 147.937 4.43669 148.518 5.39349L149.372 4.87451C148.684 3.74064 147.707 2.87794 146.456 2.28784L146.03 3.19216ZM148.52 5.39797C149.106 6.34007 149.411 7.49505 149.411 8.886H150.411C150.411 7.34628 150.072 5.99993 149.37 4.87003L148.52 5.39797ZM149.411 8.886C149.411 9.98334 149.217 10.9588 148.837 11.8206L149.753 12.2234C150.195 11.2185 150.411 10.1033 150.411 8.886H149.411ZM148.838 11.8189C148.458 12.6738 147.917 13.3905 147.212 13.9751L147.85 14.7449C148.676 14.0602 149.311 13.2182 149.752 12.2251L148.838 11.8189ZM147.212 13.9751C146.507 14.5593 145.644 15.0011 144.609 15.2928L144.881 16.2552C146.031 15.9309 147.024 15.43 147.85 14.7449L147.212 13.9751ZM144.358 16.0909L151.918 25.3169L152.692 24.6831L145.132 15.4571L144.358 16.0909ZM152.305 24.5H146.551V25.5H152.305V24.5ZM146.948 24.6961L140.284 15.9881L139.49 16.5959L146.154 25.3039L146.948 24.6961ZM139.887 15.792H138.809V16.792H139.887V15.792ZM138.309 16.292V25H139.309V16.292H138.309ZM138.809 24.5H134.273V25.5H138.809V24.5ZM138.809 13.012H140.741V12.012H138.809V13.012ZM140.741 13.012C141.729 13.012 142.596 12.8706 143.326 12.5679L142.944 11.6441C142.368 11.8827 141.639 12.012 140.741 12.012V13.012ZM143.326 12.5679C144.06 12.2642 144.643 11.808 145.05 11.1916L144.216 10.6404C143.932 11.0693 143.517 11.4065 142.944 11.6441L143.326 12.5679ZM145.049 11.1933C145.467 10.5672 145.665 9.83251 145.665 9.012H144.665C144.665 9.66615 144.509 10.2008 144.217 10.6386L145.049 11.1933ZM145.665 9.012C145.665 7.76247 145.225 6.7466 144.308 6.04004L143.698 6.83196C144.331 7.32007 144.665 8.02153 144.665 9.012H145.665ZM144.314 6.04417C143.428 5.34231 142.215 5.026 140.741 5.026V6.026C142.086 6.026 143.047 6.31635 143.692 6.82783L144.314 6.04417ZM140.741 5.026H138.809V6.026H140.741V5.026ZM138.309 5.526V12.512H139.309V5.526H138.309ZM156.98 24.482L156.751 24.9266L156.754 24.9279L156.98 24.482ZM153.956 21.794L153.537 22.0666L153.538 22.0682L153.956 21.794ZM153.942 13.884L153.523 13.6114L153.522 13.6122L153.942 13.884ZM156.966 11.196L157.192 11.6419L157.194 11.6412L156.966 11.196ZM165.534 11.196L165.305 11.6406L165.308 11.6419L165.534 11.196ZM168.544 13.884L168.123 14.1542L168.126 14.1582L168.544 13.884ZM168.544 21.794L168.125 21.5214L168.124 21.5222L168.544 21.794ZM165.534 24.482L165.76 24.9279L165.763 24.9266L165.534 24.482ZM163.252 21.276L163.497 21.7118L163.252 21.276ZM164.666 19.89L165.097 20.1432L165.099 20.1403L164.666 19.89ZM164.666 15.788L164.233 16.0383L164.235 16.0412L164.666 15.788ZM163.252 14.388L163.007 14.8238L163.252 14.388ZM159.262 14.388L159.017 13.9522L159.014 13.9539L159.262 14.388ZM157.862 15.788L158.293 16.0412L158.295 16.0382L157.862 15.788ZM157.862 19.89L157.429 20.1403L157.431 20.1432L157.862 19.89ZM159.262 21.276L159.014 21.7101L159.017 21.7118L159.262 21.276ZM161.25 24.948C159.743 24.948 158.398 24.6408 157.206 24.0361L156.754 24.9279C158.101 25.6112 159.603 25.948 161.25 25.948V24.948ZM157.209 24.0374C156.013 23.4216 155.071 22.5828 154.374 21.5198L153.538 22.0682C154.334 23.2826 155.409 24.2357 156.751 24.9266L157.209 24.0374ZM154.375 21.5214C153.686 20.4618 153.336 19.2377 153.336 17.832H152.336C152.336 19.413 152.733 20.8302 153.537 22.0666L154.375 21.5214ZM153.336 17.832C153.336 16.425 153.682 15.2054 154.362 14.1558L153.522 13.6122C152.727 14.8399 152.336 16.2523 152.336 17.832H153.336ZM154.361 14.1566C155.058 13.0853 155.998 12.2477 157.192 11.6419L156.74 10.7501C155.395 11.4323 154.32 12.3867 153.523 13.6114L154.361 14.1566ZM157.194 11.6412C158.395 11.0273 159.744 10.716 161.25 10.716V9.716C159.602 9.716 158.095 10.058 156.739 10.7508L157.194 11.6412ZM161.25 10.716C162.766 10.716 164.114 11.0276 165.305 11.6406L165.763 10.7514C164.415 10.0578 162.907 9.716 161.25 9.716V10.716ZM165.308 11.6419C166.502 12.2475 167.436 13.0843 168.123 14.1542L168.965 13.6138C168.177 12.3877 167.105 11.4325 165.76 10.7501L165.308 11.6419ZM168.126 14.1582C168.814 15.2076 169.164 16.4263 169.164 17.832H170.164C170.164 16.2511 169.768 14.8378 168.962 13.6098L168.126 14.1582ZM169.164 17.832C169.164 19.2377 168.814 20.4618 168.125 21.5214L168.963 22.0666C169.768 20.8302 170.164 19.413 170.164 17.832H169.164ZM168.124 21.5222C167.437 22.5837 166.501 23.4219 165.305 24.0374L165.763 24.9266C167.106 24.2355 168.177 23.2816 168.964 22.0658L168.124 21.5222ZM165.308 24.0361C164.116 24.6406 162.767 24.948 161.25 24.948V25.948C162.906 25.948 164.413 25.6114 165.76 24.9279L165.308 24.0361ZM161.264 22.28C162.073 22.28 162.82 22.0925 163.497 21.7118L163.007 20.8402C162.489 21.1315 161.912 21.28 161.264 21.28V22.28ZM163.497 21.7118C164.171 21.3327 164.707 20.8078 165.097 20.1432L164.235 19.6368C163.935 20.1482 163.528 20.5473 163.007 20.8402L163.497 21.7118ZM165.099 20.1403C165.494 19.4578 165.684 18.6835 165.684 17.832H164.684C164.684 18.5298 164.529 19.1275 164.233 19.6397L165.099 20.1403ZM165.684 17.832C165.684 16.9806 165.494 16.2095 165.097 15.5348L164.235 16.0412C164.529 16.5425 164.684 17.134 164.684 17.832H165.684ZM165.099 15.5377C164.709 14.8634 164.173 14.3324 163.497 13.9522L163.007 14.8238C163.526 15.1156 163.932 15.5179 164.233 16.0382L165.099 15.5377ZM163.497 13.9522C162.82 13.5715 162.073 13.384 161.264 13.384V14.384C161.912 14.384 162.489 14.5325 163.007 14.8238L163.497 13.9522ZM161.264 13.384C160.448 13.384 159.695 13.5709 159.017 13.9522L159.507 14.8238C160.024 14.5331 160.606 14.384 161.264 14.384V13.384ZM159.014 13.9539C158.348 14.3346 157.818 14.8654 157.429 15.5377L158.295 16.0382C158.597 15.516 159.001 15.1134 159.51 14.8221L159.014 13.9539ZM157.431 15.5348C157.035 16.2095 156.844 16.9806 156.844 17.832H157.844C157.844 17.134 157.999 16.5425 158.293 16.0412L157.431 15.5348ZM156.844 17.832C156.844 18.6835 157.035 19.4578 157.429 20.1403L158.295 19.6397C157.999 19.1275 157.844 18.5298 157.844 17.832H156.844ZM157.431 20.1432C157.82 20.8059 158.35 21.3305 159.014 21.7101L159.51 20.8419C158.999 20.5495 158.595 20.1501 158.293 19.6368L157.431 20.1432ZM159.017 21.7118C159.695 22.0931 160.448 22.28 161.264 22.28V21.28C160.606 21.28 160.024 21.1309 159.507 20.8402L159.017 21.7118ZM170.88 32.462L170.994 31.9753L170.988 31.9739L170.88 32.462ZM169.256 31.846L168.788 31.6682L168.643 32.049L168.987 32.2678L169.256 31.846ZM170.572 28.388L170.859 27.9788L170.333 27.6095L170.104 28.2102L170.572 28.388ZM173.47 10.664V10.164H172.97V10.664H173.47ZM177.768 10.664H178.268V10.164H177.768V10.664ZM176.452 31.286L176.086 30.9454L176.084 30.9473L176.452 31.286ZM174.338 7.332L174.082 7.76171L174.089 7.76612L174.338 7.332ZM173.4 6.408L172.965 6.65607L172.969 6.66224L172.973 6.6683L173.4 6.408ZM173.4 3.846L172.97 3.59025L172.968 3.59341L173.4 3.846ZM174.338 2.922L174.586 3.35619L174.593 3.35165L174.338 2.922ZM176.886 2.922L176.625 3.3489L176.631 3.3526L176.637 3.35612L176.886 2.922ZM177.81 3.846L177.375 4.09407L177.379 4.10024L177.383 4.1063L177.81 3.846ZM177.81 6.394L177.38 6.13822L177.375 6.14593L177.81 6.394ZM176.886 7.332L177.138 7.76352L177.141 7.76165L176.886 7.332ZM172.826 32.2C172.243 32.2 171.633 32.1261 170.994 31.9754L170.765 32.9486C171.47 33.1153 172.158 33.2 172.826 33.2V32.2ZM170.988 31.9739C170.351 31.8324 169.87 31.6443 169.524 31.4242L168.987 32.2678C169.463 32.5704 170.064 32.7929 170.771 32.9501L170.988 31.9739ZM169.723 32.0238L171.039 28.5658L170.104 28.2102L168.788 31.6682L169.723 32.0238ZM170.284 28.7972C170.796 29.1565 171.352 29.35 171.944 29.35V28.35C171.583 28.35 171.224 28.2355 170.859 27.9788L170.284 28.7972ZM171.944 29.35C172.588 29.35 173.135 29.1093 173.498 28.5904C173.838 28.1041 173.97 27.4369 173.97 26.666H172.97C172.97 27.3511 172.847 27.7759 172.678 28.0176C172.532 28.2267 172.316 28.35 171.944 28.35V29.35ZM173.97 26.666V10.664H172.97V26.666H173.97ZM173.47 11.164H177.768V10.164H173.47V11.164ZM177.268 10.664V27.422H178.268V10.664H177.268ZM177.268 27.422C177.268 28.9642 176.855 30.1182 176.086 30.9454L176.818 31.6266C177.802 30.5685 178.268 29.1465 178.268 27.422H177.268ZM176.084 30.9473C175.33 31.766 174.267 32.2 172.826 32.2V33.2C174.483 33.2 175.837 32.6913 176.819 31.6247L176.084 30.9473ZM175.612 7.168C175.24 7.168 174.901 7.07812 174.586 6.89788L174.089 7.76612C174.558 8.03387 175.068 8.168 175.612 8.168V7.168ZM174.593 6.90235C174.27 6.70991 174.017 6.45954 173.826 6.1477L172.973 6.6683C173.249 7.1218 173.621 7.48742 174.082 7.76165L174.593 6.90235ZM173.834 6.15993C173.654 5.84609 173.564 5.50271 173.564 5.12H172.564C172.564 5.67063 172.697 6.18591 172.965 6.65607L173.834 6.15993ZM173.564 5.12C173.564 4.73727 173.654 4.40056 173.831 4.09859L172.968 3.59341C172.697 4.05678 172.564 4.5694 172.564 5.12H173.564ZM173.829 4.10174C174.019 3.78306 174.269 3.53686 174.586 3.35612L174.089 2.48788C173.622 2.75514 173.247 3.12494 172.97 3.59026L173.829 4.10174ZM174.593 3.35165C174.906 3.16546 175.247 3.072 175.626 3.072V2.072C175.071 2.072 174.553 2.21187 174.082 2.49235L174.593 3.35165ZM175.626 3.072C175.993 3.072 176.323 3.16439 176.625 3.3489L177.146 2.4951C176.683 2.21294 176.173 2.072 175.626 2.072V3.072ZM176.637 3.35612C176.952 3.53583 177.196 3.77958 177.375 4.09407L178.244 3.59793C177.975 3.12841 177.603 2.75617 177.134 2.48788L176.637 3.35612ZM177.383 4.1063C177.567 4.40889 177.66 4.73853 177.66 5.106H178.66C178.66 4.5588 178.519 4.04844 178.236 3.5857L177.383 4.1063ZM177.66 5.106C177.66 5.48481 177.566 5.82546 177.38 6.13826L178.239 6.64974C178.52 6.17854 178.66 5.66052 178.66 5.106H177.66ZM177.375 6.14593C177.195 6.46221 176.948 6.71266 176.63 6.90235L177.141 7.76165C177.607 7.48467 177.976 7.10978 178.244 6.64207L177.375 6.14593ZM176.633 6.90049C176.331 7.07725 175.994 7.168 175.612 7.168V8.168C176.162 8.168 176.675 8.03475 177.138 7.76351L176.633 6.90049ZM185.228 24.468L184.966 24.8935L184.97 24.8961L185.228 24.468ZM182.666 21.752L182.227 21.9897L182.229 21.9939L182.666 21.752ZM182.638 13.94L183.08 14.1751L183.081 14.1736L182.638 13.94ZM185.144 11.224L185.409 11.6484L185.41 11.6478L185.144 11.224ZM191.668 10.804L191.464 11.2605L191.47 11.2631L191.668 10.804ZM193.838 12.414L193.45 12.7289L194.338 13.8246V12.414H193.838ZM193.838 10.664V10.164H193.338V10.664H193.838ZM198.136 10.664H198.636V10.164H198.136V10.664ZM198.136 25V25.5H198.636V25H198.136ZM193.838 25H193.338V25.5H193.838V25ZM193.838 23.11H194.338V21.7667L193.46 22.7831L193.838 23.11ZM191.584 24.846L191.798 25.2981L191.584 24.846ZM192.088 21.29L192.34 21.7224L192.345 21.7194L192.088 21.29ZM193.446 19.876L193.008 19.6361L193.446 19.876ZM193.432 15.788L192.994 16.0279L192.998 16.0361L193.432 15.788ZM192.074 14.388L191.815 14.8156L191.823 14.8204L192.074 14.388ZM188.126 14.388L188.378 14.8204L188.383 14.8174L188.126 14.388ZM186.754 15.788L186.319 15.5429L186.754 15.788ZM186.74 19.876L186.302 20.1159L186.305 20.1211L186.74 19.876ZM188.112 21.29L187.856 21.7194L187.861 21.7224L188.112 21.29ZM188.826 24.948C187.598 24.948 186.488 24.6442 185.487 24.0399L184.97 24.8961C186.134 25.5984 187.423 25.948 188.826 25.948V24.948ZM185.491 24.0426C184.494 23.4269 183.699 22.586 183.104 21.5101L182.229 21.9939C182.903 23.214 183.816 24.1838 184.966 24.8934L185.491 24.0426ZM183.106 21.5143C182.525 20.4385 182.228 19.2059 182.228 17.804H181.228C181.228 19.3515 181.557 20.7509 182.227 21.9897L183.106 21.5143ZM182.228 17.804C182.228 16.4392 182.516 15.2335 183.08 14.1751L182.197 13.7049C181.548 14.9239 181.228 16.2942 181.228 17.804H182.228ZM183.081 14.1736C183.647 13.1009 184.423 12.2626 185.409 11.6484L184.88 10.7996C183.738 11.5107 182.843 12.4831 182.196 13.7064L183.081 14.1736ZM185.41 11.6478C186.396 11.0301 187.53 10.716 188.826 10.716V9.716C187.36 9.716 186.039 10.0739 184.879 10.8002L185.41 11.6478ZM188.826 10.716C189.778 10.716 190.655 10.8988 191.464 11.2605L191.872 10.3475C190.927 9.92515 189.91 9.716 188.826 9.716V10.716ZM191.47 11.2631C192.289 11.6166 192.945 12.1062 193.45 12.7289L194.227 12.0991C193.612 11.3404 192.821 10.7568 191.867 10.3449L191.47 11.2631ZM194.338 12.414V10.664H193.338V12.414H194.338ZM193.838 11.164H198.136V10.164H193.838V11.164ZM197.636 10.664V25H198.636V10.664H197.636ZM198.136 24.5H193.838V25.5H198.136V24.5ZM194.338 25V23.11H193.338V25H194.338ZM193.46 22.7831C192.849 23.4897 192.153 24.0242 191.371 24.3939L191.798 25.2981C192.714 24.8651 193.521 24.2423 194.217 23.4369L193.46 22.7831ZM191.371 24.3939C190.592 24.762 189.746 24.948 188.826 24.948V25.948C189.886 25.948 190.878 25.7326 191.798 25.2981L191.371 24.3939ZM190.1 22.294C190.925 22.294 191.676 22.1076 192.34 21.7224L191.837 20.8576C191.344 21.1444 190.769 21.294 190.1 21.294V22.294ZM192.345 21.7194C193.001 21.3278 193.516 20.7907 193.885 20.1159L193.008 19.6361C192.723 20.156 192.333 20.5615 191.832 20.8606L192.345 21.7194ZM193.885 20.1159C194.257 19.4363 194.436 18.6706 194.436 17.832H193.436C193.436 18.5241 193.289 19.1211 193.008 19.6361L193.885 20.1159ZM194.436 17.832C194.436 16.983 194.252 16.2138 193.867 15.5399L192.998 16.0361C193.285 16.5382 193.436 17.1316 193.436 17.832H194.436ZM193.871 15.5481C193.501 14.8721 192.985 14.3383 192.326 13.9556L191.823 14.8204C192.322 15.1097 192.71 15.5092 192.994 16.0279L193.871 15.5481ZM192.334 13.9605C191.677 13.5622 190.927 13.37 190.1 13.37V14.37C190.767 14.37 191.333 14.5232 191.815 14.8155L192.334 13.9605ZM190.1 13.37C189.282 13.37 188.534 13.5628 187.87 13.9586L188.383 14.8174C188.877 14.5226 189.445 14.37 190.1 14.37V13.37ZM187.875 13.9556C187.218 14.3375 186.697 14.8697 186.319 15.5429L187.19 16.0331C187.484 15.5116 187.878 15.1105 188.378 14.8204L187.875 13.9556ZM186.319 15.5429C185.936 16.2235 185.75 16.991 185.75 17.832H186.75C186.75 17.1423 186.901 16.5472 187.19 16.0331L186.319 15.5429ZM185.75 17.832C185.75 18.6706 185.93 19.4363 186.302 20.1159L187.179 19.6361C186.897 19.1211 186.75 18.5241 186.75 17.832H185.75ZM186.305 20.1211C186.683 20.7931 187.201 21.3285 187.856 21.7194L188.369 20.8606C187.866 20.5608 187.47 20.1535 187.176 19.6309L186.305 20.1211ZM187.861 21.7224C188.525 22.1076 189.276 22.294 190.1 22.294V21.294C189.432 21.294 188.857 21.1444 188.364 20.8576L187.861 21.7224ZM203.881 24.874L203.694 25.3379L203.696 25.3385L203.881 24.874ZM201.501 23.194L201.077 22.9286L200.882 23.2409L201.122 23.5202L201.501 23.194ZM203.307 20.31L203.671 19.9673L203.227 19.4955L202.883 20.0446L203.307 20.31ZM205.183 21.766L205.411 21.3214L205.183 21.766ZM208.081 22.088L207.876 21.6317L207.87 21.6345L208.081 22.088ZM208.711 21.57L208.297 21.2888L208.295 21.2927L208.711 21.57ZM208.627 19.848L208.265 20.1937L208.273 20.2016L208.627 19.848ZM207.675 19.26L207.475 19.7186L207.484 19.7221L207.675 19.26ZM206.009 18.56L205.815 19.0211L205.819 19.0225L206.009 18.56ZM204.343 17.734L204.593 17.3013L204.343 17.734ZM203.041 16.558L202.629 16.8409L202.632 16.8463L203.041 16.558ZM203.293 12.414L203.696 12.7104L203.697 12.7078L203.293 12.414ZM205.337 10.818L205.137 10.3597L205.135 10.3605L205.337 10.818ZM210.587 10.566L210.453 11.0478L210.455 11.0482L210.587 10.566ZM213.093 11.546L213.534 11.7812L213.776 11.3264L213.315 11.0978L213.093 11.546ZM211.623 14.304L211.352 14.7245L211.809 15.0182L212.064 14.5392L211.623 14.304ZM207.115 13.492L207.411 13.8948L207.115 13.492ZM207.129 15.256L206.823 15.6519L206.83 15.6567L206.836 15.6613L207.129 15.256ZM208.347 15.914L208.156 16.3765L208.167 16.3807L208.347 15.914ZM209.733 16.432L209.904 15.9621L209.903 15.9618L209.733 16.432ZM211.637 17.3L211.387 17.7332L211.39 17.735L211.637 17.3ZM212.953 18.546L212.528 18.8089L212.53 18.8124L212.953 18.546ZM212.673 23.222L212.262 22.9374L212.261 22.9385L212.673 23.222ZM210.517 24.874L210.329 24.4107L210.327 24.4114L210.517 24.874ZM207.143 24.948C205.982 24.948 204.959 24.765 204.066 24.4095L203.696 25.3385C204.725 25.7483 205.877 25.948 207.143 25.948V24.948ZM204.067 24.4101C203.185 24.0556 202.459 23.5412 201.88 22.8678L201.122 23.5202C201.812 24.3215 202.672 24.9271 203.694 25.3379L204.067 24.4101ZM201.925 23.4594L203.731 20.5754L202.883 20.0446L201.077 22.9286L201.925 23.4594ZM202.943 20.6527C203.572 21.3213 204.242 21.8443 204.954 22.2106L205.411 21.3214C204.817 21.0157 204.236 20.5681 203.671 19.9673L202.943 20.6527ZM204.954 22.2106C205.669 22.5784 206.401 22.77 207.143 22.77V21.77C206.578 21.77 206.003 21.6256 205.411 21.3214L204.954 22.2106ZM207.143 22.77C207.561 22.77 207.949 22.7004 208.291 22.5415L207.87 21.6345C207.69 21.7182 207.453 21.77 207.143 21.77V22.77ZM208.285 22.5443C208.633 22.3885 208.92 22.1576 209.127 21.8473L208.295 21.2927C208.203 21.4304 208.07 21.5449 207.876 21.6317L208.285 22.5443ZM209.124 21.8512C209.348 21.5224 209.449 21.1407 209.449 20.73H208.449C208.449 20.9727 208.391 21.1509 208.297 21.2888L209.124 21.8512ZM209.449 20.73C209.449 20.2564 209.309 19.8235 208.98 19.4944L208.273 20.2016C208.374 20.3018 208.449 20.4569 208.449 20.73H209.449ZM208.988 19.5024C208.715 19.2171 208.327 18.9884 207.866 18.7979L207.484 19.7221C207.881 19.8863 208.128 20.0495 208.266 20.1936L208.988 19.5024ZM207.874 18.8015C207.441 18.6129 206.882 18.3782 206.199 18.0975L205.819 19.0225C206.499 19.3018 207.05 19.5337 207.475 19.7185L207.874 18.8015ZM206.202 18.0989C205.643 17.8643 205.107 17.5984 204.593 17.3013L204.092 18.1667C204.643 18.4856 205.218 18.7704 205.815 19.0211L206.202 18.0989ZM204.593 17.3013C204.12 17.0274 203.741 16.6835 203.449 16.2697L202.632 16.8463C203.012 17.3845 203.501 17.8246 204.092 18.1667L204.593 17.3013ZM203.453 16.2751C203.197 15.9018 203.051 15.4054 203.051 14.752H202.051C202.051 15.5546 202.231 16.2622 202.629 16.8409L203.453 16.2751ZM203.051 14.752C203.051 13.9649 203.268 13.291 203.695 12.7104L202.89 12.1176C202.328 12.881 202.051 13.7658 202.051 14.752H203.051ZM203.697 12.7078C204.134 12.1067 204.741 11.6271 205.539 11.2755L205.135 10.3605C204.197 10.7742 203.441 11.3586 202.888 12.1202L203.697 12.7078ZM205.537 11.2763C206.34 10.9258 207.278 10.744 208.361 10.744V9.744C207.166 9.744 206.088 9.94482 205.137 10.3597L205.537 11.2763ZM208.361 10.744C209.02 10.744 209.716 10.8437 210.453 11.0478L210.72 10.0842C209.908 9.85902 209.121 9.744 208.361 9.744V10.744ZM210.455 11.0482C211.202 11.2529 212.007 11.5668 212.871 11.9942L213.315 11.0978C212.405 10.6479 211.54 10.3085 210.719 10.0838L210.455 11.0482ZM212.652 11.3108L211.182 14.0688L212.064 14.5392L213.534 11.7812L212.652 11.3108ZM211.893 13.8835C210.647 13.0814 209.474 12.642 208.389 12.642V13.642C209.208 13.642 210.191 13.9773 211.352 14.7245L211.893 13.8835ZM208.389 12.642C207.787 12.642 207.247 12.7739 206.819 13.0892L207.411 13.8948C207.617 13.7434 207.927 13.642 208.389 13.642V12.642ZM206.819 13.0892C206.39 13.4047 206.139 13.841 206.139 14.374H207.139C207.139 14.1977 207.205 14.046 207.411 13.8948L206.819 13.0892ZM206.139 14.374C206.139 14.9004 206.405 15.3292 206.823 15.6519L207.434 14.8601C207.199 14.6788 207.139 14.5196 207.139 14.374H206.139ZM206.836 15.6613C207.21 15.9317 207.653 16.1688 208.156 16.3763L208.537 15.4517C208.089 15.2672 207.719 15.0656 207.422 14.8507L206.836 15.6613ZM208.167 16.3807C208.655 16.5684 209.121 16.7423 209.563 16.9022L209.903 15.9618C209.468 15.8044 209.009 15.6329 208.526 15.4473L208.167 16.3807ZM209.562 16.9019C210.259 17.1552 210.866 17.4329 211.387 17.7332L211.886 16.8668C211.306 16.5324 210.644 16.2314 209.904 15.9621L209.562 16.9019ZM211.39 17.735C211.882 18.0138 212.257 18.3718 212.528 18.8089L213.378 18.2831C213.014 17.6935 212.511 17.2209 211.883 16.865L211.39 17.735ZM212.53 18.8124C212.78 19.2095 212.929 19.7827 212.929 20.576H213.929C213.929 19.6706 213.761 18.8905 213.376 18.2796L212.53 18.8124ZM212.929 20.576C212.929 21.5281 212.698 22.3065 212.262 22.9374L213.084 23.5066C213.655 22.6815 213.929 21.6959 213.929 20.576H212.929ZM212.261 22.9385C211.83 23.564 211.196 24.0586 210.329 24.4107L210.705 25.3373C211.723 24.9241 212.526 24.3173 213.085 23.5055L212.261 22.9385ZM210.327 24.4114C209.469 24.7631 208.413 24.948 207.143 24.948V25.948C208.505 25.948 209.698 25.7502 210.707 25.3366L210.327 24.4114Z" fill="#1E3BC7"/>
</svg>
