<svg width="46" height="27" viewBox="0 0 46 27" fill="none" xmlns="http://www.w3.org/2000/svg">
<path d="M14.5503 26.48C12.6803 26.48 10.9253 26.15 9.28527 25.49C7.64527 24.83 6.20027 23.915 4.95027 22.745C3.70027 21.565 2.72527 20.2 2.02527 18.65C1.32527 17.1 0.975273 15.435 0.975273 13.655C0.975273 11.865 1.32527 10.195 2.02527 8.645C2.73527 7.085 3.71027 5.72 4.95027 4.55C6.20027 3.37 7.64027 2.45 9.27027 1.79C10.9103 1.13 12.6603 0.799999 14.5203 0.799999C16.0403 0.799999 17.4853 1.015 18.8553 1.445C20.2353 1.875 21.4153 2.44 22.3953 3.14L20.2953 7.265C19.6253 6.735 18.8103 6.32 17.8503 6.02C16.8903 5.72 15.8853 5.57 14.8353 5.57C13.6053 5.57 12.4653 5.775 11.4153 6.185C10.3753 6.595 9.46527 7.165 8.68527 7.895C7.91527 8.625 7.31527 9.48 6.88527 10.46C6.45527 11.44 6.24027 12.5 6.24027 13.64C6.24027 14.78 6.45527 15.84 6.88527 16.82C7.31527 17.8 7.91527 18.655 8.68527 19.385C9.46527 20.115 10.3753 20.685 11.4153 21.095C12.4653 21.505 13.6053 21.71 14.8353 21.71C15.8853 21.71 16.8903 21.56 17.8503 21.26C18.8103 20.96 19.6253 20.545 20.2953 20.015L22.3953 24.14C21.4553 24.82 20.3003 25.38 18.9303 25.82C17.5603 26.26 16.1003 26.48 14.5503 26.48Z" fill="black"/>
<path d="M26.0518 26V1.25H34.4818C36.1718 1.25 37.6368 1.55 38.8768 2.15C40.1268 2.74 41.0918 3.595 41.7718 4.715C42.4618 5.825 42.8068 7.165 42.8068 8.735C42.8068 9.975 42.5868 11.095 42.1468 12.095C41.7068 13.085 41.0768 13.92 40.2568 14.6C39.4368 15.28 38.4418 15.785 37.2718 16.115L45.3718 26H39.2068L32.0668 16.67H30.9118V26H26.0518ZM30.9118 12.62H32.9818C33.9918 12.62 34.8468 12.475 35.5468 12.185C36.2468 11.895 36.7818 11.47 37.1518 10.91C37.5318 10.34 37.7218 9.66 37.7218 8.87C37.7218 7.67 37.3068 6.75 36.4768 6.11C35.6568 5.46 34.4918 5.135 32.9818 5.135H30.9118V12.62Z" fill="#8435F2"/>
<path d="M26.0518 26H25.5518V26.5H26.0518V26ZM26.0518 1.25V0.749999H25.5518V1.25H26.0518ZM38.8768 2.15L38.659 2.6001L38.6633 2.60216L38.8768 2.15ZM41.7718 4.715L41.3443 4.9745L41.3471 4.97897L41.7718 4.715ZM42.1468 12.095L42.6037 12.2981L42.6044 12.2964L42.1468 12.095ZM37.2718 16.115L37.136 15.6338L36.4009 15.8411L36.885 16.4319L37.2718 16.115ZM45.3718 26V26.5H46.4279L45.7585 25.6831L45.3718 26ZM39.2068 26L38.8097 26.3039L38.9598 26.5H39.2068V26ZM32.0668 16.67L32.4638 16.3661L32.3137 16.17H32.0668V16.67ZM30.9118 16.67V16.17H30.4118V16.67H30.9118ZM30.9118 26V26.5H31.4118V26H30.9118ZM30.9118 12.62H30.4118V13.12H30.9118V12.62ZM35.5468 12.185L35.3554 11.7231L35.3554 11.7231L35.5468 12.185ZM37.1518 10.91L36.7357 10.6326L36.7346 10.6344L37.1518 10.91ZM36.4768 6.11L36.1661 6.50186L36.1714 6.50596L36.4768 6.11ZM30.9118 5.135V4.635H30.4118V5.135H30.9118ZM26.5518 26V1.25H25.5518V26H26.5518ZM26.0518 1.75H34.4818V0.749999H26.0518V1.75ZM34.4818 1.75C36.1131 1.75 37.5005 2.03953 38.659 2.60008L39.0945 1.69992C37.773 1.06047 36.2304 0.749999 34.4818 0.749999V1.75ZM38.6633 2.60216C39.8298 3.15273 40.7181 3.94302 41.3444 4.97449L42.1992 4.45551C41.4654 3.24698 40.4237 2.32727 39.0902 1.69784L38.6633 2.60216ZM41.3471 4.97897C41.9787 5.99507 42.3068 7.23938 42.3068 8.735H43.3068C43.3068 7.09062 42.9448 5.65493 42.1964 4.45103L41.3471 4.97897ZM42.3068 8.735C42.3068 9.91501 42.0976 10.9651 41.6891 11.8936L42.6044 12.2964C43.0759 11.2249 43.3068 10.035 43.3068 8.735H42.3068ZM41.6899 11.8919C41.2806 12.8128 40.6972 13.5852 39.9376 14.2151L40.5759 14.9849C41.4563 14.2548 42.1329 13.3572 42.6037 12.2981L41.6899 11.8919ZM39.9376 14.2151C39.1784 14.8447 38.2483 15.3201 37.136 15.6338L37.4075 16.5962C38.6352 16.2499 39.6951 15.7153 40.5759 14.9849L39.9376 14.2151ZM36.885 16.4319L44.985 26.3169L45.7585 25.6831L37.6585 15.7981L36.885 16.4319ZM45.3718 25.5H39.2068V26.5H45.3718V25.5ZM39.6038 25.6961L32.4638 16.3661L31.6697 16.9739L38.8097 26.3039L39.6038 25.6961ZM32.0668 16.17H30.9118V17.17H32.0668V16.17ZM30.4118 16.67V26H31.4118V16.67H30.4118ZM30.9118 25.5H26.0518V26.5H30.9118V25.5ZM30.9118 13.12H32.9818V12.12H30.9118V13.12ZM32.9818 13.12C34.0368 13.12 34.9609 12.9689 35.7381 12.6469L35.3554 11.7231C34.7326 11.9811 33.9468 12.12 32.9818 12.12V13.12ZM35.7381 12.6469C36.518 12.3238 37.137 11.8393 37.5689 11.1856L36.7346 10.6344C36.4265 11.1007 35.9755 11.4662 35.3554 11.7231L35.7381 12.6469ZM37.5678 11.1873C38.0106 10.5232 38.2218 9.74318 38.2218 8.87H37.2218C37.2218 9.57682 37.053 10.1568 36.7357 10.6326L37.5678 11.1873ZM38.2218 8.87C38.2218 7.54047 37.7537 6.46326 36.7821 5.71404L36.1714 6.50596C36.8598 7.03674 37.2218 7.79953 37.2218 8.87H38.2218ZM36.7874 5.71817C35.8473 4.97298 34.556 4.635 32.9818 4.635V5.635C34.4275 5.635 35.4662 5.94702 36.1662 6.50183L36.7874 5.71817ZM32.9818 4.635H30.9118V5.635H32.9818V4.635ZM30.4118 5.135V12.62H31.4118V5.135H30.4118Z" fill="#1E3BC7"/>
</svg>
