<svg width="21" height="26" viewBox="0 0 21 26" fill="none" xmlns="http://www.w3.org/2000/svg">
    <rect width="21" height="26" fill="white"/>
        <g clip-path="url(#clip0_277_933)">
            <path d="M17.9544 21.2085C16.9674 24.4116 1.58204 29.9688 0.560038 15.7348C-0.297027 3.79785 16.6344 1.30664 16.6344 1.30664C16.6344 1.30664 0.573123 14.2616 17.9544 21.2085Z" fill="black"/>
            <path d="M14.4256 0.13477C14.4256 0.13477 13.1407 0.206892 12.9298 0.333605C12.745 0.444623 12.4364 0.575584 12.244 0.62481C10.7815 0.999035 7.62656 2.62591 7.62656 3.0058C7.62656 3.0788 7.55138 3.13847 7.45931 3.13847C7.04985 3.13847 4.16103 5.8855 3.00074 7.37818C1.3413 9.51302 0.76485 10.6786 0.403243 12.6309C-2.03426 23.4579 7.16229 26.9022 12.3362 25.8064C15.4615 25.2835 17.8685 23.7002 20.0555 21.4192C21.7111 20.534 21.0421 18.263 19.1953 18.7364C18.3471 18.981 15.7629 18.8054 15.2414 18.4679C15.0935 18.3722 14.6891 18.1518 14.3428 17.9781C13.09 17.3497 12.1275 16.3071 11.5092 14.9082C9.89779 7.99937 14.1335 5.83322 18.1114 2.68068C18.5335 1.07188 18.8136 -0.471463 14.4256 0.13477ZM15.3701 1.8075C15.462 1.80518 15.4075 1.86459 15.2475 2.01313C15.0962 2.15361 14.8661 2.27088 14.7359 2.27388C14.6058 2.27685 14.4605 2.35683 14.4129 2.45132C14.3653 2.54583 14.1955 2.62301 14.0358 2.62301C13.876 2.62301 13.5994 2.81638 13.4211 3.05264C7.26989 8.69118 6.81604 20.2258 16.0518 21.3215C16.5714 21.6237 16.5713 21.6237 16.1217 21.9082C15.8744 22.0647 15.3888 22.2792 15.0425 22.3847C14.6962 22.4902 14.224 22.6442 13.9931 22.727C12.1967 23.2494 8.52961 23.8549 6.80056 22.8475C6.53863 22.6861 6.26335 22.5543 6.18874 22.5543C3.96881 21.2012 2.08508 18.6316 1.93473 16.067C1.8456 14.3237 2.08929 13.1982 2.93065 11.4692C3.81384 9.65407 6.2098 6.92244 8.38226 5.25364C10.0885 3.94296 13.3999 2.2608 15.0376 1.87269C15.2069 1.83257 15.3149 1.80893 15.3701 1.8075Z" fill="black"/>
        </g>
    <defs>
        <clipPath id="clip0_277_933">
            <rect width="21" height="26" fill="white"/>
        </clipPath>
    </defs>
</svg>
