<svg width="30" height="30" viewBox="0 0 30 30" fill="none" xmlns="http://www.w3.org/2000/svg">
<path d="M21.4537 14.6053C19.916 14.6053 18.4305 13.8434 17.2702 12.4609C16.1225 11.0707 15.4364 9.28317 15.3261 7.39639C15.1962 5.35362 15.7573 3.47369 16.9061 2.10494C18.055 0.736185 19.6607 0 21.4537 0C23.2335 0 24.8445 0.751975 25.9897 2.11777C27.135 3.48356 27.7103 5.37435 27.5804 7.39836C27.4681 9.284 26.7821 11.0702 25.6363 12.4609C24.4751 13.8434 22.9905 14.6053 21.4537 14.6053ZM7.32768 14.9369C4.69777 14.9369 2.38512 12.222 2.17303 8.88455C2.06433 7.17533 2.53977 5.5954 3.51361 4.43586C4.48745 3.27632 5.83068 2.65954 7.32679 2.65954C8.8229 2.65954 10.1653 3.29507 11.1329 4.44967C12.1006 5.60428 12.591 7.19507 12.4806 8.89047C12.2649 12.223 9.95316 14.9369 7.32768 14.9369ZM29.9991 20.85C29.8586 20.3862 29.5166 19.8918 28.8309 19.423C26.7577 18.0089 24.2073 17.2609 21.4537 17.2609C18.7522 17.2609 16.1311 18.0405 14.0721 19.4566C11.7524 21.0523 10.1935 23.3793 9.56522 26.1849C9.41675 26.8451 9.20025 28.0737 9.43178 28.7615C13.1473 30.3394 17.2407 30.4118 20.9991 28.9661C24.7575 27.5204 27.9427 24.6483 30 20.85H29.9991ZM7.31089 25.3984C7.93567 22.6145 9.26564 20.2934 11.3291 18.4165C11.4266 18.3266 11.5008 18.2091 11.5439 18.0764C11.587 17.9436 11.5974 17.8003 11.574 17.6615C11.5506 17.5228 11.4943 17.3935 11.411 17.2873C11.3277 17.1811 11.2203 17.1017 11.1002 17.0576C10.0398 16.6796 8.82909 16.4773 7.32768 16.4773C5.22269 16.4773 2.9878 17.1138 1.30612 18.2704C0.828915 18.599 0.360551 18.7253 0 18.8378C1.44757 22.4106 3.84817 25.3968 6.87345 27.3878L7.03164 27.374C7.06623 26.7068 7.15977 26.045 7.31089 25.3984Z" fill="black"/>
</svg>
