<svg width="30" height="30" viewBox="0 0 30 30" fill="none" xmlns="http://www.w3.org/2000/svg">
<path d="M26.6667 3.00027H19.7C19.3587 2.12344 18.7231 1.36373 17.8811 0.826223C17.0391 0.288721 16.0323 0 15 0C13.9677 0 12.9609 0.288721 12.1189 0.826223C11.2769 1.36373 10.6413 2.12344 10.3 3.00027H3.33333C2.45009 3.00265 1.60378 3.31948 0.979225 3.88157C0.354674 4.44366 0.00263788 5.20533 0 6.00024V27C0.00263788 27.7949 0.354674 28.5566 0.979225 29.1187C1.60378 29.6808 2.45009 29.9976 3.33333 30H26.6667C27.5499 29.9976 28.3962 29.6808 29.0208 29.1187C29.6453 28.5566 29.9974 27.7949 30 27V6.00024C29.9974 5.20533 29.6453 4.44366 29.0208 3.88157C28.3962 3.31948 27.5499 3.00265 26.6667 3.00027ZM15 3.00027C15.3296 3.00027 15.6519 3.08825 15.926 3.25307C16.2 3.41789 16.4137 3.65215 16.5398 3.92624C16.6659 4.20033 16.6989 4.50192 16.6346 4.79289C16.5703 5.08386 16.4116 5.35113 16.1785 5.56091C15.9454 5.77068 15.6485 5.91354 15.3252 5.97142C15.0018 6.0293 14.6667 5.99959 14.3622 5.88606C14.0576 5.77253 13.7974 5.58028 13.6142 5.3336C13.4311 5.08693 13.3333 4.79693 13.3333 4.50026C13.3347 4.1028 13.5107 3.72196 13.8229 3.44092C14.1352 3.15988 14.5584 3.00146 15 3.00027ZM11.6667 10.5002L16.3167 14.6912L20.5167 10.9112L18.3333 9.00021H25V15.0002L22.8733 13.0337L16.32 18.9361L11.6667 14.7452L7.35667 18.6211L5 16.5001L11.6667 10.5002ZM26.6667 25.5H3.33333V22.5001H26.6667V25.5Z" fill="black"/>
</svg>
