<svg width="38" height="37" viewBox="0 0 38 37" fill="none" xmlns="http://www.w3.org/2000/svg">
    <path d="M36.9556 17.6128V17.6719L36.9649 17.7303C37.6647 22.1395 35.625 26.5128 32.0872 29.8241C28.5512 33.1337 23.605 35.2922 18.7058 35.2922C8.9608 35.2922 1.91835 26.6944 0.95106 18.4675L0.946584 18.4294L0.938251 18.392C0.026683 14.2994 2.53172 9.5946 6.52082 5.99855C10.5031 2.4086 15.6551 0.210243 19.5827 0.865353L19.7061 0.125574L19.5827 0.865355C23.7092 1.5536 28.078 3.45724 31.4014 6.34566C34.7178 9.22804 36.9556 13.0527 36.9556 17.6128Z" fill="#FBFBFB" stroke="#050505" stroke-width="1.5"/>
    <path d="M28.0904 25.1293C28.0193 24.9016 27.1141 23.8962 26.8121 23.7255C26.5109 23.5548 24.6877 23.7771 24.363 23.8205C24.2215 23.8393 24.31 24.5033 24.363 25.1862C24.4159 25.869 24.7005 28.0681 24.5408 28.5422C24.3812 29.0162 24.0084 28.9782 22.5178 28.9405C21.0273 28.9029 17.3879 28.9405 15.1518 28.8455C12.9145 28.7505 12.1161 28.7129 11.9912 28.5991C11.867 28.4853 11.6544 24.7874 11.601 23.8016C11.5473 22.815 9.52424 23.0995 9.1697 23.1188C8.81515 23.1372 8.76179 24.1991 8.83294 25.4317C8.9041 26.6652 9.046 28.2393 9.25906 29.984C9.47212 31.7284 9.63139 32.1464 10.0935 32.4309C10.5548 32.7154 12.1343 32.6953 15.844 32.4681C19.5532 32.2405 26.5639 32.3543 27.3987 32.1648C28.2319 31.9752 28.2501 31.2539 28.2501 30.1355C28.2501 29.0167 28.1612 25.3569 28.0904 25.1293ZM26.7062 28.8643C26.6524 30.666 26.7765 31.0451 26.5283 31.0639C26.2801 31.0827 21.6838 31.2158 17.8674 31.1208C14.0514 31.0258 11.6205 31.0639 11.1762 31.0639C10.7318 31.0639 10.3591 31.2534 10.1816 31.0639C10.0037 30.8744 9.59581 28.5798 9.4717 27.12C9.34759 25.6593 9.27726 23.9903 9.45433 23.7819C9.5139 23.7119 10.7145 23.2891 10.9983 24.0853C11.2821 24.8819 11.3354 28.276 11.3354 28.6551C11.3354 29.0342 11.7078 29.1865 12.0809 29.2053C12.4533 29.2242 15.542 29.4518 18.9319 29.4899C22.3217 29.5279 24.3803 29.5468 24.6285 29.4899C24.8776 29.4329 25.2326 29.2811 25.2148 28.276C25.197 27.2702 24.8242 24.4635 24.8954 24.3878C24.9657 24.312 26.2441 24.1225 26.3682 24.3497C26.4923 24.5782 26.7587 27.0627 26.7058 28.8639L26.7062 28.8643ZM13.5719 28.4853C13.696 28.561 13.7672 28.4853 14.8676 28.5422C15.9681 28.5991 20.5296 28.6372 21.6296 28.6179C22.7301 28.5991 23.4044 28.5798 23.5285 28.3146C23.6526 28.0493 23.5641 27.1388 23.4747 26.6644C23.3866 26.1907 22.6411 26.3229 21.2213 26.2857C19.8015 26.2476 13.128 26.2476 13.128 26.2476C12.9327 26.2857 12.9501 27.5941 12.9683 27.7648C12.9874 27.9355 13.4482 28.41 13.5723 28.4862L13.5719 28.4853ZM13.5897 26.7405C13.5897 26.6311 18.5769 26.7033 20.4228 26.7033C22.2688 26.7033 22.9257 26.6845 22.9431 26.8359C22.9609 26.9878 23.0321 27.8602 22.9431 27.879C22.8546 27.8983 20.1217 27.8606 17.5476 27.7652C14.9744 27.6707 13.8201 27.8037 13.6782 27.6899C13.5368 27.5761 13.5897 26.8556 13.5897 26.7418V26.7405ZM15.4712 25.6795C16.9275 25.7933 21.6131 25.9452 22.3941 25.9071C23.1752 25.869 23.3349 25.7552 23.459 25.6418C23.5831 25.528 23.6543 24.0297 23.4052 23.8397C23.157 23.6502 23.0329 23.7828 22.6246 23.7828C22.2162 23.7828 19.7675 23.7828 16.9101 23.6121C14.0526 23.4414 12.9894 23.3827 12.8988 23.4795C12.8107 23.5745 12.7395 24.5607 12.8814 24.9966C13.0233 25.4326 13.1479 25.2054 13.4855 25.4326C13.8222 25.6602 14.0175 25.5652 15.4729 25.679L15.4712 25.6795ZM13.2889 23.9347C13.3659 23.8656 19.6252 24.1807 20.832 24.2564C22.0388 24.3322 22.7135 24.2376 22.7665 24.4083C22.8194 24.579 22.9084 25.0343 22.6246 25.0343C22.3408 25.0343 17.8686 24.7878 16.0219 24.7309C14.1767 24.674 13.3783 24.7681 13.3071 24.674C13.236 24.5777 13.183 24.0284 13.2894 23.9343L13.2889 23.9347ZM13.2352 21.0895C13.4668 21.2226 16.2883 21.4502 18.9683 21.5447C21.6482 21.6402 23.0681 21.7916 23.2811 21.6402C23.4942 21.4883 23.459 20.2368 23.2455 19.9147C23.0329 19.5921 19.4833 19.4406 17.2468 19.1749C15.0104 18.9092 13.0527 18.7853 12.9162 18.7578C12.632 18.7009 12.632 20.1804 12.668 20.4456C12.7036 20.7096 13.0056 20.9564 13.236 21.0891L13.2352 21.0895ZM13.4131 19.2314C13.5057 19.1819 17.3176 19.7054 18.9153 19.8761C20.513 20.0469 22.6246 20.1795 22.6428 20.3121C22.6601 20.4447 22.7669 20.7481 22.589 20.7673C22.4111 20.7862 18.8615 20.5778 17.2291 20.4828C15.5958 20.3878 13.4313 20.274 13.3948 20.1602C13.3601 20.0464 13.3423 19.2695 13.4131 19.2314ZM14.1941 16.9561C14.372 17.2214 14.6554 17.2214 15.9511 17.4682C17.246 17.7147 22.9965 19.3644 23.2447 19.4975C23.4938 19.6301 23.919 18.9097 24.0614 18.5494C24.2033 18.1892 24.0969 17.7339 24.0436 17.3925C23.9902 17.0511 23.7428 16.9565 21.3462 16.1406C18.9509 15.3256 14.365 13.9756 14.1933 13.8846C13.8036 13.6758 13.6265 15.6294 13.6617 15.857C13.6977 16.0837 14.0175 16.6904 14.1945 16.9557L14.1941 16.9561ZM14.4605 14.4147C14.5007 14.3779 17.318 15.1544 19.1462 15.8001C20.9747 16.4448 23.3701 17.4118 23.4238 17.5256C23.4776 17.6394 23.548 18.3599 23.0863 18.2461C22.6246 18.1323 17.4061 16.6344 16.1112 16.3113C14.8155 15.9896 14.4783 16.1222 14.3716 15.8758C14.2653 15.6294 14.3186 14.5486 14.461 14.4155L14.4605 14.4147ZM18.188 12.7089C19.6608 13.6382 23.6721 16.7289 23.9025 16.8804C24.1329 17.0327 24.4879 16.8235 24.8428 16.4068C25.1978 15.99 25.7654 15.098 25.6239 14.8528C25.4833 14.606 22.3763 12.0076 21.3119 11.0797C20.247 10.1495 17.474 8.29706 17.3718 8.32901C17.0698 8.424 16.0053 9.69471 15.863 10.0169C15.7211 10.3395 16.2891 11.1742 16.3421 11.4395C16.3959 11.7047 16.7144 11.7809 18.188 12.7097V12.7089ZM17.4599 9.03024C17.5625 8.98209 20.1043 10.8315 22.0748 12.462C24.0452 14.0929 24.8615 14.7754 24.8259 14.9461C24.7907 15.1168 24.6314 15.7996 24.1875 15.572C23.7436 15.3444 17.5832 10.6034 17.2994 10.413C17.016 10.2235 16.7318 10.0147 16.7318 9.92013C16.7318 9.82515 17.2994 9.10466 17.4591 9.02893L17.4599 9.03024ZM21.1783 8.42268C21.817 9.16244 25.5974 14.4536 25.758 14.5105C25.9185 14.5674 27.275 14.0553 27.4616 13.8846C27.6482 13.7139 27.8079 13.2871 27.5679 12.8034C27.3276 12.3193 22.5348 4.92396 22.0553 4.6679C21.5771 4.41183 20.8043 5.4361 20.7248 5.54991C20.6454 5.66372 20.4849 7.2277 20.5387 7.42686C20.5916 7.62559 20.5387 7.68249 21.1774 8.42181L21.1783 8.42268ZM21.7728 5.37C22.0218 5.44573 26.9205 12.5193 26.8315 12.785C26.743 13.0499 26.6363 13.5248 26.388 13.1265C26.1398 12.7281 21.2229 5.86332 21.2052 5.78759C21.1762 5.66415 21.5245 5.29428 21.7732 5.37H21.7728ZM9.68641 24.713C9.65084 24.8268 9.82831 26.5716 9.86431 26.7992C9.89947 27.0268 10.1829 26.8942 10.3252 26.818C10.4671 26.7423 10.3252 25.2439 10.3252 25.0925C10.3252 24.9406 10.7513 24.7891 10.6801 24.6753C10.6098 24.5615 9.77826 24.4201 9.68641 24.713ZM25.7671 29.3966C25.7133 29.4916 25.7489 30.0983 25.7311 30.1933C25.7133 30.2883 24.3485 30.1915 24.2583 30.2883C24.1689 30.3832 24.2223 30.7242 24.3642 30.8004C24.5061 30.8761 25.9611 30.8385 26.2279 30.7435C26.4944 30.6485 26.352 29.9661 26.3342 29.5485C26.3169 29.1314 25.8196 29.3021 25.7666 29.3966H25.7671Z" fill="#050505"/>
</svg>